<svg fill="none" height="601" viewBox="0 0 2744 601" width="2744" xmlns="http://www.w3.org/2000/svg" xmlns:xlink="http://www.w3.org/1999/xlink"><clipPath id="a"><path d="m0 0h2744v601h-2744z"/></clipPath><g clip-path="url(#a)"><g fill="#0d0c22"><path d="m371.696 139.803-.412-.242-.954-.291c.384.324.865.512 1.366.533z"/><path d="m371.873 139.737c-.059-.007-.117-.021-.172-.041-.003.038-.003.076 0 .115.063-.008.123-.034.172-.074z"/><path d="m371.698 139.808h.062v-.038z"/><path d="m377.336 182.662.695-.396.259-.146.235-.251c-.441.191-.844.459-1.189.793z"/><path d="m372.9 140.741-.679-.646-.461-.251c.247.437.657.759 1.14.897z"/><path d="m202.041 557.385c-.542.234-1.017.602-1.382 1.067l.428-.275c.291-.267.703-.582.954-.792z"/><path d="m301.257 537.862c0-.615-.299-.501-.226 1.682 0-.178.072-.356.105-.526.04-.388.073-.768.121-1.156z"/><path d="m290.966 557.385c-.542.234-1.018.602-1.382 1.067l.428-.275c.291-.267.703-.582.954-.792z"/><path d="m132.169 562.026c-.412-.358-.916-.593-1.455-.679.436.211.872.421 1.163.583z"/><path d="m116.446 546.968c-.064-.637-.259-1.253-.574-1.811.223.581.409 1.174.558 1.779z"/></g><path d="m222.058 277.633c-21.585 9.241-46.081 19.72-77.827 19.72-13.281-.027-26.498-1.849-39.29-5.417l21.957 225.458c.777 9.423 5.069 18.209 12.024 24.614 6.956 6.405 16.065 9.959 25.519 9.958 0 0 31.133 1.617 41.522 1.617 11.18 0 44.706-1.617 44.706-1.617 9.453-.001 18.56-3.556 25.513-9.96 6.954-6.405 11.245-15.19 12.022-24.612l23.517-249.14c-10.509-3.59-21.116-5.975-33.072-5.975-20.68-.009-37.342 7.115-56.591 15.354z" fill="#fd0"/><path d="m36.9712 181.443.3719.348.2425.146c-.1868-.186-.3927-.352-.6144-.494z" fill="#0d0c22"/><path d="m413.258 160.634-3.306-16.68c-2.967-14.965-9.701-29.106-25.061-34.516-4.924-1.73-10.51-2.474-14.286-6.055-3.775-3.5821-4.891-9.1451-5.764-14.3033-1.617-9.4679-3.136-18.9437-4.794-28.3957-1.431-8.1257-2.563-17.2539-6.29-24.7086-4.85-10.0096-14.915-15.8633-24.923-19.7362-5.129-1.9147-10.363-3.5343-15.676-4.8511-25.004-6.59763-51.295-9.02321-77.019-10.405791-30.877-1.703964-61.835-1.190585-92.639 1.536201-22.927 2.086-47.0743 4.60864-68.8617 12.54029-7.9628 2.9026-16.1687 6.3874-22.2238 12.5403-7.4295 7.5597-9.8548 19.251-4.4302 28.6784 3.8562 6.6947 10.3883 11.4242 17.3166 14.5536 9.0241 4.0319 18.4487 7.0994 28.1175 9.1526 26.9206 5.9507 54.8036 8.2876 82.3066 9.2816 30.482 1.2303 61.015.2337 91.353-2.9833 7.502-.8248 14.991-1.8135 22.466-2.9675 8.804-1.3501 14.455-12.8632 11.86-20.8841-3.105-9.5891-11.448-13.3084-20.882-11.8611-1.391.2183-2.773.4205-4.164.6226l-1.002.1455c-3.196.4043-6.392.7816-9.588 1.1319-6.602.7116-13.221 1.2937-19.855 1.7465-14.86 1.0349-29.759 1.5119-44.65 1.5362-14.633 0-29.273-.4124-43.874-1.3745-6.661-.4366-13.306-.9918-19.936-1.6656-3.015-.3153-6.022-.6468-9.03-1.0187l-2.862-.3639-.622-.0889-2.967-.4285c-6.063-.9136-12.126-1.9648-18.125-3.2341-.605-.1343-1.147-.4712-1.535-.9548s-.6-1.0852-.6-1.7053.212-1.2216.6-1.7053.93-.8204 1.535-.9547h.113c5.198-1.1078 10.437-2.0537 15.692-2.8784 1.751-.2749 3.508-.5444 5.271-.8085h.048c3.291-.2183 6.597-.8086 9.871-1.1967 28.487-2.9634 57.143-3.9737 85.767-3.0238 13.897.4042 27.786 1.2208 41.618 2.6277 2.975.3072 5.934.6306 8.893.9945 1.132.1374 2.271.2991 3.411.4365l2.296.3315c6.694.9973 13.352 2.2073 19.977 3.6303 9.814 2.1346 22.418 2.8299 26.783 13.5833 1.39 3.412 2.021 7.204 2.789 10.7859l.978 4.5684c.026.0816.045.1652.057.2501 2.312 10.7805 4.627 21.561 6.944 32.3415.17.796.174 1.619.012 2.417s-.487 1.554-.954 2.221c-.468.667-1.067 1.23-1.762 1.655s-1.469.702-2.276.814h-.065l-1.414.194-1.399.186c-4.43.577-8.866 1.116-13.306 1.617-8.748.997-17.508 1.859-26.283 2.587-17.435 1.45-34.905 2.401-52.41 2.854-8.92.238-17.837.348-26.751.332-35.483-.028-70.934-2.091-106.18-6.177-3.8157-.453-7.6312-.938-11.4474-1.431 2.9592.379-2.1503-.291-3.185-.437-2.4255-.34-4.8509-.693-7.2757-1.059-8.1411-1.221-16.2335-2.725-24.3583-4.043-9.8225-1.617-19.2164-.808-28.1011 4.043-7.293 3.991-13.1956 10.112-16.9205 17.545-3.83195 7.923-4.97183 16.55-6.68571 25.064s-4.381711 17.675-3.371171 26.414c2.174681 18.864 15.360281 34.194 34.325981 37.622 17.8422 3.234 35.781 5.853 53.7687 8.085 70.6592 8.655 142.0442 9.69 212.9252 3.088 5.772-.539 11.536-1.126 17.292-1.762 1.798-.198 3.617.009 5.324.606 1.708.597 3.261 1.568 4.544 2.842 1.283 1.275 2.266 2.82 2.875 4.523.609 1.704.829 3.522.645 5.321l-1.795 17.448c-3.616 35.258-7.233 70.512-10.849 105.764-3.773 37.019-7.57 74.036-11.391 111.051-1.078 10.424-2.156 20.847-3.234 31.266-1.035 10.26-1.18 20.844-3.128 30.983-3.072 15.943-13.865 25.735-29.613 29.317-14.428 3.283-29.166 5.007-43.963 5.142-16.403.089-32.798-.639-49.201-.55-17.51.097-38.958-1.52-52.475-14.553-11.876-11.449-13.517-29.374-15.134-44.874-2.156-20.52-4.293-41.038-6.411-61.553l-11.8835-114.075-7.6884-73.81c-.1296-1.221-.2586-2.426-.3797-3.655-.9222-8.805-7.1552-17.424-16.9774-16.979-8.4077.371-17.9634 7.519-16.9771 16.979l5.6994 54.721 11.7871 113.194c3.3575 32.152 6.707 64.311 10.0486 96.474.647 6.16 1.2532 12.338 1.9325 18.498 3.6944 33.667 29.4025 51.811 61.2385 56.921 18.594 2.992 37.64 3.606 56.509 3.913 24.189.389 48.62 1.318 72.412-3.064 35.255-6.468 61.707-30.012 65.483-66.534 1.078-10.543 2.155-21.089 3.233-31.638 3.584-34.885 7.163-69.773 10.736-104.663l11.69-114.003 5.36-52.247c.267-2.59 1.361-5.027 3.12-6.947 1.759-1.921 4.089-3.224 6.646-3.718 10.081-1.964 19.718-5.32 26.889-12.993 11.415-12.216 13.686-28.145 9.652-44.202zm-379.2273 11.271c.1537-.073-.1293 1.246-.2505 1.86-.0243-.93.0242-1.755.2505-1.86zm.9783 7.568c.0808-.056.3233.267.5739.655-.3799-.356-.6224-.623-.582-.655zm.962 1.269c.5335.963.3476.591 0 0zm1.9321 1.569h.0485c0 .057.089.113.1213.17-.0536-.063-.1132-.119-.1778-.17zm338.3449-2.345c-3.621 3.444-9.079 5.045-14.471 5.846-60.471 8.975-121.822 13.519-182.956 11.513-43.752-1.496-87.0441-6.355-130.3597-12.475-4.2443-.598-8.8443-1.375-11.7627-4.504-5.4974-5.902-2.7972-17.788-1.3663-24.919 1.3097-6.532 3.8158-15.241 11.5848-16.17 12.1266-1.423 26.2093 3.695 38.2068 5.514 14.444 2.205 28.9411 3.97 43.4931 5.296 62.104 5.659 125.251 4.778 187.079-3.501 11.27-1.515 22.499-3.275 33.688-5.28 9.968-1.787 21.019-5.142 27.042 5.183 4.131 7.034 4.681 16.445 4.042 24.393-.197 3.463-1.709 6.72-4.228 9.104z" fill="#0d0c22"/><path clip-rule="evenodd" d="m743.026 347.999c-3.528 6.741-8.386 12.61-14.559 17.591-6.181 4.985-13.388 9.043-21.629 12.168-8.234 3.132-16.527 5.233-24.86 6.305-8.339 1.075-16.435.982-24.276-.295-7.847-1.268-14.521-3.857-20.008-7.77l6.181-64.21c5.686-1.953 12.841-3.958 21.478-6.011 8.628-2.05 17.501-3.519 26.623-4.397 9.123-.881 17.752-.777 25.9.294 8.129 1.075 14.559 3.664 19.265 7.77 2.548 2.344 4.713 4.884 6.477 7.622s2.843 5.572 3.238 8.503c.974 8.21-.296 15.686-3.83 22.43zm-89.741-136.778c4.122-2.54 9.073-4.791 14.858-6.747 5.786-1.95 11.723-3.323 17.804-4.103 6.075-.778 12.012-.882 17.804-.295 5.779.588 10.887 2.199 15.297 4.836 4.416 2.641 7.701 6.454 9.853 11.435 2.159 4.988 2.751 11.293 1.77 18.914-.783 6.06-3.192 11.193-7.207 15.393-4.021 4.207-8.931 7.722-14.71 10.556-5.792 2.839-11.92 5.086-18.39 6.74-6.477 1.667-12.71 2.891-18.686 3.668-5.983.785-11.183 1.276-15.593 1.466-4.416.197-7.312.294-8.682.294zm121.518 95.288c-3.139-6.837-7.352-12.847-12.65-18.033-5.292-5.177-11.578-8.938-18.831-11.285 3.139-2.541 6.226-6.547 9.267-12.022 3.041-5.469 5.641-11.435 7.8-17.885 2.152-6.454 3.626-12.949 4.41-19.499.783-6.547.487-12.168-.876-16.862-3.343-11.724-8.589-20.912-15.75-27.56-7.161-6.643-15.494-11.237-25.005-13.781-9.517-2.533-20.009-3.076-31.481-1.611-11.479 1.466-23.201 4.349-35.161 8.649 0-.975.097-2.002.294-3.077.191-1.071.291-2.198.291-3.373 0-2.931-1.47-5.468-4.412-7.622-2.941-2.15-6.327-3.418-10.149-3.812-3.826-.387-7.555.438-11.183 2.492-3.632 2.053-6.133 5.821-7.503 11.285-1.572 17.594-3.139 35.873-4.707 54.829-1.571 18.963-3.237 38.12-5.002 57.474-1.766 19.35-3.531 38.555-5.297 57.611-1.765 19.06-3.531 37.384-5.296 54.974.589 5.279 2.06 9.385 4.415 12.316 2.352 2.936 5.099 4.695 8.238 5.279 3.136.588 6.425.044 9.855-1.615 3.43-1.655 6.424-4.545 8.977-8.648 7.843 4.3 16.671 7.086 26.481 8.358 9.808 1.268 19.759 1.268 29.863 0 10.096-1.272 20.055-3.664 29.862-7.186 9.807-3.516 18.732-7.916 26.775-13.191 8.043-5.278 14.809-11.292 20.305-18.033 5.489-6.747 9.116-14.027 10.887-21.842 1.764-8.016 2.251-16.028 1.467-24.045-.783-8.011-2.744-15.436-5.884-22.285z" fill="#0d0c23" fill-rule="evenodd"/><path clip-rule="evenodd" d="m1061.84 461.317c-1.08 6.45-2.61 13.242-4.56 20.38-1.97 7.131-4.27 13.633-6.92 19.499-2.64 5.862-5.59 10.597-8.82 14.217-3.24 3.615-6.72 5.133-10.45 4.549-2.94-.398-4.8-2.254-5.59-5.572-.78-3.329-.78-7.432 0-12.316.79-4.888 2.31-10.412 4.56-16.568s5.01-12.267 8.24-18.324c3.24-6.062 6.91-11.873 11.03-17.445 4.13-5.568 8.44-10.214 12.95-13.926.98 1.171 1.42 4.102 1.32 8.797-.1 4.69-.69 10.262-1.76 16.709zm99.74-127.249c-2.64-2.931-5.88-4.59-9.71-4.985-3.82-.39-7.7 1.76-11.62 6.451-2.55 4.69-5.78 9.187-9.71 13.487-3.93 4.304-7.99 8.21-12.21 11.729-4.22 3.515-8.24 6.55-12.06 9.087-3.83 2.544-6.82 4.4-8.98 5.572-.78-6.253-1.22-12.997-1.32-20.232-.11-7.231.04-14.559.44-21.987.58-10.556 1.81-21.206 3.68-31.96 1.86-10.75 4.56-21.307 8.09-31.67 0-5.467-1.28-9.917-3.83-13.338-2.55-3.419-5.64-5.573-9.26-6.451-3.64-.878-7.36-.39-11.19 1.466-3.82 1.86-7.11 5.233-9.85 10.114-2.36 6.454-5.05 13.685-8.09 21.697-3.05 8.016-6.48 16.177-10.3 24.484-3.82 8.313-8.1 16.374-12.8 24.189-4.71 7.822-9.85 14.764-15.45 20.819-5.59 6.06-11.67 10.802-18.24 14.221-6.57 3.422-13.675 4.936-21.33 4.545-3.534-.978-6.082-3.615-7.655-7.919-1.566-4.296-2.501-9.675-2.79-16.125-.297-6.45 0-13.536.882-21.259.882-7.718 2.06-15.392 3.527-23.013 1.475-7.626 3.094-14.857 4.858-21.698 1.764-6.84 3.429-12.609 5.002-17.3 2.356-5.665 2.356-10.412 0-14.221-2.356-3.812-5.588-6.349-9.708-7.625-4.12-1.269-8.438-1.217-12.947.149-4.515 1.368-7.753 4.396-9.708 9.087-3.337 8.02-6.378 17.006-9.123 26.975-2.751 9.97-4.956 20.284-6.621 30.934-1.672 10.657-2.606 21.214-2.797 31.67-.013.68.019 1.327.019 2.005-4.278 11.363-8.359 19.953-12.229 25.699-5.002 7.433-10.643 10.658-16.915 9.675-2.752-1.171-4.562-3.905-5.444-8.209-.888-4.296-1.184-9.574-.888-15.835.303-6.249 1.033-13.335 2.205-21.254 1.185-7.916 2.652-16.126 4.416-24.629 1.771-8.507 3.633-17.051 5.588-25.655 1.962-8.6 3.726-16.713 5.305-24.338-.197-6.841-2.211-12.067-6.035-15.686-3.824-3.612-9.175-5.029-16.034-4.252-4.706 1.956-8.194 4.501-10.452 7.625-2.257 3.125-4.068 7.135-5.437 12.019-.789 2.544-1.968 7.625-3.534 15.251-1.573 7.618-3.581 16.37-6.029 26.239-2.455 9.875-5.345 20.183-8.682 30.933s-7.062 20.481-11.176 29.174c-4.127 8.697-8.635 15.686-13.539 20.965-4.903 5.274-10.202 7.428-15.888 6.45-3.14-.588-5.147-3.813-6.029-9.676-.882-5.865-1.034-13.093-.441-21.697.585-8.599 1.763-18.033 3.527-28.292 1.764-10.263 3.574-19.986 5.444-29.177 1.862-9.185 3.58-17.301 5.153-24.335 1.567-7.038 2.646-11.729 3.232-14.072 0-5.669-1.277-10.211-3.824-13.637-2.554-3.414-5.641-5.568-9.267-6.45-3.634-.878-7.359-.39-11.183 1.466-3.824 1.86-7.109 5.234-9.86 10.114-.98 5.278-2.257 11.39-3.824 18.327-1.573 6.937-3.087 14.072-4.555 21.404-1.474 7.331-2.849 14.514-4.12 21.552-1.277 7.037-2.211 13.194-2.797 18.472-.395 4.103-.836 9.139-1.323 15.098-.494 5.967-.737 12.268-.737 18.912 0 6.65.487 13.245 1.474 19.792.974 6.55 2.745 12.562 5.292 18.03 2.547 5.475 6.128 9.969 10.742 13.488 4.607 3.518 10.445 5.471 17.507 5.866 7.254.387 13.579-.146 18.976-1.615 5.397-1.465 10.294-3.764 14.711-6.892 4.416-3.122 8.431-6.838 12.064-11.141 3.627-4.296 7.208-8.987 10.742-14.072 3.331 7.432 7.648 13.194 12.947 17.301 5.292 4.103 10.886 6.55 16.77 7.327 5.878.778 11.868-.044 17.949-2.492 6.075-2.44 11.565-6.595 16.475-12.461 3.232-3.597 6.279-7.685 9.136-12.204 1.211 2.116 2.501 4.159 3.955 6.044 4.812 6.261 11.334 10.557 19.575 12.904 8.82 2.348 17.448 2.742 25.887 1.176 8.431-1.563 16.471-4.401 24.121-8.504 7.66-4.106 14.76-9.038 21.34-14.808 6.57-5.766 12.3-11.773 17.21-18.033-.2 4.497-.29 8.752-.29 12.755 0 4.009-.1 8.354-.3 13.049-9.81 6.844-19.08 15.053-27.8 24.628-8.74 9.575-16.39 19.789-22.95 30.639-6.57 10.847-11.726 21.843-15.445 32.984-3.732 11.147-5.549 21.551-5.45 31.231.099 9.674 2.402 18.126 6.911 25.357 4.514 7.235 11.864 12.413 22.074 15.541 10.59 3.325 19.91 3.418 27.95.294 8.04-3.129 15.05-8.31 21.03-15.541 5.99-7.232 10.89-15.977 14.72-26.239 3.83-10.263 6.87-20.965 9.12-32.105 2.26-11.141 3.68-22.096 4.26-32.838.59-10.754.59-20.336 0-28.739 16.87-7.034 30.7-15.928 41.49-26.682 10.79-10.742 19.71-22.084 26.77-34.01 2.16-2.93 2.9-6.449 2.22-10.552-.7-4.107-2.36-7.626-5.01-10.557z" fill="#0d0c23" fill-rule="evenodd"/><path clip-rule="evenodd" d="m1532.74 315.306c.59-4.493 1.47-9.236 2.65-14.221 1.17-4.984 2.65-9.823 4.42-14.514 1.75-4.691 3.81-8.745 6.17-12.167 2.36-3.419 4.86-5.862 7.5-7.331 2.66-1.462 5.35-1.318 8.1.438 2.94 1.763 4.75 5.475 5.44 11.141.68 5.676 0 11.732-2.06 18.182-2.06 6.454-5.74 12.509-11.04 18.178-5.29 5.673-12.45 9.381-21.47 11.141-.4-2.731-.3-6.35.29-10.847zm101.95 12.019c-3.24-.971-6.32-1.071-9.27-.291-2.94.782-4.81 2.835-5.58 6.16-1.58 6.253-4.08 12.655-7.51 19.201-3.43 6.551-7.65 12.756-12.65 18.622-5 5.862-10.65 11.043-16.92 15.537-6.28 4.497-12.85 7.723-19.71 9.675-6.87 2.154-12.56 2.395-17.07.733-4.51-1.655-8.09-4.494-10.74-8.5-2.64-4.006-4.56-8.845-5.73-14.514-1.18-5.669-1.87-11.531-2.06-17.594 11.17.784 21.13-1.217 29.86-6.012 8.72-4.783 16.13-11.14 22.21-19.056s10.69-16.81 13.83-26.682c3.13-9.868 4.9-19.692 5.3-29.468.19-9.187-1.18-16.954-4.12-23.307-2.94-6.35-6.92-11.293-11.92-14.808-5-3.52-10.74-5.573-17.21-6.157-6.47-.587-13.05.294-19.72 2.637-8.04 2.738-14.85 7.183-20.44 13.344-5.59 6.156-10.25 13.293-13.98 21.403-3.73 8.113-6.67 16.858-8.83 26.239-2.16 9.385-3.72 18.621-4.7 27.712-.88 8.157-1.36 15.957-1.52 23.486-.42.957-.83 1.875-1.28 2.898-3.04 6.945-6.57 13.737-10.59 20.38-4.02 6.648-8.48 12.22-13.39 16.713-4.9 4.498-10 6.06-15.3 4.691-3.13-.777-4.85-4.4-5.15-10.847-.29-6.454.05-14.466 1.03-24.044.99-9.575 2.11-19.942 3.39-31.083 1.27-11.14 1.91-21.79 1.91-31.956 0-8.797-1.67-17.248-5-25.364-3.34-8.106-7.9-14.854-13.68-20.228-5.79-5.38-12.51-8.947-20.16-10.703-7.65-1.762-15.88-.587-24.71 3.516-8.83 4.107-15.84 9.872-21.04 17.3-5.2 7.432-9.96 15.248-14.27 23.457-1.58-6.257-3.87-12.067-6.91-17.445-3.05-5.376-6.77-10.066-11.19-14.076-4.41-4.002-9.37-7.131-14.85-9.381-5.5-2.244-11.29-3.371-17.36-3.371-5.89 0-11.33 1.127-16.33 3.371-5.01 2.25-9.57 5.129-13.69 8.648-4.12 3.523-7.84 7.477-11.18 11.877-3.33 4.397-6.28 8.749-8.82 13.045-.4-5.081-.84-9.526-1.33-13.342-.49-3.81-1.38-7.035-2.65-9.672-1.27-2.641-3.08-4.642-5.44-6.011-2.36-1.365-5.69-2.053-10-2.053-2.16 0-4.32.439-6.47 1.317-2.17.881-4.08 2.105-5.74 3.667-1.68 1.57-2.95 3.471-3.83 5.717-.89 2.247-1.12 4.84-.73 7.771.19 2.154.73 4.739 1.61 7.771.89 3.032 1.72 6.993 2.51 11.873.78 4.888 1.42 10.802 1.9 17.739.5 6.941.64 15.445.45 25.51-.2 10.07-.93 21.843-2.21 35.33-1.28 13.488-3.29 29.126-6.03 46.911-.39 4.106 1.17 7.431 4.71 9.972 3.53 2.537 7.55 4.002 12.06 4.396 4.51.391 8.78-.394 12.8-2.343 4.02-1.96 6.33-5.379 6.91-10.263.59-9.187 1.72-18.959 3.39-29.322 1.66-10.356 3.72-20.619 6.18-30.785 2.45-10.162 5.24-19.837 8.38-29.029 3.14-9.187 6.63-17.296 10.45-24.334s7.8-12.655 11.91-16.858c4.12-4.203 8.43-6.305 12.95-6.305 5.5 0 9.75 2.489 12.8 7.473 3.04 4.988 5.19 11.393 6.47 19.205 1.28 7.822 1.86 16.378 1.77 25.659-.1 9.284-.49 18.227-1.18 26.826-.69 8.604-1.47 16.274-2.35 23.018s-1.52 11.39-1.91 13.927c0 4.497 1.71 8.06 5.14 10.701 3.43 2.638 7.26 4.204 11.48 4.691 4.22.491 8.19-.294 11.92-2.347 3.72-2.053 5.88-5.516 6.47-10.408 1.96-14.072 4.66-28.192 8.09-42.364s7.36-26.875 11.77-38.116 9.32-20.429 14.71-27.563c5.39-7.131 11.13-10.702 17.21-10.702 3.14 0 5.55 2.154 7.21 6.45 1.67 4.3 2.5 10.163 2.5 17.59 0 5.476-.44 11.097-1.32 16.862-.88 5.766-1.91 11.728-3.09 17.885-1.18 6.16-2.21 12.461-3.09 18.911-.88 6.454-1.32 13.194-1.32 20.231 0 4.888.48 10.557 1.46 17.007.98 6.447 2.85 12.562 5.59 18.324 2.75 5.769 6.52 10.653 11.34 14.659 4.8 4.006 10.93 6.011 18.38 6.011 11.18 0 21.09-2.395 29.72-7.183 8.63-4.787 16.04-11.04 22.22-18.762.31-.405.61-.837.92-1.239.47 1.142.89 2.351 1.43 3.438 4.22 8.599 9.96 15.243 17.22 19.937 7.24 4.691 15.78 7.28 25.59 7.771 9.81.483 20.49-1.324 32.08-5.427 8.62-3.129 16.12-7.038 22.5-11.729 6.37-4.69 12.11-10.407 17.21-17.151s9.76-14.515 13.98-23.308c4.22-8.801 8.48-18.863 12.8-30.204.78-3.121.04-5.908-2.21-8.355-2.26-2.44-5-4.151-8.24-5.133z" fill="#0d0c23" fill-rule="evenodd"/><path clip-rule="evenodd" d="m1794.61 294.624c-.99 5.769-2.32 12.126-3.98 19.06-1.67 6.941-3.78 14.124-6.33 21.552-2.55 7.429-5.68 14.124-9.41 20.083-3.73 5.966-7.99 10.702-12.8 14.221-4.81 3.518-10.35 4.984-16.63 4.397-3.14-.388-5.54-2.537-7.2-6.451-1.67-3.905-2.56-8.894-2.66-14.953-.09-6.056.45-12.703 1.62-19.938 1.18-7.228 3-14.317 5.45-21.258 2.45-6.933 5.45-13.339 8.97-19.205 3.53-5.862 7.6-10.408 12.21-13.633s9.67-4.735 15.16-4.546c5.49.198 11.37 2.932 17.66 8.21-.41 2.544-1.08 6.699-2.06 12.461zm104.59 22.43c-3.04-1.562-6.18-1.901-9.41-1.023-3.24.878-5.55 3.862-6.92 8.942-.78 5.476-2.55 11.922-5.29 19.351-2.75 7.428-6.14 14.469-10.15 21.109-4.03 6.647-8.64 12.171-13.84 16.568-5.2 4.401-10.73 6.405-16.62 6.007-4.91-.387-8.34-2.879-10.3-7.473-1.97-4.593-2.99-10.355-3.08-17.301-.11-6.933.58-14.752 2.05-23.452 1.47-8.697 3.24-17.345 5.3-25.953 2.06-8.596 4.16-16.858 6.33-24.774 2.15-7.915 3.92-14.611 5.29-20.082 1.57-4.888 1.08-9.04-1.47-12.465-2.55-3.415-5.74-5.863-9.56-7.328-3.83-1.465-7.7-1.856-11.63-1.172-3.92.685-6.46 2.786-7.65 6.301-11.57-9.969-22.7-15.343-33.39-16.125-10.69-.78-20.55 1.566-29.57 7.038-9.03 5.472-17.02 13.388-23.98 23.751s-12.6 21.648-16.92 33.864c-4.31 12.216-7.01 24.681-8.09 37.384-1.08 12.706-.25 24.29 2.5 34.746s7.6 19.011 14.57 25.651c6.95 6.647 16.42 9.973 28.39 9.973 5.29 0 10.39-1.075 15.3-3.226 4.9-2.153 9.42-4.694 13.54-7.625 4.11-2.931 7.74-6.011 10.88-9.236s5.59-5.911 7.35-8.064c1.37 7.038 3.64 13.004 6.77 17.888 3.14 4.884 6.72 8.898 10.74 12.019 4.02 3.124 8.24 5.423 12.65 6.892 4.42 1.466 8.68 2.198 12.8 2.198 9.23 0 17.85-3.128 25.9-9.385 8.03-6.249 15.25-13.926 21.63-23.013 6.37-9.092 11.61-18.666 15.73-28.735 4.12-10.066 6.87-19.008 8.24-26.831 1.37-2.931 1.13-6.007-.73-9.233-1.87-3.224-4.32-5.616-7.36-7.186z" fill="#0d0c23" fill-rule="evenodd"/><path clip-rule="evenodd" d="m2428.82 478.921c-1.67 6.644-4.27 12.269-7.79 16.859-3.53 4.594-7.95 6.989-13.25 7.186-3.33.194-5.88-1.566-7.65-5.278-1.76-3.716-2.98-8.504-3.67-14.366-.7-5.866-.99-12.416-.89-19.647.1-7.232.4-14.366.89-21.404.48-7.034 1.07-13.588 1.77-19.644.67-6.063 1.21-10.746 1.61-14.071 6.67.78 12.21 3.66 16.62 8.648 4.42 4.984 7.8 10.895 10.15 17.739 2.36 6.841 3.73 14.221 4.12 22.136.39 7.916-.25 15.196-1.91 21.842zm-106.51 0c-1.67 6.644-4.27 12.269-7.8 16.859-3.53 4.594-7.94 6.989-13.24 7.186-3.33.194-5.88-1.566-7.64-5.278-1.77-3.716-3-8.504-3.68-14.366-.69-5.866-.99-12.416-.89-19.647.1-7.232.39-14.366.89-21.404.48-7.034 1.07-13.588 1.76-19.644.69-6.063 1.22-10.746 1.62-14.071 6.67.78 12.22 3.66 16.62 8.648 4.42 4.984 7.8 10.895 10.15 17.739 2.36 6.841 3.73 14.221 4.13 22.136.38 7.916-.25 15.196-1.92 21.842zm-109.3-166.536c-.2 4.687-.64 8.842-1.33 12.458-.69 3.622-1.62 5.914-2.8 6.892-2.16-1.175-4.81-4.199-7.94-9.091-3.14-4.884-5.59-10.412-7.36-16.568-1.76-6.156-2.3-12.211-1.61-18.178.68-5.959 3.78-10.597 9.27-13.927 2.15-1.172 4.01-.732 5.58 1.321 1.58 2.053 2.85 5.033 3.83 8.942.98 3.913 1.66 8.407 2.06 13.488.39 5.085.48 9.969.3 14.663zm-26.04 58.493c-3.04 3.221-6.43 6.008-10.15 8.354-3.74 2.348-7.56 4.107-11.48 5.279-3.92 1.175-7.46 1.465-10.59.878-8.83-1.756-15.6-5.572-20.3-11.435-4.71-5.862-7.71-12.751-8.98-20.667-1.28-7.919-1.13-16.374.44-25.365 1.57-8.99 4.21-17.344 7.95-25.067 3.72-7.722 8.24-14.369 13.53-19.938 5.3-5.572 11.08-9.039 17.36-10.411-2.35 9.969-3.14 20.284-2.35 30.933.78 10.654 3.33 20.671 7.65 30.052 2.74 5.677 6.03 10.851 9.85 15.541 3.83 4.694 8.49 8.701 13.98 12.022-1.57 3.326-3.88 6.599-6.91 9.824zm325.56-55.562c.59-4.493 1.47-9.24 2.65-14.224 1.17-4.981 2.65-9.82 4.41-14.511 1.76-4.694 3.82-8.748 6.18-12.167 2.36-3.418 4.86-5.866 7.5-7.332 2.65-1.465 5.35-1.32 8.09.439 2.94 1.763 4.76 5.476 5.45 11.141.68 5.672 0 11.728-2.06 18.182-2.06 6.45-5.74 12.51-11.04 18.175-5.29 5.676-12.45 9.385-21.47 11.144-.4-2.734-.3-6.349.29-10.847zm118.58 0c.58-4.493 1.46-9.24 2.64-14.224 1.18-4.981 2.66-9.82 4.42-14.511 1.76-4.694 3.82-8.748 6.17-12.167 2.36-3.418 4.86-5.866 7.51-7.332 2.65-1.465 5.35-1.32 8.09.439 2.94 1.763 4.75 5.476 5.45 11.141.68 5.672 0 11.728-2.06 18.182-2.06 6.45-5.74 12.51-11.04 18.175-5.29 5.676-12.46 9.385-21.48 11.144-.39-2.734-.3-6.349.3-10.847zm110.18 17.152c-2.25-2.44-5-4.151-8.23-5.133-3.24-.975-6.32-1.072-9.27-.29-2.95.781-4.81 2.834-5.59 6.156-1.57 6.256-4.08 12.658-7.5 19.201-3.44 6.554-7.65 12.759-12.65 18.621-5.01 5.863-10.65 11.048-16.92 15.541-6.29 4.498-12.85 7.722-19.71 9.672-6.87 2.157-12.56 2.399-17.08.736-4.51-1.659-8.09-4.493-10.73-8.499-2.65-4.011-4.56-8.846-5.74-14.519-1.17-5.665-1.86-11.527-2.06-17.591 11.18.786 21.14-1.216 29.87-6.01 8.72-4.788 16.13-11.145 22.21-19.06 6.08-7.912 10.69-16.806 13.83-26.678 3.13-9.873 4.9-19.693 5.3-29.468.18-9.188-1.19-16.958-4.13-23.312-2.93-6.349-6.91-11.289-11.91-14.805-5-3.522-10.74-5.572-17.21-6.159-6.47-.588-13.05.298-19.72 2.637-8.04 2.742-14.85 7.186-20.44 13.342-5.59 6.161-10.25 13.299-13.98 21.404-3.73 8.117-6.67 16.858-8.83 26.243-2.16 9.381-3.73 18.621-4.7 27.708-.96 8.82-1.48 17.26-1.59 25.339-.75 1.611-1.54 3.229-2.39 4.858-3.43 6.554-7.65 12.759-12.65 18.621-5 5.863-10.65 11.048-16.92 15.541-6.28 4.498-12.85 7.722-19.71 9.672-6.87 2.157-12.56 2.399-17.07.736-4.51-1.659-8.09-4.493-10.74-8.499-2.64-4.011-4.56-8.846-5.73-14.519-1.18-5.665-1.87-11.527-2.06-17.591 11.17.786 21.13-1.216 29.86-6.01 8.73-4.788 16.13-11.145 22.21-19.06 6.08-7.912 10.69-16.806 13.83-26.678 3.13-9.873 4.9-19.693 5.3-29.468.19-9.188-1.18-16.958-4.12-23.312-2.94-6.349-6.92-11.289-11.92-14.805-5-3.522-10.74-5.572-17.21-6.159-6.47-.588-13.05.298-19.72 2.637-8.04 2.742-14.85 7.186-20.44 13.342-5.59 6.161-10.25 13.299-13.98 21.404-3.72 8.117-6.67 16.858-8.83 26.243-2.15 9.381-3.72 18.621-4.7 27.708-.55 5.126-.93 10.095-1.21 14.976-1.89 1.607-3.73 3.225-5.71 4.813-6.76 5.476-13.87 10.408-21.32 14.809-7.47 4.4-15.22 8.016-23.25 10.85-8.05 2.834-16.29 4.546-24.72 5.13l18.25-194.688c1.17-4.106.58-7.718-1.77-10.846-2.35-3.129-5.4-5.279-9.13-6.451-3.72-1.175-7.7-1.075-11.91.29-4.22 1.373-7.7 4.501-10.44 9.381-1.38 7.432-2.8 17.595-4.27 30.495s-2.94 26.976-4.42 42.223c-1.46 15.247-2.94 30.982-4.41 47.203-1.47 16.229-2.75 31.376-3.82 45.448-.05.625-.09 1.19-.14 1.808-1.72 1.45-3.38 2.912-5.16 4.348-6.76 5.476-13.88 10.408-21.33 14.809-7.46 4.4-15.2 8.016-23.24 10.85-8.05 2.834-16.29 4.546-24.72 5.13l18.24-194.688c1.18-4.106.6-7.718-1.76-10.846-2.36-3.129-5.4-5.279-9.12-6.451-3.73-1.175-7.7-1.075-11.92.29-4.22 1.373-7.7 4.501-10.44 9.381-1.38 7.432-2.8 17.595-4.27 30.495s-2.95 26.976-4.41 42.223c-1.48 15.247-2.95 30.982-4.42 47.203-1.47 16.229-2.75 31.376-3.82 45.448-.02.283-.04.54-.06.822-3.09 1.425-6.45 2.675-10.09 3.724-3.74 1.078-7.95 1.715-12.65 1.908.78-3.523 1.41-7.432 1.9-11.732.49-4.297.89-8.794 1.18-13.488.3-4.687.39-9.381.3-14.072-.11-4.694-.35-8.99-.74-12.904-.98-8.399-2.79-16.366-5.44-23.895-2.65-7.521-6.23-13.823-10.74-18.911-4.51-5.082-10.15-8.503-16.92-10.26-6.77-1.758-14.66-1.175-23.68 1.757-13.35-1.757-25.36-.533-36.05 3.667-10.69 4.207-19.96 10.311-27.8 18.323-7.85 8.02-14.27 17.446-19.27 28.297-5.01 10.846-8.34 21.991-10.01 33.422-.71 4.846-1.05 9.671-1.16 14.484-3.03 6.197-6.35 11.613-10.02 16.159-5.19 6.45-10.59 11.728-16.18 15.831-5.59 4.106-11.14 7.235-16.63 9.385-5.49 2.154-10.39 3.619-14.71 4.397-5.1.978-10 1.078-14.71.293-4.7-.777-9.03-3.027-12.94-6.743-3.14-2.735-5.54-7.135-7.21-13.195-1.67-6.059-2.65-12.944-2.94-20.67-.3-7.722 0-15.786.88-24.189s2.4-16.371 4.56-23.896c2.15-7.525 4.9-14.269 8.23-20.235 3.34-5.956 7.26-10.211 11.77-12.752 2.55.395 4.13 1.905 4.72 4.542.58 2.641.73 5.769.44 9.385-.3 3.619-.74 7.331-1.33 11.14-.59 3.814-.88 6.994-.88 9.531.98 5.278 2.89 9.385 5.74 12.316 2.84 2.93 6.03 4.645 9.56 5.129 3.53.491 7.01-.338 10.44-2.492 3.43-2.147 6.23-5.568 8.39-10.263.2.197.49.294.88.294l4.12-37.235c1.18-5.084.39-9.578-2.35-13.487-2.75-3.91-6.38-6.16-10.89-6.744-5.69-8.209-13.39-12.558-23.1-13.049-9.71-.487-19.66 2.689-29.86 9.53-6.28 4.501-11.82 10.701-16.63 18.617-4.81 7.92-8.72 16.713-11.76 26.388-3.05 9.675-5.2 19.893-6.47 30.643-1.28 10.75-1.53 21.21-.75 31.369.79 10.17 2.61 19.748 5.45 28.735 2.84 8.994 6.81 16.519 11.92 22.575 4.31 5.278 9.21 9.143 14.71 11.587 5.49 2.444 11.22 3.954 17.21 4.542 5.98.583 11.92.338 17.8-.733 5.89-1.071 11.48-2.585 16.77-4.545 6.87-2.537 13.93-5.766 21.19-9.676 7.25-3.905 14.22-8.6 20.89-14.075 3.5-2.879 6.89-6.019 10.15-9.385 1.49 3.675 3.15 7.231 5.15 10.56 5.3 8.794 12.45 15.932 21.47 21.404 9.02 5.471 20.11 8.105 33.26 7.916 14.12-.198 27.16-3.761 39.13-10.703 11.96-6.933 21.77-17.155 29.42-30.639 11.46 0 22.73-1.882 33.81-5.621-.09 1.183-.18 2.429-.27 3.571-.78 10.36-1.18 17.394-1.18 21.11-.19 6.45-.63 14.414-1.32 23.892-.69 9.481-1.13 19.45-1.32 29.907-.2 10.456.19 21.012 1.17 31.67.99 10.649 3.04 20.328 6.18 29.028 3.14 8.693 7.6 16.073 13.39 22.136 5.79 6.057 13.39 9.676 22.81 10.847 9.99 1.366 18.62-.394 25.88-5.278 7.26-4.888 13.15-11.58 17.66-20.083 4.51-8.507 7.7-18.327 9.56-29.468 1.86-11.14 2.4-22.333 1.62-33.574s-2.85-21.842-6.18-31.808c-3.34-9.972-7.95-18.182-13.83-24.635 3.53-.971 7.75-2.827 12.66-5.569 4.89-2.734 9.95-5.814 15.15-9.236 1.27-.841 2.53-1.726 3.81-2.589-.48 6.926-.73 11.866-.73 14.76-.19 6.45-.63 14.414-1.32 23.892-.68 9.481-1.12 19.45-1.32 29.907-.19 10.456.2 21.012 1.18 31.67.98 10.649 3.04 20.328 6.17 29.028 3.14 8.693 7.6 16.073 13.39 22.136 5.78 6.057 13.39 9.676 22.8 10.847 10 1.366 18.64-.394 25.9-5.278 7.25-4.888 13.14-11.58 17.65-20.083 4.51-8.507 7.7-18.327 9.56-29.468 1.87-11.14 2.4-22.333 1.62-33.574-.79-11.241-2.85-21.842-6.18-31.808-3.33-9.972-7.94-18.182-13.83-24.635 3.53-.971 7.75-2.827 12.65-5.569 4.91-2.734 9.96-5.814 15.16-9.236 2.7-1.778 5.39-3.612 8.06-5.498 1.01 9.56 3.19 17.945 6.65 24.997 4.22 8.604 9.95 15.247 17.21 19.941 7.25 4.687 15.79 7.28 25.6 7.767 9.81.484 20.49-1.32 32.08-5.427 8.62-3.124 16.12-7.034 22.5-11.725 6.37-4.694 12.11-10.411 17.21-17.151.3-.391.57-.815.86-1.209.91 2.738 1.92 5.367 3.12 7.804 4.22 8.604 9.95 15.247 17.21 19.941 7.25 4.687 15.79 7.28 25.6 7.767 9.8.484 20.49-1.32 32.07-5.427 8.63-3.124 16.13-7.034 22.51-11.725 6.37-4.694 12.1-10.411 17.21-17.151 5.1-6.748 9.75-14.518 13.97-23.312 4.22-8.797 8.48-18.859 12.81-30.201.78-3.124.04-5.91-2.22-8.354z" fill="#0d0c23" fill-rule="evenodd"/></g></svg>