<svg width="2744" height="601" viewBox="0 0 2744 601" fill="none" xmlns="http://www.w3.org/2000/svg">
<g clip-path="url(#clip0_864_110)">
<path d="M371.696 139.803L371.284 139.561L370.33 139.27C370.714 139.594 371.195 139.782 371.696 139.803Z" fill="#0D0C22"/>
<path d="M371.873 139.737C371.814 139.73 371.756 139.716 371.701 139.696C371.698 139.734 371.698 139.772 371.701 139.811C371.764 139.803 371.824 139.777 371.873 139.737Z" fill="#0D0C22"/>
<path d="M371.698 139.808H371.76V139.77L371.698 139.808Z" fill="#0D0C22"/>
<path d="M377.336 182.662L378.031 182.266L378.29 182.12L378.525 181.869C378.084 182.06 377.681 182.328 377.336 182.662Z" fill="#0D0C22"/>
<path d="M372.9 140.741L372.221 140.095L371.76 139.844C372.007 140.281 372.417 140.603 372.9 140.741Z" fill="#0D0C22"/>
<path d="M202.041 557.385C201.499 557.619 201.024 557.987 200.659 558.452L201.087 558.177C201.378 557.91 201.79 557.595 202.041 557.385Z" fill="#0D0C22"/>
<path d="M301.257 537.862C301.257 537.247 300.958 537.361 301.031 539.544C301.031 539.366 301.103 539.188 301.136 539.018C301.176 538.63 301.209 538.25 301.257 537.862Z" fill="#0D0C22"/>
<path d="M290.966 557.385C290.424 557.619 289.948 557.987 289.584 558.452L290.012 558.177C290.303 557.91 290.715 557.595 290.966 557.385Z" fill="#0D0C22"/>
<path d="M132.169 562.026C131.757 561.668 131.253 561.433 130.714 561.347C131.15 561.558 131.586 561.768 131.877 561.93L132.169 562.026Z" fill="#0D0C22"/>
<path d="M116.446 546.968C116.382 546.331 116.187 545.715 115.872 545.157C116.095 545.738 116.281 546.331 116.43 546.936L116.446 546.968Z" fill="#0D0C22"/>
<path d="M222.058 277.633C200.473 286.874 175.977 297.353 144.231 297.353C130.95 297.326 117.733 295.504 104.941 291.936L126.898 517.394C127.675 526.817 131.967 535.603 138.922 542.008C145.878 548.413 154.987 551.967 164.441 551.966C164.441 551.966 195.574 553.583 205.963 553.583C217.143 553.583 250.669 551.966 250.669 551.966C260.122 551.965 269.229 548.41 276.182 542.006C283.136 535.601 287.427 526.816 288.204 517.394L311.721 268.254C301.212 264.664 290.605 262.279 278.649 262.279C257.969 262.27 241.307 269.394 222.058 277.633Z" fill="#FFDD00"/>
<path d="M36.9712 181.443L37.3431 181.791L37.5856 181.937C37.3988 181.751 37.1929 181.585 36.9712 181.443Z" fill="#0D0C22"/>
<path d="M413.258 160.634L409.952 143.954C406.985 128.989 400.251 114.848 384.891 109.438C379.967 107.708 374.381 106.964 370.605 103.383C366.83 99.8009 365.714 94.2379 364.841 89.0797C363.224 79.6118 361.705 70.136 360.047 60.684C358.616 52.5583 357.484 43.4301 353.757 35.9754C348.907 25.9658 338.842 20.1121 328.834 16.2392C323.705 14.3245 318.471 12.7049 313.158 11.3881C288.154 4.79047 261.863 2.36489 236.139 0.982309C205.262 -0.721655 174.304 -0.208276 143.5 2.51851C120.573 4.60451 96.4257 7.12715 74.6383 15.0588C66.6755 17.9614 58.4696 21.4462 52.4145 27.5991C44.985 35.1588 42.5597 46.8501 47.9843 56.2775C51.8405 62.9722 58.3726 67.7017 65.3009 70.8311C74.325 74.863 83.7496 77.9305 93.4184 79.9837C120.339 85.9344 148.222 88.2713 175.725 89.2653C206.207 90.4956 236.74 89.499 267.078 86.282C274.58 85.4572 282.069 84.4685 289.544 83.3145C298.348 81.9644 303.999 70.4513 301.404 62.4304C298.299 52.8413 289.956 49.122 280.522 50.5693C279.131 50.7876 277.749 50.9898 276.358 51.1919L275.356 51.3374C272.16 51.7417 268.964 52.119 265.768 52.4693C259.166 53.1809 252.547 53.763 245.913 54.2158C231.053 55.2507 216.154 55.7277 201.263 55.752C186.63 55.752 171.99 55.3396 157.389 54.3775C150.728 53.9409 144.083 53.3857 137.453 52.7119C134.438 52.3966 131.431 52.0651 128.423 51.6932L125.561 51.3293L124.939 51.2404L121.972 50.8119C115.909 49.8983 109.846 48.8471 103.847 47.5778C103.242 47.4435 102.7 47.1066 102.312 46.623C101.924 46.1394 101.712 45.5378 101.712 44.9177C101.712 44.2976 101.924 43.6961 102.312 43.2124C102.7 42.7287 103.242 42.392 103.847 42.2577H103.96C109.158 41.1499 114.397 40.204 119.652 39.3793C121.403 39.1044 123.16 38.8349 124.923 38.5708H124.971C128.262 38.3525 131.568 37.7622 134.842 37.3741C163.329 34.4107 191.985 33.4004 220.609 34.3503C234.506 34.7545 248.395 35.5711 262.227 36.978C265.202 37.2852 268.161 37.6086 271.12 37.9725C272.252 38.1099 273.391 38.2716 274.531 38.409L276.827 38.7405C283.521 39.7378 290.179 40.9478 296.804 42.3708C306.618 44.5054 319.222 45.2007 323.587 55.9541C324.977 59.3661 325.608 63.1581 326.376 66.74L327.354 71.3084C327.38 71.39 327.399 71.4736 327.411 71.5585C329.723 82.339 332.038 93.1195 334.355 103.9C334.525 104.696 334.529 105.519 334.367 106.317C334.205 107.115 333.88 107.871 333.413 108.538C332.945 109.205 332.346 109.768 331.651 110.193C330.956 110.618 330.182 110.895 329.375 111.007H329.31L327.896 111.201L326.497 111.387C322.067 111.964 317.631 112.503 313.191 113.004C304.443 114.001 295.683 114.863 286.908 115.591C269.473 117.041 252.003 117.992 234.498 118.445C225.578 118.683 216.661 118.793 207.747 118.777C172.264 118.749 136.813 116.686 101.567 112.6C97.7513 112.147 93.9358 111.662 90.1196 111.169C93.0788 111.548 87.9693 110.878 86.9346 110.732C84.5091 110.392 82.0837 110.039 79.6589 109.673C71.5178 108.452 63.4254 106.948 55.3006 105.63C45.4781 104.013 36.0842 104.822 27.1995 109.673C19.9065 113.664 14.0039 119.785 10.279 127.218C6.44705 135.141 5.30717 143.768 3.59329 152.282C1.87941 160.796 -0.788421 169.957 0.222119 178.696C2.3968 197.56 15.5824 212.89 34.5481 216.318C52.3903 219.552 70.3291 222.171 88.3168 224.403C158.976 233.058 230.361 234.093 301.242 227.491C307.014 226.952 312.778 226.365 318.534 225.729C320.332 225.531 322.151 225.738 323.858 226.335C325.566 226.932 327.119 227.903 328.402 229.177C329.685 230.452 330.668 231.997 331.277 233.7C331.886 235.404 332.106 237.222 331.922 239.021L330.127 256.469C326.511 291.727 322.894 326.981 319.278 362.233C315.505 399.252 311.708 436.269 307.887 473.284C306.809 483.708 305.731 494.131 304.653 504.55C303.618 514.81 303.473 525.394 301.525 535.533C298.453 551.476 287.66 561.268 271.912 564.85C257.484 568.133 242.746 569.857 227.949 569.992C211.546 570.081 195.151 569.353 178.748 569.442C161.238 569.539 139.79 567.922 126.273 554.889C114.397 543.44 112.756 525.515 111.139 510.015C108.983 489.495 106.846 468.977 104.728 448.462L92.8445 334.387L85.1561 260.577C85.0265 259.356 84.8975 258.151 84.7764 256.922C83.8542 248.117 77.6212 239.498 67.799 239.943C59.3913 240.314 49.8356 247.462 50.8219 256.922L56.5213 311.643L68.3084 424.837C71.6659 456.989 75.0154 489.148 78.357 521.311C79.004 527.471 79.6102 533.649 80.2895 539.809C83.9839 573.476 109.692 591.62 141.528 596.73C160.122 599.722 179.168 600.336 198.037 600.643C222.226 601.032 246.657 601.961 270.449 597.579C305.704 591.111 332.156 567.567 335.932 531.045C337.01 520.502 338.087 509.956 339.165 499.407C342.749 464.522 346.328 429.634 349.901 394.744L361.591 280.741L366.951 228.494C367.218 225.904 368.312 223.467 370.071 221.547C371.83 219.626 374.16 218.323 376.717 217.829C386.798 215.865 396.435 212.509 403.606 204.836C415.021 192.62 417.292 176.691 413.258 160.634ZM34.0307 171.905C34.1844 171.832 33.9014 173.151 33.7802 173.765C33.7559 172.835 33.8044 172.01 34.0307 171.905ZM35.009 179.473C35.0898 179.417 35.3323 179.74 35.5829 180.128C35.203 179.772 34.9605 179.505 35.0009 179.473H35.009ZM35.971 180.742C36.5045 181.705 36.3186 181.333 35.971 180.742ZM37.9031 182.311H37.9516C37.9516 182.368 38.0406 182.424 38.0729 182.481C38.0193 182.418 37.9597 182.362 37.8951 182.311H37.9031ZM376.248 179.966C372.627 183.41 367.169 185.011 361.777 185.812C301.306 194.787 239.955 199.331 178.821 197.325C135.069 195.829 91.7769 190.97 48.4613 184.85C44.217 184.252 39.617 183.475 36.6986 180.346C31.2012 174.444 33.9014 162.558 35.3323 155.427C36.642 148.895 39.1481 140.186 46.9171 139.257C59.0437 137.834 73.1264 142.952 85.1239 144.771C99.5679 146.976 114.065 148.741 128.617 150.067C190.721 155.726 253.868 154.845 315.696 146.566C326.966 145.051 338.195 143.291 349.384 141.286C359.352 139.499 370.403 136.144 376.426 146.469C380.557 153.503 381.107 162.914 380.468 170.862C380.271 174.325 378.759 177.582 376.24 179.966H376.248Z" fill="#0D0C22"/>
<path fill-rule="evenodd" clip-rule="evenodd" d="M743.026 347.999C739.498 354.74 734.64 360.609 728.467 365.59C722.286 370.575 715.079 374.633 706.838 377.758C698.604 380.89 690.311 382.991 681.978 384.063C673.639 385.138 665.543 385.045 657.702 383.768C649.855 382.5 643.181 379.911 637.694 375.998L643.875 311.788C649.561 309.835 656.716 307.83 665.353 305.777C673.981 303.727 682.854 302.258 691.976 301.38C701.099 300.499 709.728 300.603 717.876 301.674C726.005 302.749 732.435 305.338 737.141 309.444C739.689 311.788 741.854 314.328 743.618 317.066C745.382 319.804 746.461 322.638 746.856 325.569C747.83 333.779 746.56 341.255 743.026 347.999ZM653.285 211.221C657.407 208.681 662.358 206.43 668.143 204.474C673.929 202.524 679.866 201.151 685.947 200.371C692.022 199.593 697.959 199.489 703.751 200.076C709.53 200.664 714.638 202.275 719.048 204.912C723.464 207.553 726.749 211.366 728.901 216.347C731.06 221.335 731.652 227.64 730.671 235.261C729.888 241.321 727.479 246.454 723.464 250.654C719.443 254.861 714.533 258.376 708.754 261.21C702.962 264.049 696.834 266.296 690.364 267.95C683.887 269.617 677.654 270.841 671.678 271.618C665.695 272.403 660.495 272.894 656.085 273.084C651.669 273.281 648.773 273.378 647.403 273.378L653.285 211.221ZM774.803 306.509C771.664 299.672 767.451 293.662 762.153 288.476C756.861 283.299 750.575 279.538 743.322 277.191C746.461 274.65 749.548 270.644 752.589 265.169C755.63 259.7 758.23 253.734 760.389 247.284C762.541 240.83 764.015 234.335 764.799 227.785C765.582 221.238 765.286 215.617 763.923 210.923C760.58 199.199 755.334 190.011 748.173 183.363C741.012 176.72 732.679 172.126 723.168 169.582C713.651 167.049 703.159 166.506 691.687 167.971C680.208 169.437 668.486 172.32 656.526 176.62C656.526 175.645 656.623 174.618 656.82 173.543C657.011 172.472 657.111 171.345 657.111 170.17C657.111 167.239 655.641 164.702 652.699 162.548C649.758 160.398 646.372 159.13 642.55 158.736C638.724 158.349 634.995 159.174 631.367 161.228C627.735 163.281 625.234 167.049 623.864 172.513C622.292 190.107 620.725 208.386 619.157 227.342C617.586 246.305 615.92 265.462 614.155 284.816C612.389 304.166 610.624 323.371 608.858 342.427C607.093 361.487 605.327 379.811 603.562 397.401C604.151 402.68 605.622 406.786 607.977 409.717C610.329 412.653 613.076 414.412 616.215 414.996C619.351 415.584 622.64 415.04 626.07 413.381C629.5 411.726 632.494 408.836 635.047 404.733C642.89 409.033 651.718 411.819 661.528 413.091C671.336 414.359 681.287 414.359 691.391 413.091C701.487 411.819 711.446 409.427 721.253 405.905C731.06 402.389 739.985 397.989 748.028 392.714C756.071 387.436 762.837 381.422 768.333 374.681C773.822 367.934 777.449 360.654 779.22 352.839C780.984 344.823 781.471 336.811 780.687 328.794C779.904 320.783 777.943 313.358 774.803 306.509Z" fill="#0D0C23"/>
<path fill-rule="evenodd" clip-rule="evenodd" d="M1061.84 461.317C1060.76 467.767 1059.23 474.559 1057.28 481.697C1055.31 488.828 1053.01 495.33 1050.36 501.196C1047.72 507.058 1044.77 511.793 1041.54 515.413C1038.3 519.028 1034.82 520.546 1031.09 519.962C1028.15 519.564 1026.29 517.708 1025.5 514.39C1024.72 511.061 1024.72 506.958 1025.5 502.074C1026.29 497.186 1027.81 491.662 1030.06 485.506C1032.31 479.35 1035.07 473.239 1038.3 467.182C1041.54 461.12 1045.21 455.309 1049.33 449.737C1053.46 444.169 1057.77 439.523 1062.28 435.811C1063.26 436.982 1063.7 439.913 1063.6 444.608C1063.5 449.298 1062.91 454.87 1061.84 461.317ZM1161.58 334.068C1158.94 331.137 1155.7 329.478 1151.87 329.083C1148.05 328.693 1144.17 330.843 1140.25 335.534C1137.7 340.224 1134.47 344.721 1130.54 349.021C1126.61 353.325 1122.55 357.231 1118.33 360.75C1114.11 364.265 1110.09 367.3 1106.27 369.837C1102.44 372.381 1099.45 374.237 1097.29 375.409C1096.51 369.156 1096.07 362.412 1095.97 355.177C1095.86 347.946 1096.01 340.618 1096.41 333.19C1096.99 322.634 1098.22 311.984 1100.09 301.23C1101.95 290.48 1104.65 279.923 1108.18 269.56C1108.18 264.093 1106.9 259.643 1104.35 256.222C1101.8 252.803 1098.71 250.649 1095.09 249.771C1091.45 248.893 1087.73 249.381 1083.9 251.237C1080.08 253.097 1076.79 256.47 1074.05 261.351C1071.69 267.805 1069 275.036 1065.96 283.048C1062.91 291.064 1059.48 299.225 1055.66 307.532C1051.84 315.845 1047.56 323.906 1042.86 331.721C1038.15 339.543 1033.01 346.485 1027.41 352.54C1021.82 358.6 1015.74 363.342 1009.17 366.761C1002.6 370.183 995.495 371.697 987.84 371.306C984.306 370.328 981.758 367.691 980.185 363.387C978.619 359.091 977.684 353.712 977.395 347.262C977.098 340.812 977.395 333.726 978.277 326.003C979.159 318.285 980.337 310.611 981.804 302.99C983.279 295.364 984.898 288.133 986.662 281.292C988.426 274.452 990.091 268.683 991.664 263.992C994.02 258.327 994.02 253.58 991.664 249.771C989.308 245.959 986.076 243.422 981.956 242.146C977.836 240.877 973.518 240.929 969.009 242.295C964.494 243.663 961.256 246.691 959.301 251.382C955.964 259.402 952.923 268.388 950.178 278.357C947.427 288.327 945.222 298.641 943.557 309.291C941.885 319.948 940.951 330.505 940.76 340.961C940.747 341.641 940.779 342.288 940.779 342.966C936.501 354.329 932.42 362.919 928.55 368.665C923.548 376.098 917.907 379.323 911.635 378.34C908.883 377.169 907.073 374.435 906.191 370.131C905.303 365.835 905.007 360.557 905.303 354.296C905.606 348.047 906.336 340.961 907.508 333.042C908.693 325.126 910.16 316.916 911.924 308.413C913.695 299.906 915.557 291.362 917.512 282.758C919.474 274.158 921.238 266.045 922.817 258.42C922.62 251.579 920.606 246.353 916.782 242.734C912.958 239.122 907.607 237.705 900.748 238.482C896.042 240.438 892.554 242.983 890.296 246.107C888.039 249.232 886.228 253.242 884.859 258.126C884.07 260.67 882.891 265.751 881.325 273.377C879.752 280.995 877.744 289.747 875.296 299.616C872.841 309.491 869.951 319.799 866.614 330.549C863.277 341.299 859.552 351.03 855.438 359.723C851.311 368.42 846.803 375.409 841.899 380.688C836.996 385.962 831.697 388.116 826.011 387.138C822.871 386.55 820.864 383.325 819.982 377.462C819.1 371.597 818.948 364.369 819.541 355.765C820.126 347.166 821.304 337.732 823.068 327.473C824.832 317.21 826.642 307.487 828.512 298.296C830.374 289.111 832.092 280.995 833.665 273.961C835.232 266.923 836.311 262.232 836.897 259.889C836.897 254.22 835.62 249.678 833.073 246.252C830.519 242.838 827.432 240.684 823.806 239.802C820.172 238.924 816.447 239.412 812.623 241.268C808.799 243.128 805.514 246.502 802.763 251.382C801.783 256.66 800.506 262.772 798.939 269.709C797.366 276.646 795.852 283.781 794.384 291.113C792.91 298.444 791.535 305.627 790.264 312.665C788.987 319.702 788.053 325.859 787.467 331.137C787.072 335.24 786.631 340.276 786.144 346.235C785.65 352.202 785.407 358.503 785.407 365.147C785.407 371.797 785.894 378.392 786.881 384.939C787.855 391.489 789.626 397.501 792.173 402.969C794.72 408.444 798.301 412.938 802.915 416.457C807.522 419.975 813.36 421.928 820.422 422.323C827.676 422.71 834.001 422.177 839.398 420.708C844.795 419.243 849.692 416.944 854.109 413.816C858.525 410.694 862.54 406.978 866.173 402.675C869.8 398.379 873.381 393.688 876.915 388.603C880.246 396.035 884.563 401.797 889.862 405.904C895.154 410.007 900.748 412.454 906.632 413.231C912.51 414.009 918.5 413.187 924.581 410.739C930.656 408.299 936.146 404.144 941.056 398.278C944.288 394.681 947.335 390.593 950.192 386.074C951.403 388.19 952.693 390.233 954.147 392.118C958.959 398.379 965.481 402.675 973.722 405.022C982.542 407.37 991.17 407.764 999.609 406.198C1008.04 404.635 1016.08 401.797 1023.73 397.694C1031.39 393.588 1038.49 388.656 1045.07 382.886C1051.64 377.12 1057.37 371.113 1062.28 364.853C1062.08 369.35 1061.99 373.605 1061.99 377.608C1061.99 381.617 1061.89 385.962 1061.69 390.657C1051.88 397.501 1042.61 405.71 1033.89 415.285C1025.15 424.86 1017.5 435.074 1010.94 445.924C1004.37 456.771 999.214 467.767 995.495 478.908C991.763 490.055 989.946 500.459 990.045 510.139C990.144 519.813 992.447 528.265 996.956 535.496C1001.47 542.731 1008.82 547.909 1019.03 551.037C1029.62 554.362 1038.94 554.455 1046.98 551.331C1055.02 548.202 1062.03 543.021 1068.01 535.79C1074 528.558 1078.9 519.813 1082.73 509.551C1086.56 499.288 1089.6 488.586 1091.85 477.446C1094.11 466.305 1095.53 455.35 1096.11 444.608C1096.7 433.854 1096.7 424.272 1096.11 415.869C1112.98 408.835 1126.81 399.941 1137.6 389.187C1148.39 378.445 1157.31 367.103 1164.37 355.177C1166.53 352.247 1167.27 348.728 1166.59 344.625C1165.89 340.518 1164.23 336.999 1161.58 334.068Z" fill="#0D0C23"/>
<path fill-rule="evenodd" clip-rule="evenodd" d="M1532.74 315.306C1533.33 310.813 1534.21 306.07 1535.39 301.085C1536.56 296.101 1538.04 291.262 1539.81 286.571C1541.56 281.88 1543.62 277.826 1545.98 274.404C1548.34 270.985 1550.84 268.542 1553.48 267.073C1556.14 265.611 1558.83 265.755 1561.58 267.511C1564.52 269.274 1566.33 272.986 1567.02 278.652C1567.7 284.328 1567.02 290.384 1564.96 296.834C1562.9 303.288 1559.22 309.343 1553.92 315.012C1548.63 320.685 1541.47 324.393 1532.45 326.153C1532.05 323.422 1532.15 319.803 1532.74 315.306ZM1634.69 327.325C1631.45 326.354 1628.37 326.254 1625.42 327.034C1622.48 327.816 1620.61 329.869 1619.84 333.194C1618.26 339.447 1615.76 345.849 1612.33 352.395C1608.9 358.946 1604.68 365.151 1599.68 371.017C1594.68 376.879 1589.03 382.06 1582.76 386.554C1576.48 391.051 1569.91 394.277 1563.05 396.229C1556.18 398.383 1550.49 398.624 1545.98 396.962C1541.47 395.307 1537.89 392.468 1535.24 388.462C1532.6 384.456 1530.68 379.617 1529.51 373.948C1528.33 368.279 1527.64 362.417 1527.45 356.354C1538.62 357.138 1548.58 355.137 1557.31 350.342C1566.03 345.559 1573.44 339.202 1579.52 331.286C1585.6 323.37 1590.21 314.476 1593.35 304.604C1596.48 294.736 1598.25 284.912 1598.65 275.136C1598.84 265.949 1597.47 258.182 1594.53 251.829C1591.59 245.479 1587.61 240.536 1582.61 237.021C1577.61 233.501 1571.87 231.448 1565.4 230.864C1558.93 230.277 1552.35 231.158 1545.68 233.501C1537.64 236.239 1530.83 240.684 1525.24 246.845C1519.65 253.001 1514.99 260.138 1511.26 268.248C1507.53 276.361 1504.59 285.106 1502.43 294.487C1500.27 303.872 1498.71 313.108 1497.73 322.199C1496.85 330.356 1496.37 338.156 1496.21 345.685C1495.79 346.642 1495.38 347.56 1494.93 348.583C1491.89 355.528 1488.36 362.32 1484.34 368.963C1480.32 375.611 1475.86 381.183 1470.95 385.676C1466.05 390.174 1460.95 391.736 1455.65 390.367C1452.52 389.59 1450.8 385.967 1450.5 379.52C1450.21 373.066 1450.55 365.054 1451.53 355.476C1452.52 345.901 1453.64 335.534 1454.92 324.393C1456.19 313.253 1456.83 302.603 1456.83 292.437C1456.83 283.64 1455.16 275.189 1451.83 267.073C1448.49 258.967 1443.93 252.219 1438.15 246.845C1432.36 241.465 1425.64 237.898 1417.99 236.142C1410.34 234.38 1402.11 235.555 1393.28 239.658C1384.45 243.765 1377.44 249.53 1372.24 256.958C1367.04 264.39 1362.28 272.206 1357.97 280.415C1356.39 274.158 1354.1 268.348 1351.06 262.97C1348.01 257.594 1344.29 252.904 1339.87 248.894C1335.46 244.892 1330.5 241.763 1325.02 239.513C1319.52 237.269 1313.73 236.142 1307.66 236.142C1301.77 236.142 1296.33 237.269 1291.33 239.513C1286.32 241.763 1281.76 244.642 1277.64 248.161C1273.52 251.684 1269.8 255.638 1266.46 260.038C1263.13 264.435 1260.18 268.787 1257.64 273.083C1257.24 268.002 1256.8 263.557 1256.31 259.741C1255.82 255.931 1254.93 252.706 1253.66 250.069C1252.39 247.428 1250.58 245.427 1248.22 244.058C1245.86 242.693 1242.53 242.005 1238.22 242.005C1236.06 242.005 1233.9 242.444 1231.75 243.322C1229.58 244.203 1227.67 245.427 1226.01 246.989C1224.33 248.559 1223.06 250.46 1222.18 252.706C1221.29 254.953 1221.06 257.546 1221.45 260.477C1221.64 262.631 1222.18 265.216 1223.06 268.248C1223.95 271.28 1224.78 275.241 1225.57 280.121C1226.35 285.009 1226.99 290.923 1227.47 297.86C1227.97 304.801 1228.11 313.305 1227.92 323.37C1227.72 333.44 1226.99 345.213 1225.71 358.7C1224.43 372.188 1222.42 387.826 1219.68 405.611C1219.29 409.717 1220.85 413.042 1224.39 415.583C1227.92 418.12 1231.94 419.585 1236.45 419.979C1240.96 420.37 1245.23 419.585 1249.25 417.636C1253.27 415.676 1255.58 412.257 1256.16 407.373C1256.75 398.186 1257.88 388.414 1259.55 378.051C1261.21 367.695 1263.27 357.432 1265.73 347.266C1268.18 337.104 1270.97 327.429 1274.11 318.237C1277.25 309.05 1280.74 300.941 1284.56 293.903C1288.38 286.865 1292.36 281.248 1296.47 277.045C1300.59 272.842 1304.9 270.74 1309.42 270.74C1314.92 270.74 1319.17 273.229 1322.22 278.213C1325.26 283.201 1327.41 289.606 1328.69 297.418C1329.97 305.24 1330.55 313.796 1330.46 323.077C1330.36 332.361 1329.97 341.304 1329.28 349.903C1328.59 358.507 1327.81 366.177 1326.93 372.921C1326.05 379.665 1325.41 384.311 1325.02 386.848C1325.02 391.345 1326.73 394.908 1330.16 397.549C1333.59 400.187 1337.42 401.753 1341.64 402.24C1345.86 402.731 1349.83 401.946 1353.56 399.893C1357.28 397.84 1359.44 394.377 1360.03 389.485C1361.99 375.413 1364.69 361.293 1368.12 347.121C1371.55 332.949 1375.48 320.246 1379.89 309.005C1384.3 297.764 1389.21 288.576 1394.6 281.442C1399.99 274.311 1405.73 270.74 1411.81 270.74C1414.95 270.74 1417.36 272.894 1419.02 277.19C1420.69 281.49 1421.52 287.353 1421.52 294.78C1421.52 300.256 1421.08 305.877 1420.2 311.642C1419.32 317.408 1418.29 323.37 1417.11 329.527C1415.93 335.687 1414.9 341.988 1414.02 348.438C1413.14 354.892 1412.7 361.632 1412.7 368.669C1412.7 373.557 1413.18 379.226 1414.16 385.676C1415.14 392.123 1417.01 398.238 1419.75 404C1422.5 409.769 1426.27 414.653 1431.09 418.659C1435.89 422.665 1442.02 424.67 1449.47 424.67C1460.65 424.67 1470.56 422.275 1479.19 417.487C1487.82 412.7 1495.23 406.447 1501.41 398.725C1501.72 398.32 1502.02 397.888 1502.33 397.486C1502.8 398.628 1503.22 399.837 1503.76 400.924C1507.98 409.523 1513.72 416.167 1520.98 420.861C1528.22 425.552 1536.76 428.141 1546.57 428.632C1556.38 429.115 1567.06 427.308 1578.65 423.205C1587.27 420.076 1594.77 416.167 1601.15 411.476C1607.52 406.786 1613.26 401.069 1618.36 394.325C1623.46 387.581 1628.12 379.81 1632.34 371.017C1636.56 362.216 1640.82 352.154 1645.14 340.813C1645.92 337.692 1645.18 334.905 1642.93 332.458C1640.67 330.018 1637.93 328.307 1634.69 327.325Z" fill="#0D0C23"/>
<path fill-rule="evenodd" clip-rule="evenodd" d="M1794.61 294.624C1793.62 300.393 1792.29 306.75 1790.63 313.684C1788.96 320.625 1786.85 327.808 1784.3 335.236C1781.75 342.665 1778.62 349.36 1774.89 355.319C1771.16 361.285 1766.9 366.021 1762.09 369.54C1757.28 373.058 1751.74 374.524 1745.46 373.937C1742.32 373.549 1739.92 371.4 1738.26 367.486C1736.59 363.581 1735.7 358.592 1735.6 352.533C1735.51 346.477 1736.05 339.83 1737.22 332.595C1738.4 325.367 1740.22 318.278 1742.67 311.337C1745.12 304.404 1748.12 297.998 1751.64 292.132C1755.17 286.27 1759.24 281.724 1763.85 278.499C1768.46 275.274 1773.52 273.764 1779.01 273.953C1784.5 274.151 1790.38 276.885 1796.67 282.163C1796.26 284.707 1795.59 288.862 1794.61 294.624ZM1899.2 317.054C1896.16 315.492 1893.02 315.153 1889.79 316.031C1886.55 316.909 1884.24 319.893 1882.87 324.973C1882.09 330.449 1880.32 336.895 1877.58 344.324C1874.83 351.752 1871.44 358.793 1867.43 365.433C1863.4 372.08 1858.79 377.604 1853.59 382.001C1848.39 386.402 1842.86 388.406 1836.97 388.008C1832.06 387.621 1828.63 385.129 1826.67 380.535C1824.7 375.942 1823.68 370.18 1823.59 363.234C1823.48 356.301 1824.17 348.482 1825.64 339.782C1827.11 331.085 1828.88 322.437 1830.94 313.829C1833 305.233 1835.1 296.971 1837.27 289.055C1839.42 281.14 1841.19 274.444 1842.56 268.973C1844.13 264.085 1843.64 259.933 1841.09 256.508C1838.54 253.093 1835.35 250.645 1831.53 249.18C1827.7 247.715 1823.83 247.324 1819.9 248.008C1815.98 248.693 1813.44 250.794 1812.25 254.309C1800.68 244.34 1789.55 238.966 1778.86 238.184C1768.17 237.404 1758.31 239.75 1749.29 245.222C1740.26 250.694 1732.27 258.61 1725.31 268.973C1718.35 279.336 1712.71 290.621 1708.39 302.837C1704.08 315.053 1701.38 327.518 1700.3 340.221C1699.22 352.927 1700.05 364.511 1702.8 374.967C1705.55 385.423 1710.4 393.978 1717.37 400.618C1724.32 407.265 1733.79 410.591 1745.76 410.591C1751.05 410.591 1756.15 409.516 1761.06 407.365C1765.96 405.212 1770.48 402.671 1774.6 399.74C1778.71 396.809 1782.34 393.729 1785.48 390.504C1788.62 387.279 1791.07 384.593 1792.83 382.44C1794.2 389.478 1796.47 395.444 1799.6 400.328C1802.74 405.212 1806.32 409.226 1810.34 412.347C1814.36 415.471 1818.58 417.77 1822.99 419.239C1827.41 420.705 1831.67 421.437 1835.79 421.437C1845.02 421.437 1853.64 418.309 1861.69 412.052C1869.72 405.803 1876.94 398.126 1883.32 389.039C1889.69 379.947 1894.93 370.373 1899.05 360.304C1903.17 350.238 1905.92 341.296 1907.29 333.473C1908.66 330.542 1908.42 327.466 1906.56 324.24C1904.69 321.016 1902.24 318.624 1899.2 317.054Z" fill="#0D0C23"/>
<path fill-rule="evenodd" clip-rule="evenodd" d="M2428.82 478.921C2427.15 485.565 2424.55 491.19 2421.03 495.78C2417.5 500.374 2413.08 502.769 2407.78 502.966C2404.45 503.16 2401.9 501.4 2400.13 497.688C2398.37 493.972 2397.15 489.184 2396.46 483.322C2395.76 477.456 2395.47 470.906 2395.57 463.675C2395.67 456.443 2395.97 449.309 2396.46 442.271C2396.94 435.237 2397.53 428.683 2398.23 422.627C2398.9 416.564 2399.44 411.881 2399.84 408.556C2406.51 409.336 2412.05 412.216 2416.46 417.204C2420.88 422.188 2424.26 428.099 2426.61 434.943C2428.97 441.784 2430.34 449.164 2430.73 457.079C2431.12 464.995 2430.48 472.275 2428.82 478.921ZM2322.31 478.921C2320.64 485.565 2318.04 491.19 2314.51 495.78C2310.98 500.374 2306.57 502.769 2301.27 502.966C2297.94 503.16 2295.39 501.4 2293.63 497.688C2291.86 493.972 2290.63 489.184 2289.95 483.322C2289.26 477.456 2288.96 470.906 2289.06 463.675C2289.16 456.443 2289.45 449.309 2289.95 442.271C2290.43 435.237 2291.02 428.683 2291.71 422.627C2292.4 416.564 2292.93 411.881 2293.33 408.556C2300 409.336 2305.55 412.216 2309.95 417.204C2314.37 422.188 2317.75 428.099 2320.1 434.943C2322.46 441.784 2323.83 449.164 2324.23 457.079C2324.61 464.995 2323.98 472.275 2322.31 478.921ZM2213.01 312.385C2212.81 317.072 2212.37 321.227 2211.68 324.843C2210.99 328.465 2210.06 330.757 2208.88 331.735C2206.72 330.56 2204.07 327.536 2200.94 322.644C2197.8 317.76 2195.35 312.232 2193.58 306.076C2191.82 299.92 2191.28 293.865 2191.97 287.898C2192.65 281.939 2195.75 277.301 2201.24 273.971C2203.39 272.799 2205.25 273.239 2206.82 275.292C2208.4 277.345 2209.67 280.325 2210.65 284.234C2211.63 288.147 2212.31 292.641 2212.71 297.722C2213.1 302.807 2213.19 307.691 2213.01 312.385ZM2186.97 370.878C2183.93 374.099 2180.54 376.886 2176.82 379.232C2173.08 381.58 2169.26 383.339 2165.34 384.511C2161.42 385.686 2157.88 385.976 2154.75 385.389C2145.92 383.633 2139.15 379.817 2134.45 373.954C2129.74 368.092 2126.74 361.203 2125.47 353.287C2124.19 345.368 2124.34 336.913 2125.91 327.922C2127.48 318.932 2130.12 310.578 2133.86 302.855C2137.58 295.133 2142.1 288.486 2147.39 282.917C2152.69 277.345 2158.47 273.878 2164.75 272.506C2162.4 282.475 2161.61 292.79 2162.4 303.439C2163.18 314.093 2165.73 324.11 2170.05 333.491C2172.79 339.168 2176.08 344.342 2179.9 349.032C2183.73 353.726 2188.39 357.733 2193.88 361.054C2192.31 364.38 2190 367.653 2186.97 370.878ZM2512.53 315.316C2513.12 310.823 2514 306.076 2515.18 301.092C2516.35 296.111 2517.83 291.272 2519.59 286.581C2521.35 281.887 2523.41 277.833 2525.77 274.414C2528.13 270.996 2530.63 268.548 2533.27 267.082C2535.92 265.617 2538.62 265.762 2541.36 267.521C2544.3 269.284 2546.12 272.997 2546.81 278.662C2547.49 284.334 2546.81 290.39 2544.75 296.844C2542.69 303.294 2539.01 309.354 2533.71 315.019C2528.42 320.695 2521.26 324.404 2512.24 326.163C2511.84 323.429 2511.94 319.814 2512.53 315.316ZM2631.11 315.316C2631.69 310.823 2632.57 306.076 2633.75 301.092C2634.93 296.111 2636.41 291.272 2638.17 286.581C2639.93 281.887 2641.99 277.833 2644.34 274.414C2646.7 270.996 2649.2 268.548 2651.85 267.082C2654.5 265.617 2657.2 265.762 2659.94 267.521C2662.88 269.284 2664.69 272.997 2665.39 278.662C2666.07 284.334 2665.39 290.39 2663.33 296.844C2661.27 303.294 2657.59 309.354 2652.29 315.019C2647 320.695 2639.83 324.404 2630.81 326.163C2630.42 323.429 2630.51 319.814 2631.11 315.316ZM2741.29 332.468C2739.04 330.028 2736.29 328.317 2733.06 327.335C2729.82 326.36 2726.74 326.263 2723.79 327.045C2720.84 327.826 2718.98 329.879 2718.2 333.201C2716.63 339.457 2714.12 345.859 2710.7 352.402C2707.26 358.956 2703.05 365.161 2698.05 371.023C2693.04 376.886 2687.4 382.071 2681.13 386.564C2674.84 391.062 2668.28 394.286 2661.42 396.236C2654.55 398.393 2648.86 398.635 2644.34 396.972C2639.83 395.313 2636.25 392.479 2633.61 388.473C2630.96 384.462 2629.05 379.627 2627.87 373.954C2626.7 368.289 2626.01 362.427 2625.81 356.363C2636.99 357.149 2646.95 355.147 2655.68 350.353C2664.4 345.565 2671.81 339.208 2677.89 331.293C2683.97 323.381 2688.58 314.487 2691.72 304.615C2694.85 294.742 2696.62 284.922 2697.02 275.147C2697.2 265.959 2695.83 258.189 2692.89 251.835C2689.96 245.486 2685.98 240.546 2680.98 237.03C2675.98 233.508 2670.24 231.458 2663.77 230.871C2657.3 230.283 2650.72 231.169 2644.05 233.508C2636.01 236.25 2629.2 240.694 2623.61 246.85C2618.02 253.011 2613.36 260.149 2609.63 268.254C2605.9 276.371 2602.96 285.112 2600.8 294.497C2598.64 303.878 2597.07 313.118 2596.1 322.205C2595.14 331.025 2594.62 339.465 2594.51 347.544C2593.76 349.155 2592.97 350.773 2592.12 352.402C2588.69 358.956 2584.47 365.161 2579.47 371.023C2574.47 376.886 2568.82 382.071 2562.55 386.564C2556.27 391.062 2549.7 394.286 2542.84 396.236C2535.97 398.393 2530.28 398.635 2525.77 396.972C2521.26 395.313 2517.68 392.479 2515.03 388.473C2512.39 384.462 2510.47 379.627 2509.3 373.954C2508.12 368.289 2507.43 362.427 2507.24 356.363C2518.41 357.149 2528.37 355.147 2537.1 350.353C2545.83 345.565 2553.23 339.208 2559.31 331.293C2565.39 323.381 2570 314.487 2573.14 304.615C2576.27 294.742 2578.04 284.922 2578.44 275.147C2578.63 265.959 2577.26 258.189 2574.32 251.835C2571.38 245.486 2567.4 240.546 2562.4 237.03C2557.4 233.508 2551.66 231.458 2545.19 230.871C2538.72 230.283 2532.14 231.169 2525.47 233.508C2517.43 236.25 2510.62 240.694 2505.03 246.85C2499.44 253.011 2494.78 260.149 2491.05 268.254C2487.33 276.371 2484.38 285.112 2482.22 294.497C2480.07 303.878 2478.5 313.118 2477.52 322.205C2476.97 327.331 2476.59 332.3 2476.31 337.181C2474.42 338.788 2472.58 340.406 2470.6 341.994C2463.84 347.47 2456.73 352.402 2449.28 356.803C2441.81 361.203 2434.06 364.819 2426.03 367.653C2417.98 370.487 2409.74 372.199 2401.31 372.783L2419.56 178.095C2420.73 173.989 2420.14 170.377 2417.79 167.249C2415.44 164.12 2412.39 161.97 2408.66 160.798C2404.94 159.623 2400.96 159.723 2396.75 161.088C2392.53 162.461 2389.05 165.589 2386.31 170.469C2384.93 177.901 2383.51 188.064 2382.04 200.964C2380.57 213.864 2379.1 227.94 2377.62 243.187C2376.16 258.434 2374.68 274.169 2373.21 290.39C2371.74 306.619 2370.46 321.766 2369.39 335.838C2369.34 336.463 2369.3 337.028 2369.25 337.646C2367.53 339.096 2365.87 340.558 2364.09 341.994C2357.33 347.47 2350.21 352.402 2342.76 356.803C2335.3 361.203 2327.56 364.819 2319.52 367.653C2311.47 370.487 2303.23 372.199 2294.8 372.783L2313.04 178.095C2314.22 173.989 2313.64 170.377 2311.28 167.249C2308.92 164.12 2305.88 161.97 2302.16 160.798C2298.43 159.623 2294.46 159.723 2290.24 161.088C2286.02 162.461 2282.54 165.589 2279.8 170.469C2278.42 177.901 2277 188.064 2275.53 200.964C2274.06 213.864 2272.58 227.94 2271.12 243.187C2269.64 258.434 2268.17 274.169 2266.7 290.39C2265.23 306.619 2263.95 321.766 2262.88 335.838C2262.86 336.121 2262.84 336.378 2262.82 336.66C2259.73 338.085 2256.37 339.335 2252.73 340.384C2248.99 341.462 2244.78 342.099 2240.08 342.292C2240.86 338.769 2241.49 334.86 2241.98 330.56C2242.47 326.263 2242.87 321.766 2243.16 317.072C2243.46 312.385 2243.55 307.691 2243.46 303C2243.35 298.306 2243.11 294.01 2242.72 290.096C2241.74 281.697 2239.93 273.73 2237.28 266.201C2234.63 258.68 2231.05 252.378 2226.54 247.29C2222.03 242.208 2216.39 238.787 2209.62 237.03C2202.85 235.272 2194.96 235.855 2185.94 238.787C2172.59 237.03 2160.58 238.254 2149.89 242.454C2139.2 246.661 2129.93 252.765 2122.09 260.777C2114.24 268.797 2107.82 278.223 2102.82 289.074C2097.81 299.92 2094.48 311.065 2092.81 322.496C2092.1 327.342 2091.76 332.167 2091.65 336.98C2088.62 343.177 2085.3 348.593 2081.63 353.139C2076.44 359.589 2071.04 364.867 2065.45 368.97C2059.86 373.076 2054.31 376.205 2048.82 378.355C2043.33 380.509 2038.43 381.974 2034.11 382.752C2029.01 383.73 2024.11 383.83 2019.4 383.045C2014.7 382.268 2010.37 380.018 2006.46 376.302C2003.32 373.567 2000.92 369.167 1999.25 363.107C1997.58 357.048 1996.6 350.163 1996.31 342.437C1996.01 334.715 1996.31 326.651 1997.19 318.248C1998.07 309.845 1999.59 301.877 2001.75 294.352C2003.9 286.827 2006.65 280.083 2009.98 274.117C2013.32 268.161 2017.24 263.906 2021.75 261.365C2024.3 261.76 2025.88 263.27 2026.47 265.907C2027.05 268.548 2027.2 271.676 2026.91 275.292C2026.61 278.911 2026.17 282.623 2025.58 286.432C2024.99 290.246 2024.7 293.426 2024.7 295.963C2025.68 301.241 2027.59 305.348 2030.44 308.279C2033.28 311.209 2036.47 312.924 2040 313.408C2043.53 313.899 2047.01 313.07 2050.44 310.916C2053.87 308.769 2056.67 305.348 2058.83 300.653C2059.03 300.85 2059.32 300.947 2059.71 300.947L2063.83 263.712C2065.01 258.628 2064.22 254.134 2061.48 250.225C2058.73 246.315 2055.1 244.065 2050.59 243.481C2044.9 235.272 2037.2 230.923 2027.49 230.432C2017.78 229.945 2007.83 233.121 1997.63 239.962C1991.35 244.463 1985.81 250.663 1981 258.579C1976.19 266.499 1972.28 275.292 1969.24 284.967C1966.19 294.642 1964.04 304.86 1962.77 315.61C1961.49 326.36 1961.24 336.82 1962.02 346.979C1962.81 357.149 1964.63 366.727 1967.47 375.714C1970.31 384.708 1974.28 392.233 1979.39 398.289C1983.7 403.567 1988.6 407.432 1994.1 409.876C1999.59 412.32 2005.32 413.83 2011.31 414.418C2017.29 415.001 2023.23 414.756 2029.11 413.685C2035 412.614 2040.59 411.1 2045.88 409.14C2052.75 406.603 2059.81 403.374 2067.07 399.464C2074.32 395.559 2081.29 390.864 2087.96 385.389C2091.46 382.51 2094.85 379.37 2098.11 376.004C2099.6 379.679 2101.26 383.235 2103.26 386.564C2108.56 395.358 2115.71 402.496 2124.73 407.968C2133.75 413.439 2144.84 416.073 2157.99 415.884C2172.11 415.686 2185.15 412.123 2197.12 405.181C2209.08 398.248 2218.89 388.026 2226.54 374.542C2238 374.542 2249.27 372.66 2260.35 368.921C2260.26 370.104 2260.17 371.35 2260.08 372.492C2259.3 382.852 2258.9 389.886 2258.9 393.602C2258.71 400.052 2258.27 408.016 2257.58 417.494C2256.89 426.975 2256.45 436.944 2256.26 447.401C2256.06 457.857 2256.45 468.413 2257.43 479.071C2258.42 489.72 2260.47 499.399 2263.61 508.099C2266.75 516.792 2271.21 524.172 2277 530.235C2282.79 536.292 2290.39 539.911 2299.81 541.082C2309.8 542.448 2318.43 540.688 2325.69 535.804C2332.95 530.916 2338.84 524.224 2343.35 515.721C2347.86 507.214 2351.05 497.394 2352.91 486.253C2354.77 475.113 2355.31 463.92 2354.53 452.679C2353.75 441.438 2351.68 430.837 2348.35 420.871C2345.01 410.899 2340.4 402.689 2334.52 396.236C2338.05 395.265 2342.27 393.409 2347.18 390.667C2352.07 387.933 2357.13 384.853 2362.33 381.431C2363.6 380.59 2364.86 379.705 2366.14 378.842C2365.66 385.768 2365.41 390.708 2365.41 393.602C2365.22 400.052 2364.78 408.016 2364.09 417.494C2363.41 426.975 2362.97 436.944 2362.77 447.401C2362.58 457.857 2362.97 468.413 2363.95 479.071C2364.93 489.72 2366.99 499.399 2370.12 508.099C2373.26 516.792 2377.72 524.172 2383.51 530.235C2389.29 536.292 2396.9 539.911 2406.31 541.082C2416.31 542.448 2424.95 540.688 2432.21 535.804C2439.46 530.916 2445.35 524.224 2449.86 515.721C2454.37 507.214 2457.56 497.394 2459.42 486.253C2461.29 475.113 2461.82 463.92 2461.04 452.679C2460.25 441.438 2458.19 430.837 2454.86 420.871C2451.53 410.899 2446.92 402.689 2441.03 396.236C2444.56 395.265 2448.78 393.409 2453.68 390.667C2458.59 387.933 2463.64 384.853 2468.84 381.431C2471.54 379.653 2474.23 377.819 2476.9 375.933C2477.91 385.493 2480.09 393.878 2483.55 400.93C2487.77 409.534 2493.5 416.177 2500.76 420.871C2508.01 425.558 2516.55 428.151 2526.36 428.638C2536.17 429.122 2546.85 427.318 2558.44 423.211C2567.06 420.087 2574.56 416.177 2580.94 411.486C2587.31 406.792 2593.05 401.075 2598.15 394.335C2598.45 393.944 2598.72 393.52 2599.01 393.126C2599.92 395.864 2600.93 398.493 2602.13 400.93C2606.35 409.534 2612.08 416.177 2619.34 420.871C2626.59 425.558 2635.13 428.151 2644.94 428.638C2654.74 429.122 2665.43 427.318 2677.01 423.211C2685.64 420.087 2693.14 416.177 2699.52 411.486C2705.89 406.792 2711.62 401.075 2716.73 394.335C2721.83 387.587 2726.48 379.817 2730.7 371.023C2734.92 362.226 2739.18 352.164 2743.51 340.822C2744.29 337.698 2743.55 334.912 2741.29 332.468Z" fill="#0D0C23"/>
</g>
<defs>
<clipPath id="clip0_864_110">
<rect width="2744" height="601" fill="white"/>
</clipPath>
</defs>
</svg>
