<svg viewBox="0 0 500 460" xmlns="http://www.w3.org/2000/svg" xmlns:xlink="http://www.w3.org/1999/xlink"><clipPath id="a"><path d="m399.57 286.94c30.09 25.8 21.08 41.52 11.5 57.53-9.58 16.02-47.62 69.27-75.99 58.21-22.48-8.76-43.05-43.88-42.61-65.93.28-14.27 39.39-69.74 65.91-66.91 17.75 1.9 24.91 3.14 41.2 17.1z"/></clipPath><clipPath id="b"><path d="m218.84 37.03s-74.5 35.34-78.05 47.34c-3.56 12 36.5 129.31 49.26 133.58 12.75 4.28 120.7-42.98 125.09-47.82s-5.81-79.61-13.94-84.73c-8.13-5.13-70.96-45.41-82.35-48.37z"/></clipPath><clipPath id="c"><path d="m38.15 231.3c-8.62 1.12-18.58 24.15-19.03 31.98s10.12 70 18.05 76.46 45.73 17.92 53.93 15.94 75.27-54.71 69.57-69.55c-5.38-14-27.42-28.4-42.45-34.68-10.56-4.41-62.54-22.41-80.07-20.14z"/></clipPath><path d="m465.36 391.52c-16.48 9.89-88.02 12.92-121.2 12.67-6.7-.05-59.2-43.32-34.06-44.36s44.53 4.83 53.87 4.75c9.33-.07 132.51 8.27 101.4 26.93z" fill="none" stroke="#dcdcf9" stroke-dasharray="12" stroke-miterlimit="10" stroke-width="3"/><g clip-path="url(#a)"><path d="m292.46 376.12s34.74 11.41 76.48-5.06c41.75-16.47 60.86-48.22 60.86-48.22l-9.59 51.59-9.01 69.32-104.81-3.38-13.94-64.25z" fill="none" stroke="#3ae668" stroke-dasharray="12" stroke-miterlimit="10" stroke-width="3"/></g><path d="m399.57 286.94c30.09 25.8 21.08 41.52 11.5 57.53-9.58 16.02-47.62 69.27-75.99 58.21-22.48-8.76-43.05-43.88-42.61-65.93.28-14.27 39.39-69.74 65.91-66.91 17.75 1.9 24.91 3.14 41.2 17.1z" fill="none" stroke="#3ae668" stroke-dasharray="12" stroke-miterlimit="10" stroke-width="3"/><path d="m389.98 204.31c-26.37 8.79-196.83 16.79-199.94 13.64s-30.26-44.5 0-45.75 66.69-.21 77.92-.3c7.88-.06 37.31-8.79 68.64 1.91 13.32 4.55 73.4 23.83 53.38 30.5z" fill="none" stroke="#dcdcf9" stroke-dasharray="12" stroke-miterlimit="10" stroke-width="3"/><g clip-path="url(#b)"><path d="m301.19 85.39c-1.99 19.07-28.76 52.22-41.17 62.22-12.4 10-69.99 70.33-69.99 70.33l76.12 17.01 96.82-61.26-61.78-88.31" fill="none" stroke="#7774f1" stroke-dasharray="12" stroke-miterlimit="10" stroke-width="3"/></g><g fill="none" stroke-miterlimit="10" stroke-width="3"><path d="m218.84 37.03s-74.5 35.34-78.05 47.34c-3.56 12 36.5 129.31 49.26 133.58 12.75 4.28 120.7-42.98 125.09-47.82s-5.81-79.61-13.94-84.73c-8.13-5.13-70.96-45.41-82.35-48.37z" stroke="#7774f1" stroke-dasharray="12"/><path d="m204.16 343.87c-15.65 9.39-83.6 12.27-115.12 12.04-6.36-.05-34.05-11.13-34.61-11.29-18.81-5.27-31.96-25.11-8.08-26.1s52.64-.17 61.5-.24 125.86 7.85 96.31 25.58z" stroke="#dcdcf9" stroke-dasharray="12"/><g clip-path="url(#c)" stroke="#ff7f7a"><path d="m50.83 320.81c1.84-.5 3.79-.96 5.83-1.4"/><path d="m68.95 317.23c17.87-2.7 39.4-4.4 57.16-7.85 24.4-4.74 69.64-38.24 81.83-50.73 12.19-12.5 18.98 5.26 18.98 5.26l2.24 63.64" stroke-dasharray="12.48 12.48"/><path d="m229.38 333.79.21 6-5.45 2.51"/><path d="m212.77 347.53-28.55 13.16-137.51-3.6" stroke-dasharray="12.52 12.52"/><path d="m40.46 356.93-6-.16 2.48-5.46"/><path d="m40.74 342.96 5.7-12.52" stroke-dasharray="9.17 9.17"/><path d="m48.34 326.27 2.49-5.46"/><path d="m4.19 206.78-2.26-5.56-4.49 3.98"/><path d="m-24.9 248.55 47.02 110.5" stroke-dasharray="12.64 12.64"/><path d="m24.59 364.86 2.35 5.52 2.59-5.41"/><path d="m35.68 352.13 9.23-19.27" stroke-dasharray="14.24 14.24"/><path d="m47.98 326.44 2.59-5.41-2.25-5.56"/><path d="m43.41 303.39-36.77-90.57" stroke-dasharray="13.03 13.03"/></g><path d="m38.15 231.3c-8.62 1.12-18.58 24.15-19.03 31.98s10.12 70 18.05 76.46 45.73 17.92 53.93 15.94 75.27-54.71 69.57-69.55c-5.38-14-27.42-28.4-42.45-34.68-10.56-4.41-62.54-22.41-80.07-20.14z" stroke="#ff7f7a" stroke-dasharray="12"/></g></svg>