<?xml version="1.0" encoding="UTF-8"?><svg id="Layer_1" xmlns="http://www.w3.org/2000/svg" xmlns:xlink="http://www.w3.org/1999/xlink" viewBox="0 0 500 460"><defs><style>.cls-1{stroke:#7774f1;}.cls-1,.cls-2,.cls-3,.cls-4,.cls-5,.cls-6,.cls-7,.cls-8,.cls-9,.cls-10,.cls-11{fill:none;stroke-miterlimit:10;stroke-width:3px;}.cls-1,.cls-3,.cls-4,.cls-7{stroke-dasharray:12;}.cls-2{stroke-dasharray:12.48 12.48;}.cls-2,.cls-5,.cls-6,.cls-7,.cls-8,.cls-9,.cls-10,.cls-11{stroke:#ff7f7a;}.cls-3{stroke:#dcdcf9;}.cls-4{stroke:#3ae668;}.cls-5{stroke-dasharray:12.64 12.64;}.cls-6{stroke-dasharray:12.52 12.52;}.cls-12{clip-path:url(#clippath-1);}.cls-13{clip-path:url(#clippath-2);}.cls-8{stroke-dasharray:9.17 9.17;}.cls-10{stroke-dasharray:14.24 14.24;}.cls-11{stroke-dasharray:13.03 13.03;}.cls-14{clip-path:url(#clippath);}</style><clipPath id="clippath"><path class="cls-4" d="M399.57,286.94c30.09,25.8,21.08,41.52,11.5,57.53-9.58,16.02-47.62,69.27-75.99,58.21-22.48-8.76-43.05-43.88-42.61-65.93.28-14.27,39.39-69.74,65.91-66.91,17.75,1.9,24.91,3.14,41.2,17.1Z"/></clipPath><clipPath id="clippath-1"><path class="cls-1" d="M218.84,37.03s-74.5,35.34-78.05,47.34c-3.56,12,36.5,129.31,49.26,133.58,12.75,4.28,120.7-42.98,125.09-47.82,4.39-4.84-5.81-79.61-13.94-84.73-8.13-5.13-70.96-45.41-82.35-48.37Z"/></clipPath><clipPath id="clippath-2"><path class="cls-7" d="M38.15,231.3c-8.62,1.12-18.58,24.15-19.03,31.98-.45,7.83,10.12,70,18.05,76.46,7.93,6.46,45.73,17.92,53.93,15.94,8.2-1.98,75.27-54.71,69.57-69.55-5.38-14-27.42-28.4-42.45-34.68-10.56-4.41-62.54-22.41-80.07-20.14Z"/></clipPath></defs><path class="cls-3" d="M465.36,391.52c-16.48,9.89-88.02,12.92-121.2,12.67-6.7-.05-59.2-43.32-34.06-44.36s44.53,4.83,53.87,4.75c9.33-.07,132.51,8.27,101.4,26.93Z"/><g class="cls-14"><path class="cls-4" d="M292.46,376.12s34.74,11.41,76.48-5.06c41.75-16.47,60.86-48.22,60.86-48.22l-9.59,51.59-9.01,69.32-104.81-3.38-13.94-64.25Z"/></g><path class="cls-4" d="M399.57,286.94c30.09,25.8,21.08,41.52,11.5,57.53-9.58,16.02-47.62,69.27-75.99,58.21-22.48-8.76-43.05-43.88-42.61-65.93.28-14.27,39.39-69.74,65.91-66.91,17.75,1.9,24.91,3.14,41.2,17.1Z"/><path class="cls-3" d="M389.98,204.31c-26.37,8.79-196.83,16.79-199.94,13.64s-30.26-44.5,0-45.75,66.69-.21,77.92-.3c7.88-.06,37.31-8.79,68.64,1.91,13.32,4.55,73.4,23.83,53.38,30.5Z"/><g class="cls-12"><path class="cls-1" d="M301.19,85.39c-1.99,19.07-28.76,52.22-41.17,62.22-12.4,10-69.99,70.33-69.99,70.33l76.12,17.01,96.82-61.26-61.78-88.31"/></g><path class="cls-1" d="M218.84,37.03s-74.5,35.34-78.05,47.34c-3.56,12,36.5,129.31,49.26,133.58,12.75,4.28,120.7-42.98,125.09-47.82,4.39-4.84-5.81-79.61-13.94-84.73-8.13-5.13-70.96-45.41-82.35-48.37Z"/><path class="cls-3" d="M204.16,343.87c-15.65,9.39-83.6,12.27-115.12,12.04-6.36-.05-34.05-11.13-34.61-11.29-18.81-5.27-31.96-25.11-8.08-26.1,23.88-.99,52.64-.17,61.5-.24,8.86-.07,125.86,7.85,96.31,25.58Z"/><g class="cls-13"><path class="cls-9" d="M50.83,320.81c1.84-.5,3.79-.96,5.83-1.4"/><path class="cls-2" d="M68.95,317.23c17.87-2.7,39.4-4.4,57.16-7.85,24.4-4.74,69.64-38.24,81.83-50.73,12.19-12.5,18.98,5.26,18.98,5.26l2.24,63.64"/><polyline class="cls-9" points="229.38 333.79 229.59 339.79 224.14 342.3"/><polyline class="cls-6" points="212.77 347.53 184.22 360.69 46.71 357.09"/><polyline class="cls-9" points="40.46 356.93 34.46 356.77 36.94 351.31"/><line class="cls-8" x1="40.74" y1="342.96" x2="46.44" y2="330.44"/><line class="cls-9" x1="48.34" y1="326.27" x2="50.83" y2="320.81"/><polyline class="cls-9" points="4.19 206.78 1.93 201.22 -2.56 205.2"/><line class="cls-5" x1="-24.9" y1="248.55" x2="22.12" y2="359.05"/><polyline class="cls-9" points="24.59 364.86 26.94 370.38 29.53 364.97"/><line class="cls-10" x1="35.68" y1="352.13" x2="44.91" y2="332.86"/><polyline class="cls-9" points="47.98 326.44 50.57 321.03 48.32 315.47"/><line class="cls-11" x1="43.41" y1="303.39" x2="6.64" y2="212.82"/></g><path class="cls-7" d="M38.15,231.3c-8.62,1.12-18.58,24.15-19.03,31.98-.45,7.83,10.12,70,18.05,76.46,7.93,6.46,45.73,17.92,53.93,15.94,8.2-1.98,75.27-54.71,69.57-69.55-5.38-14-27.42-28.4-42.45-34.68-10.56-4.41-62.54-22.41-80.07-20.14Z"/></svg>