<svg viewBox="0 0 802 600" xmlns="http://www.w3.org/2000/svg" xmlns:xlink="http://www.w3.org/1999/xlink"><clipPath id="a"><path d="m172.97 79.52s-78.15 37.07-81.88 49.66 38.29 135.64 51.67 140.13 126.62-45.09 131.22-50.17-6.09-83.51-14.62-88.89-74.43-47.64-86.39-50.74z"/></clipPath><clipPath id="b"><path d="m524.86 140.39c-11.45 1.48-24.69 32.1-25.3 42.51-.6 10.4 13.45 93.03 24 101.61s60.78 23.81 71.67 21.19c10.9-2.63 100.04-72.72 92.46-92.44-7.15-18.61-36.44-37.75-56.42-46.1-14.03-5.87-83.12-29.79-106.41-26.77z"/></clipPath><clipPath id="c"><path d="m410.44 364.99c37.99 32.57 26.61 52.41 14.51 72.63s-60.11 87.44-95.93 73.48c-28.38-11.06-54.35-55.4-53.79-83.23.36-18.02 49.73-88.04 83.2-84.46 22.41 2.39 31.45 3.96 52.01 21.58z"/></clipPath><g fill="#dcdcf9"><path d="m352.5 255c-27.66 9.22-206.48 17.61-209.74 14.31-3.26-3.31-31.74-46.68 0-47.99 31.74-1.32 69.96-.22 81.74-.32 8.26-.07 39.14-9.22 72 2 13.98 4.77 77 25 56 32z"/><path d="m745.5 290c-20.8 12.48-111.11 16.31-153 16-8.46-.06-45.25-14.79-46-15-25-7-42.48-33.37-10.74-34.68 31.74-1.32 69.96-.22 81.74-.32s167.28 10.43 128 34z"/><path d="m493.5 497c-20.8 12.48-111.11 16.31-153 16-8.46-.06-74.74-54.68-43-56s56.22 6.09 68 6 167.28 10.43 128 34z"/></g><path d="m172.97 79.52s-78.15 37.07-81.88 49.66 38.29 135.64 51.67 140.13 126.62-45.09 131.22-50.17-6.09-83.51-14.62-88.89-74.43-47.64-86.39-50.74z" fill="#7774f1"/><g clip-path="url(#a)"><path d="m259.36 130.25c-2.09 20.01-30.17 54.78-43.18 65.27s-73.42 73.78-73.42 73.78l79.85 17.84 101.56-64.26-64.81-92.64" fill="#5b58d1"/></g><path d="m524.86 140.39c-11.45 1.48-24.69 32.1-25.3 42.51-.6 10.4 13.45 93.03 24 101.61s60.78 23.81 71.67 21.19c10.9-2.63 100.04-72.72 92.46-92.44-7.15-18.61-36.44-37.75-56.42-46.1-14.03-5.87-83.12-29.79-106.41-26.77z" fill="#ff7f7a"/><g clip-path="url(#b)"><path d="m541.72 259.35c25.73-6.97 67.62-8.9 100.04-15.19 32.43-6.3 92.55-50.82 108.76-67.42 16.2-16.61 25.23 7 25.23 7l3.55 100.84-60.3 27.78-199.04-5.21 21.76-47.79" fill="#c75467"/><path d="m476.73 100.42-45.36 40.11 78.6 184.71 31.41-65.59z" fill="#ff9284"/></g><path d="m410.44 364.99c37.99 32.57 26.61 52.41 14.51 72.63s-60.11 87.44-95.93 73.48c-28.38-11.06-54.35-55.4-53.79-83.23.36-18.02 49.73-88.04 83.2-84.46 22.41 2.39 31.45 3.96 52.01 21.58z" fill="#3ae668"/><g clip-path="url(#c)"><path d="m275.23 477.56s43.85 14.4 96.55-6.39 76.83-60.87 76.83-60.87l-12.11 65.12-11.37 87.51-132.31-4.27-17.59-81.11z" fill="#24af69"/></g><path d="m437.72 414.72-27.22 27.22-27.22-27.22-15.56 15.56 27.22 27.22-27.22 27.22 15.56 15.56 27.22-27.22 27.22 27.22 15.56-15.56-27.22-27.22 27.22-27.22z" fill="#ff7f7a"/><path d="m294.72 169.72-27.22 27.22-27.22-27.22-15.56 15.56 27.22 27.22-27.22 27.22 15.56 15.56 27.22-27.22 27.22 27.22 15.56-15.56-27.22-27.22 27.22-27.22z" fill="#ff7f7a"/><path d="m687.54 225.04-41.26 41.26-14.14-14.14-15.56 15.56 29.7 29.7 56.82-56.82z" fill="#3ae668"/></svg>