<?xml version="1.0" encoding="UTF-8"?><svg id="Layer_1" xmlns="http://www.w3.org/2000/svg" xmlns:xlink="http://www.w3.org/1999/xlink" viewBox="0 0 802 600"><defs><style>.cls-1{fill:#ff7f7a;}.cls-2{fill:#dcdcf9;}.cls-3{fill:#3ae668;}.cls-4{fill:#ff9284;}.cls-5{clip-path:url(#clippath-1);}.cls-6{clip-path:url(#clippath-2);}.cls-7{fill:#5b58d1;}.cls-8{fill:#c75467;}.cls-9{fill:#24af69;}.cls-10{clip-path:url(#clippath);}.cls-11{fill:#7774f1;}</style><clipPath id="clippath"><path class="cls-11" d="M172.97,79.52s-78.15,37.07-81.88,49.66c-3.73,12.59,38.29,135.64,51.67,140.13,13.38,4.49,126.62-45.09,131.22-50.17s-6.09-83.51-14.62-88.89-74.43-47.64-86.39-50.74Z"/></clipPath><clipPath id="clippath-1"><path class="cls-1" d="M524.86,140.39c-11.45,1.48-24.69,32.1-25.3,42.51-.6,10.4,13.45,93.03,24,101.61,10.55,8.58,60.78,23.81,71.67,21.19,10.9-2.63,100.04-72.72,92.46-92.44-7.15-18.61-36.44-37.75-56.42-46.1-14.03-5.87-83.12-29.79-106.41-26.77Z"/></clipPath><clipPath id="clippath-2"><path class="cls-3" d="M410.44,364.99c37.99,32.57,26.61,52.41,14.51,72.63-12.1,20.22-60.11,87.44-95.93,73.48-28.38-11.06-54.35-55.4-53.79-83.23.36-18.02,49.73-88.04,83.2-84.46,22.41,2.39,31.45,3.96,52.01,21.58Z"/></clipPath></defs><path class="cls-2" d="M352.5,255c-27.66,9.22-206.48,17.61-209.74,14.31-3.26-3.31-31.74-46.68,0-47.99,31.74-1.32,69.96-.22,81.74-.32,8.26-.07,39.14-9.22,72,2,13.98,4.77,77,25,56,32Z"/><path class="cls-2" d="M745.5,290c-20.8,12.48-111.11,16.31-153,16-8.46-.06-45.25-14.79-46-15-25-7-42.48-33.37-10.74-34.68,31.74-1.32,69.96-.22,81.74-.32s167.28,10.43,128,34Z"/><path class="cls-2" d="M493.5,497c-20.8,12.48-111.11,16.31-153,16-8.46-.06-74.74-54.68-43-56s56.22,6.09,68,6,167.28,10.43,128,34Z"/><path class="cls-11" d="M172.97,79.52s-78.15,37.07-81.88,49.66c-3.73,12.59,38.29,135.64,51.67,140.13,13.38,4.49,126.62-45.09,131.22-50.17s-6.09-83.51-14.62-88.89-74.43-47.64-86.39-50.74Z"/><g class="cls-10"><path class="cls-7" d="M259.36,130.25c-2.09,20.01-30.17,54.78-43.18,65.27-13.01,10.49-73.42,73.78-73.42,73.78l79.85,17.84,101.56-64.26-64.81-92.64"/></g><path class="cls-1" d="M524.86,140.39c-11.45,1.48-24.69,32.1-25.3,42.51-.6,10.4,13.45,93.03,24,101.61,10.55,8.58,60.78,23.81,71.67,21.19,10.9-2.63,100.04-72.72,92.46-92.44-7.15-18.61-36.44-37.75-56.42-46.1-14.03-5.87-83.12-29.79-106.41-26.77Z"/><g class="cls-5"><path class="cls-8" d="M541.72,259.35c25.73-6.97,67.62-8.9,100.04-15.19,32.43-6.3,92.55-50.82,108.76-67.42,16.2-16.61,25.23,7,25.23,7l3.55,100.84-60.3,27.78-199.04-5.21,21.76-47.79"/><polygon class="cls-4" points="476.73 100.42 431.37 140.53 509.97 325.24 541.38 259.65 476.73 100.42"/></g><path class="cls-3" d="M410.44,364.99c37.99,32.57,26.61,52.41,14.51,72.63-12.1,20.22-60.11,87.44-95.93,73.48-28.38-11.06-54.35-55.4-53.79-83.23.36-18.02,49.73-88.04,83.2-84.46,22.41,2.39,31.45,3.96,52.01,21.58Z"/><g class="cls-6"><path class="cls-9" d="M275.23,477.56s43.85,14.4,96.55-6.39c52.7-20.79,76.83-60.87,76.83-60.87l-12.11,65.12-11.37,87.51-132.31-4.27-17.59-81.11Z"/></g><polygon class="cls-1" points="437.72 414.72 410.5 441.94 383.28 414.72 367.72 430.28 394.94 457.5 367.72 484.72 383.28 500.28 410.5 473.06 437.72 500.28 453.28 484.72 426.06 457.5 453.28 430.28 437.72 414.72"/><polygon class="cls-1" points="294.72 169.72 267.5 196.94 240.28 169.72 224.72 185.28 251.94 212.5 224.72 239.72 240.28 255.28 267.5 228.06 294.72 255.28 310.28 239.72 283.06 212.5 310.28 185.28 294.72 169.72"/><polygon class="cls-3" points="687.54 225.04 646.28 266.3 632.14 252.16 616.58 267.72 646.28 297.42 703.1 240.6 687.54 225.04"/></svg>