<svg fill="none" height="155" viewBox="0 0 190 155" width="190" xmlns="http://www.w3.org/2000/svg" xmlns:xlink="http://www.w3.org/1999/xlink"><clipPath id="a"><path d="m0 0h190v155h-190z"/></clipPath><mask id="b" height="57" maskUnits="userSpaceOnUse" width="54" x="114" y="97"><path d="m159.126 104.786c12.432 10.646 8.709 17.133 4.751 23.74-3.957 6.611-19.673 28.584-31.394 24.02-9.287-3.614-17.785-18.107-17.603-27.206.115-5.888 16.273-28.7781 27.229-27.6103 7.334.784 10.292 1.2957 17.022 7.0563z" fill="#fff"/></mask><mask id="c" height="76" maskUnits="userSpaceOnUse" width="73" x="52" y="1"><path d="m84.4566 1.65611s-30.7785 14.58309-32.2451 19.53489c-1.4707 4.9519 15.0794 53.36 20.351 55.1221 5.2674 1.7661 49.8655-17.7358 51.6785-19.733 1.814-1.9973-2.4-32.8512-5.759-34.964-3.359-2.1169-29.3157-18.73854-34.0213-19.95999z" fill="#fff"/></mask><mask id="d" height="53" maskUnits="userSpaceOnUse" width="60" x="1" y="81"><path d="m9.80761 81.822c-3.56121.4621-7.67602 9.9655-7.86193 13.1966-.18591 3.231 4.18091 28.8854 7.45706 31.5514 3.27616 2.666 18.89256 7.395 22.28026 6.578s31.0966-22.577 28.7417-28.7c-2.2227-5.7775-11.3281-11.7196-17.5375-14.3111-4.3627-1.8198-25.8374-9.2475-33.07959-8.3108z" fill="#fff"/></mask><g clip-path="url(#a)"><path d="m186.306 147.937c-6.808 4.081-36.364 5.332-50.071 5.228-2.768-.02-24.458-17.876-14.072-18.305 10.387-.429 18.397 1.993 22.256 1.96 3.854-.029 54.744 3.413 41.892 11.113z" stroke="#dcdcf9" stroke-dasharray="12 12" stroke-miterlimit="10" stroke-width="3"/><g mask="url(#b)"><path d="m114.872 141.582s14.352 4.709 31.596-2.088c17.248-6.796 25.143-19.898 25.143-19.898l-3.962 21.289-3.722 28.605-43.3-1.395-5.76-26.513z" stroke="#3ae668" stroke-dasharray="12 12" stroke-miterlimit="10" stroke-width="3"/></g><path d="m159.126 104.786c12.432 10.646 8.709 17.133 4.751 23.74-3.957 6.611-19.673 28.584-31.394 24.02-9.287-3.614-17.785-18.107-17.603-27.206.115-5.888 16.273-28.7781 27.229-27.6103 7.334.784 10.292 1.2957 17.022 7.0563z" stroke="#3ae668" stroke-dasharray="12 12" stroke-miterlimit="10" stroke-width="3"/><path d="m155.16 70.6845c-10.894 3.6272-81.3168 6.9284-82.6017 5.6286-1.2848-1.2999-12.5014-18.363 0-18.8788 12.5014-.5159 27.5517-.0867 32.1917-.1238 3.255-.0248 15.414-3.6273 28.357.7881 5.503 1.8776 30.324 9.8335 22.053 12.5859z" stroke="#dcdcf9" stroke-dasharray="12 12" stroke-miterlimit="10" stroke-width="3"/><g mask="url(#c)"><path d="m118.482 21.6161c-.822 7.8692-11.881 21.5487-17.008 25.6752-5.1233 4.1265-28.9157 29.0218-28.9157 29.0218l31.4477 7.0192 40-25.2791-25.524-36.4412" stroke="#7774f1" stroke-dasharray="12 12" stroke-miterlimit="10" stroke-width="3"/></g><g stroke-miterlimit="10" stroke-width="3"><path d="m84.4566 1.65611s-30.7785 14.58309-32.2451 19.53489c-1.4707 4.9519 15.0794 53.36 20.351 55.1221 5.2674 1.7661 49.8655-17.7358 51.6785-19.733 1.814-1.9973-2.4-32.8512-5.759-34.964-3.359-2.1169-29.3157-18.73854-34.0213-19.95999z" stroke="#7774f1" stroke-dasharray="12 12"/><path d="m78.3918 128.274c-6.4655 3.875-34.5379 5.063-47.5599 4.968-2.6275-.02-14.0672-4.592-14.2985-4.658-7.77107-2.175-13.20378-10.362-3.3382-10.771 9.8657-.408 21.7474-.07 25.4077-.099 3.6604-.028 51.997 3.24 39.7889 10.556z" stroke="#dcdcf9" stroke-dasharray="12 12"/><g mask="url(#d)" stroke="#ff7f7a"><path d="m15.0461 118.758c.7602-.206 1.5658-.396 2.4086-.577"/><path d="m22.5321 117.281c7.3827-1.114 16.2775-1.816 23.6147-3.239 10.0805-1.956 28.7706-15.78 33.8067-20.934 5.0361-5.1582 7.8413 2.1705 7.8413 2.1705l.9254 26.2615" stroke-dasharray="12.48 12.48"/><path d="m81.9489 129.789-11.7949 5.426-56.8059-1.486" stroke-dasharray="12.52 12.52"/><path d="m10.7619 133.663-2.47882-.066 1.0287-2.253"/><path d="m10.8817 127.903 2.3549-5.167" stroke-dasharray="9.17 9.17"/><path d="m14.0215 121.011 1.0246-2.253"/><path d="m-16.2405 88.9443 19.42555 45.5937" stroke-dasharray="12.64 12.64"/><path d="m8.79126 131.683 3.80904-7.948" stroke-dasharray="14.24 14.24"/><path d="m13.8728 121.082 1.07-2.233-.9337-2.294"/><path d="m11.9847 111.574-15.19088-37.3778" stroke-dasharray="13.03 13.03"/></g><path d="m9.80761 81.822c-3.56121.4621-7.67602 9.9655-7.86193 13.1966-.18591 3.231 4.18091 28.8854 7.45706 31.5514 3.27616 2.666 18.89256 7.395 22.28026 6.578s31.0966-22.577 28.7417-28.7c-2.2227-5.7775-11.3281-11.7196-17.5375-14.3111-4.3627-1.8198-25.8374-9.2475-33.07959-8.3108z" stroke="#ff7f7a" stroke-dasharray="12 12"/></g></g></svg>