<svg xmlns="http://www.w3.org/2000/svg" viewBox="0 0 1400 203" xmlns:v="https://vecta.io/nano"><defs><clipPath id="A"><path d="M36.99 5.19s-32 18.92-33.11 24.45S25.57 86.2 31.47 87.6 83.91 63.36 85.68 61s-5.87-35.51-9.73-37.48S42.23 6.04 36.99 5.18z" fill="#7774f1"/></clipPath><clipPath id="B"><path d="M23.72 86.38c-3.3.43-7.11 9.24-7.28 12.24s3.87 26.78 6.91 29.25 17.49 6.85 20.63 6.1c3.14-.76 28.8-20.93 26.61-26.61C68.53 102 60.1 96.5 54.35 94.09c-4.04-1.69-23.92-8.57-30.63-7.71z" fill="#ff7f7a"/></clipPath><clipPath id="C"><path d="M53.91 138.7c8.89 7.62 6.23 12.27 3.4 17s-14.07 20.47-22.46 17.2c-6.64-2.59-12.72-12.97-12.59-19.48.08-4.22 11.64-20.61 19.48-19.77 5.25.56 7.36.93 12.17 5.05z" fill="#3ae668"/></clipPath></defs><path d="M1066.01 87.47v12.6h-48v-12.6h48zm-33.08 78.68V78.46c0-4.88 1.09-8.96 3.27-12.25a20.45 20.45 0 0 1 8.62-7.39c3.57-1.64 7.41-2.46 11.54-2.46 3.14 0 5.83.26 8.06.77 2.23.52 3.86.96 4.89 1.34L1065.72 71c-.75-.23-1.68-.48-2.78-.74s-2.48-.39-4.12-.39c-3.66 0-6.31.92-7.95 2.75s-2.46 4.48-2.46 7.95v85.58h-15.48zm71.5.99c-5.35 0-10.04-1.13-14.08-3.38s-7.17-5.58-9.4-9.99-3.34-9.85-3.34-16.33V87.47h15.48v48.07c0 5.68 1.49 10.11 4.47 13.3s7.03 4.79 12.14 4.79c3.52 0 6.65-.76 9.4-2.29 2.75-1.52 4.92-3.75 6.51-6.69 1.59-2.93 2.39-6.46 2.39-10.59V87.47h15.48v78.69h-14.78l-.07-19.28h1.48c-2.3 7.13-5.65 12.29-10.06 15.48s-9.62 4.79-15.62 4.79zm73.05-47.58v46.59H1162V87.46h14.78l.14 19.28h-1.62c2.3-7.04 5.63-12.18 9.99-15.41 4.36-3.24 9.64-4.86 15.84-4.86 5.35 0 10.02 1.13 14.01 3.38s7.11 5.57 9.36 9.96 3.38 9.84 3.38 16.36v49.97h-15.48v-48.07c0-5.68-1.48-10.11-4.43-13.3-2.96-3.19-7.01-4.79-12.18-4.79-3.47 0-6.59.76-9.36 2.29s-4.95 3.74-6.55 6.65-2.39 6.45-2.39 10.63zm97.96 48.14c-6.38 0-12.06-1.63-17.03-4.89s-8.87-7.93-11.68-14.01c-2.82-6.08-4.22-13.34-4.22-21.78s1.43-15.83 4.29-21.89c2.86-6.05 6.78-10.67 11.75-13.87 4.97-3.19 10.6-4.79 16.89-4.79 4.88 0 8.81.81 11.79 2.43s5.31 3.51 7 5.67 2.98 4.06 3.87 5.7h.84V61.28h15.48v104.87h-15.06v-12.32h-1.27c-.89 1.69-2.21 3.61-3.94 5.77-1.74 2.16-4.11 4.05-7.11 5.67s-6.87 2.43-11.61 2.43zm3.37-13.16c4.41 0 8.13-1.17 11.16-3.52s5.32-5.59 6.9-9.75c1.57-4.15 2.36-8.95 2.36-14.39s-.77-10.26-2.32-14.32-3.84-7.22-6.86-9.5c-3.03-2.28-6.77-3.41-11.23-3.41s-8.34 1.2-11.37 3.59-5.3 5.64-6.83 9.75-2.29 8.74-2.29 13.9.77 9.9 2.32 14.08 3.85 7.48 6.9 9.92 6.8 3.66 11.26 3.66zm81.41 13.23c-5.68 0-10.73-.82-15.17-2.46s-8.07-4.07-10.91-7.28-4.73-7.14-5.67-11.79l14.57-3.03c1.08 4.08 3.1 7.11 6.05 9.08s6.71 2.96 11.26 2.96c4.97 0 8.94-1.04 11.89-3.13 2.96-2.09 4.43-4.59 4.43-7.5 0-2.53-.9-4.62-2.71-6.26s-4.59-2.86-8.34-3.66l-13.23-3.03c-7.32-1.64-12.76-4.27-16.33-7.88s-5.35-8.23-5.35-13.87c0-4.69 1.31-8.8 3.94-12.32s6.22-6.25 10.77-8.2 9.81-2.92 15.77-2.92 10.53.82 14.57 2.46 7.31 3.94 9.82 6.9 4.3 6.38 5.38 10.28l-13.86 3.03c-.99-2.77-2.7-5.2-5.14-7.29s-5.98-3.13-10.63-3.13c-4.27 0-7.84.96-10.7 2.89-2.86 1.92-4.29 4.36-4.29 7.32 0 2.63.95 4.75 2.85 6.37s5.01 2.92 9.33 3.91l12.67 2.81c7.27 1.64 12.67 4.22 16.19 7.74s5.28 8.02 5.28 13.51c0 4.79-1.37 9.02-4.12 12.7s-6.55 6.57-11.4 8.66c-4.86 2.09-10.5 3.13-16.93 3.13z" fill="#7770f5"/><path d="M21.03 174.54c-3.13 0-5.66 2.53-5.66 5.66s2.53 5.66 5.66 5.66h399.7l3.34-11.32H21.03zm956 0H487.08l-3.34 11.32h493.3c3.13 0 5.66-2.53 5.66-5.66s-2.53-5.66-5.66-5.66z" fill="#00ea55"/><g fill="#1d1d28"><path d="M135.37 166.63c-8.21 0-15.3-1.63-21.25-4.89-5.96-3.26-10.52-7.92-13.69-13.97s-4.75-13.28-4.75-21.68 1.58-15.15 4.75-21.25 7.66-10.85 13.48-14.25 12.67-5.1 20.55-5.1c5.54 0 10.62.87 15.24 2.6 4.62 1.74 8.63 4.3 12.04 7.71 3.4 3.4 6.03 7.59 7.88 12.56s2.78 10.72 2.78 17.24v6.19h-67.99V117.5h56.3l-11.47 3.38c0-3.66-.55-6.8-1.65-9.43s-2.73-4.65-4.89-6.05c-2.16-1.41-4.83-2.11-8.02-2.11s-5.89.72-8.09 2.15c-2.21 1.43-3.88 3.43-5.03 5.98-1.15 2.56-1.72 5.55-1.72 8.97v10.28c0 4.04.67 7.4 2.01 10.1s3.2 4.72 5.6 6.05c2.39 1.34 5.18 2.01 8.38 2.01 2.21 0 4.21-.3 6.02-.92 1.81-.61 3.35-1.52 4.65-2.75 1.29-1.22 2.26-2.7 2.92-4.43l21.89 3.59c-1.31 4.5-3.58 8.43-6.79 11.79s-7.27 5.95-12.18 7.78c-4.9 1.83-10.55 2.74-16.93 2.74z"/><path d="M135.37 166.88c-8.22 0-15.41-1.66-21.38-4.92a33.47 33.47 0 0 1-13.79-14.07c-3.17-6.06-4.78-13.39-4.78-21.79s1.61-15.26 4.78-21.37 7.74-10.94 13.57-14.35 12.79-5.14 20.68-5.14c5.54 0 10.69.88 15.33 2.62 4.63 1.74 8.71 4.35 12.12 7.76s6.08 7.67 7.94 12.65c1.85 4.98 2.8 10.81 2.8 17.33v6.44h-52.55c.14 3.38.79 6.27 1.95 8.61 1.31 2.64 3.16 4.64 5.49 5.95 2.34 1.31 5.12 1.97 8.25 1.97 2.17 0 4.17-.3 5.94-.9 1.76-.6 3.3-1.5 4.55-2.69 1.26-1.19 2.22-2.65 2.86-4.34l.07-.19 22.37 3.67-.08.27c-1.32 4.52-3.62 8.52-6.85 11.89-3.22 3.37-7.35 6-12.27 7.84-4.91 1.83-10.63 2.76-17.01 2.76zm-.92-81.15c-7.8 0-14.67 1.71-20.43 5.07-5.75 3.36-10.25 8.12-13.38 14.15-3.13 6.04-4.72 13.15-4.72 21.14s1.59 15.57 4.72 21.56c3.13 5.98 7.7 10.65 13.59 13.87s13 4.86 21.13 4.86c6.32 0 11.99-.92 16.84-2.73s8.91-4.4 12.08-7.72c3.11-3.24 5.34-7.08 6.65-11.42L149.52 141c-.67 1.68-1.65 3.14-2.91 4.34-1.31 1.24-2.91 2.18-4.74 2.8-1.82.62-3.87.93-6.1.93-3.22 0-6.08-.69-8.5-2.04-2.43-1.36-4.34-3.43-5.7-6.16-1.19-2.41-1.87-5.37-2-8.83h-15.44v-14.79h15.59c.25-2.19.78-4.18 1.57-5.94 1.16-2.59 2.89-4.64 5.12-6.09 2.24-1.45 5.01-2.19 8.23-2.19s5.97.72 8.16 2.15 3.87 3.5 4.99 6.17c.73 1.74 1.22 3.71 1.47 5.9h13.16l-13.46 3.96v-.33a31.42 31.42 0 0 0-.15-3.13h-28.65a28.18 28.18 0 0 0-.12 2.64v10.28l.01.88h52.06v-5.94c0-6.46-.93-12.23-2.76-17.16-1.83-4.92-4.47-9.11-7.82-12.47-3.36-3.36-7.38-5.93-11.95-7.65s-9.67-2.59-15.15-2.59zm-29.8 45.81h14.92l-.01-.88v-10.28a28.18 28.18 0 0 1 .12-2.64h-15.04v13.79zm44.68-13.79a31.32 31.32 0 0 1 .15 2.79l9.49-2.79h-9.63zm-29.09-.5h28.54c-.25-2.12-.73-4.03-1.43-5.71-1.08-2.57-2.69-4.57-4.8-5.94s-4.76-2.07-7.89-2.07-5.8.71-7.96 2.11c-2.15 1.4-3.82 3.37-4.94 5.88-.77 1.7-1.28 3.62-1.52 5.74zm99.65 49.38c-8.21 0-15.27-1.7-21.18-5.1s-10.45-8.14-13.62-14.22-4.75-13.15-4.75-21.22 1.58-15.21 4.75-21.29 7.71-10.81 13.62-14.22c5.91-3.4 12.97-5.1 21.18-5.1 5.02 0 9.62.66 13.79 1.97 4.18 1.31 7.84 3.18 10.98 5.6s5.69 5.35 7.64 8.8 3.23 7.31 3.84 11.58l-22.66 3.8c-.38-2.06-.95-3.89-1.72-5.49-.77-1.59-1.71-2.96-2.81-4.08a10.53 10.53 0 0 0-3.87-2.53c-1.48-.56-3.11-.84-4.89-.84-3.14 0-5.82.86-8.02 2.57-2.21 1.71-3.88 4.2-5.03 7.46s-1.72 7.14-1.72 11.65.57 8.4 1.72 11.68 2.83 5.81 5.03 7.57c2.21 1.76 4.88 2.64 8.02 2.64 1.83 0 3.47-.29 4.93-.88a11.74 11.74 0 0 0 3.91-2.6c1.15-1.15 2.11-2.56 2.89-4.22.77-1.67 1.32-3.55 1.65-5.67l22.66 3.66c-.61 4.41-1.89 8.36-3.84 11.86s-4.49 6.49-7.64 8.97c-3.14 2.49-6.82 4.39-11.01 5.7-4.2 1.31-8.81 1.97-13.83 1.97z"/><path d="M219.89 166.88c-8.22 0-15.39-1.73-21.31-5.14-5.93-3.41-10.54-8.23-13.72-14.32-3.17-6.08-4.78-13.26-4.78-21.34s1.61-15.32 4.78-21.41 7.79-10.91 13.72-14.32c5.92-3.41 13.09-5.14 21.31-5.14 5.02 0 9.68.67 13.87 1.98 4.18 1.32 7.9 3.21 11.06 5.64a29.24 29.24 0 0 1 7.7 8.87c1.95 3.46 3.25 7.39 3.87 11.67l.03.24-23.15 3.88-.04-.24c-.37-2.04-.94-3.86-1.7-5.43-.76-1.56-1.69-2.91-2.77-4.02-1.07-1.1-2.35-1.93-3.78-2.47-1.44-.55-3.06-.83-4.8-.83-3.07 0-5.72.85-7.87 2.52-2.16 1.68-3.82 4.15-4.95 7.35-1.13 3.22-1.71 7.11-1.71 11.56s.58 8.36 1.71 11.6c1.13 3.23 2.79 5.73 4.95 7.45 2.15 1.72 4.8 2.58 7.87 2.58 1.79 0 3.42-.29 4.83-.86 1.42-.57 2.7-1.43 3.82-2.55s2.08-2.52 2.84-4.15 1.31-3.52 1.63-5.6l.04-.25.25.04 22.9 3.7-.03.24c-.61 4.42-1.91 8.44-3.87 11.95-1.95 3.51-4.54 6.55-7.7 9.05-3.15 2.49-6.89 4.43-11.1 5.74s-8.88 1.98-13.9 1.98zm0-81.15c-8.13 0-15.21 1.71-21.06 5.07-5.84 3.36-10.39 8.11-13.52 14.12s-4.72 13.14-4.72 21.17 1.59 15.09 4.72 21.1c3.13 6 7.68 10.75 13.52 14.12 5.84 3.36 12.93 5.07 21.06 5.07 4.97 0 9.6-.66 13.75-1.96s7.83-3.2 10.93-5.66a29.71 29.71 0 0 0 7.57-8.9c1.89-3.39 3.16-7.27 3.77-11.53l-22.17-3.58c-.34 2.03-.89 3.87-1.63 5.48-.78 1.69-1.77 3.13-2.94 4.29-1.17 1.17-2.51 2.06-3.99 2.66s-3.17.9-5.02.9c-3.19 0-5.94-.91-8.18-2.69-2.23-1.78-3.95-4.36-5.11-7.68-1.15-3.29-1.74-7.25-1.74-11.77s.58-8.46 1.74-11.73c1.16-3.29 2.88-5.84 5.11-7.58 2.24-1.74 4.99-2.62 8.18-2.62 1.81 0 3.48.29 4.98.86s2.84 1.44 3.96 2.59c1.12 1.14 2.08 2.54 2.86 4.15.75 1.54 1.32 3.33 1.7 5.31l22.18-3.72c-.62-4.12-1.88-7.91-3.77-11.25a28.79 28.79 0 0 0-7.57-8.72c-3.11-2.39-6.77-4.26-10.9-5.56-4.14-1.3-8.75-1.96-13.72-1.96zm82.98 80.9c-8.21 0-15.27-1.7-21.18-5.1s-10.45-8.14-13.62-14.22-4.75-13.15-4.75-21.22 1.58-15.21 4.75-21.29 7.71-10.81 13.62-14.22c5.91-3.4 12.97-5.1 21.18-5.1s15.27 1.7 21.18 5.1 10.44 8.14 13.58 14.22 4.72 13.17 4.72 21.29-1.57 15.14-4.72 21.22c-3.14 6.08-7.67 10.82-13.58 14.22s-12.97 5.1-21.18 5.1zm0-18.79c3.14 0 5.79-.92 7.95-2.75s3.79-4.39 4.89-7.67 1.65-7.11 1.65-11.47-.55-8.17-1.65-11.44c-1.1-3.26-2.73-5.78-4.89-7.57-2.16-1.78-4.81-2.67-7.95-2.67s-5.8.89-7.95 2.67c-2.16 1.78-3.79 4.31-4.89 7.57s-1.65 7.07-1.65 11.44.55 8.19 1.65 11.47 2.73 5.84 4.89 7.67 4.81 2.75 7.95 2.75z"/><path d="M302.87 166.88c-8.22 0-15.39-1.73-21.31-5.14-5.93-3.41-10.54-8.23-13.72-14.32-3.17-6.08-4.78-13.26-4.78-21.34s1.61-15.32 4.78-21.41c3.18-6.09 7.79-10.91 13.72-14.32 5.92-3.41 13.09-5.14 21.31-5.14s15.39 1.73 21.31 5.14c5.93 3.41 10.53 8.23 13.68 14.32s4.74 13.29 4.74 21.4-1.6 15.25-4.74 21.33c-3.15 6.09-7.75 10.91-13.68 14.32-5.92 3.41-13.09 5.14-21.31 5.14zm0-81.15c-8.13 0-15.21 1.71-21.06 5.07-5.84 3.36-10.39 8.11-13.52 14.12s-4.72 13.14-4.72 21.17 1.59 15.09 4.72 21.1c3.13 6 7.68 10.75 13.52 14.12 5.84 3.36 12.93 5.07 21.06 5.07s15.22-1.71 21.06-5.07 10.38-8.11 13.49-14.11c3.11-6.01 4.69-13.11 4.69-21.1s-1.58-15.16-4.69-21.18c-3.11-6-7.64-10.75-13.49-14.11s-12.93-5.07-21.06-5.07zm0 62.36c-3.19 0-5.92-.94-8.11-2.8-2.19-1.85-3.86-4.47-4.97-7.78-1.11-3.29-1.67-7.18-1.67-11.55s.56-8.24 1.67-11.52c1.11-3.29 2.78-5.87 4.97-7.68s4.92-2.73 8.11-2.73 5.92.92 8.11 2.73 3.86 4.39 4.97 7.68c1.11 3.28 1.67 7.15 1.67 11.52s-.56 8.25-1.67 11.55c-1.11 3.31-2.78 5.93-4.97 7.78-2.19 1.86-4.93 2.8-8.11 2.8zm0-43.57c-3.07 0-5.69.88-7.79 2.62-2.11 1.75-3.73 4.25-4.81 7.45-1.09 3.22-1.64 7.04-1.64 11.36s.55 8.15 1.64 11.39c1.08 3.22 2.7 5.77 4.82 7.56 2.1 1.78 4.72 2.69 7.79 2.69s5.69-.9 7.79-2.69c2.11-1.79 3.73-4.34 4.82-7.56 1.09-3.25 1.64-7.08 1.64-11.39s-.55-8.13-1.64-11.36c-1.08-3.2-2.7-5.71-4.81-7.45-2.1-1.74-4.73-2.62-7.79-2.62zm82.9 62.11c-6.71 0-12.65-.95-17.81-2.85s-9.36-4.65-12.6-8.23c-3.24-3.59-5.33-7.89-6.26-12.92l22.8-3.59c.98 3.43 2.65 6.01 5 7.74 2.35 1.74 5.61 2.6 9.78 2.6 3.42 0 6.12-.6 8.09-1.79 1.97-1.2 2.96-2.78 2.96-4.75 0-1.83-.79-3.3-2.36-4.4s-4-1.98-7.28-2.64l-13.72-2.67c-7.79-1.5-13.62-4.14-17.49-7.92s-5.81-8.69-5.81-14.75c0-5.25 1.42-9.74 4.26-13.44 2.84-3.71 6.85-6.56 12.04-8.55 5.18-1.99 11.3-2.99 18.33-2.99 6.57 0 12.28.88 17.14 2.64s8.77 4.27 11.75 7.53 4.91 7.14 5.81 11.65l-21.68 3.45c-.7-2.63-2.15-4.68-4.33-6.16s-4.94-2.22-8.27-2.22c-2.96 0-5.45.6-7.5 1.79s-3.06 2.8-3.06 4.82c0 1.6.63 2.99 1.9 4.19s3.59 2.12 6.97 2.78l15.06 2.82c7.79 1.5 13.59 3.99 17.42 7.46 3.82 3.47 5.74 8.07 5.74 13.79 0 5.4-1.58 10.09-4.75 14.08s-7.52 7.07-13.06 9.25-11.89 3.27-19.07 3.27z"/><path d="M385.77 166.88c-6.71 0-12.73-.96-17.89-2.87-5.17-1.9-9.45-4.7-12.7-8.3-3.25-3.61-5.38-7.99-6.32-13.04l-.05-.25 23.28-3.66.06.21c.96 3.36 2.62 5.92 4.9 7.61 2.29 1.7 5.53 2.55 9.63 2.55 3.36 0 6.04-.59 7.96-1.76 1.91-1.16 2.84-2.64 2.84-4.54 0-1.76-.74-3.13-2.25-4.19-1.54-1.08-3.96-1.95-7.19-2.6l-13.72-2.67c-7.8-1.5-13.73-4.19-17.62-7.98-3.9-3.81-5.88-8.83-5.88-14.92 0-5.29 1.45-9.86 4.31-13.59 2.85-3.73 6.94-6.63 12.14-8.63 5.19-2 11.39-3.01 18.42-3.01 6.57 0 12.36.89 17.22 2.65 4.87 1.77 8.86 4.32 11.85 7.6 3 3.28 4.97 7.24 5.87 11.77l.05.25-22.16 3.52-.06-.22c-.68-2.56-2.11-4.58-4.23-6.02-2.13-1.44-4.86-2.17-8.13-2.17-2.9 0-5.38.59-7.37 1.76-1.98 1.16-2.94 2.66-2.94 4.6 0 1.52.61 2.86 1.82 4.01 1.23 1.16 3.53 2.07 6.84 2.72l15.06 2.82c7.8 1.5 13.7 4.03 17.54 7.52 3.86 3.51 5.82 8.21 5.82 13.98 0 5.43-1.62 10.22-4.8 14.23-3.18 4-7.61 7.14-13.16 9.33-5.54 2.18-11.99 3.29-19.17 3.29zm-36.38-24.04c.95 4.84 3.02 9.06 6.16 12.54 3.2 3.54 7.4 6.29 12.5 8.17 5.11 1.88 11.07 2.83 17.72 2.83 7.11 0 13.5-1.1 18.98-3.25 5.47-2.16 9.83-5.24 12.95-9.18 3.12-3.92 4.7-8.61 4.7-13.92 0-5.62-1.9-10.2-5.65-13.61-3.77-3.42-9.59-5.91-17.3-7.4l-15.06-2.82c-3.41-.66-5.8-1.62-7.09-2.84-1.31-1.24-1.98-2.71-1.98-4.37 0-2.1 1.07-3.8 3.19-5.04 2.07-1.21 4.64-1.83 7.62-1.83 3.37 0 6.2.76 8.41 2.26 2.16 1.46 3.63 3.51 4.37 6.08l21.2-3.37c-.9-4.33-2.82-8.12-5.69-11.27-2.94-3.22-6.86-5.73-11.65-7.46-4.81-1.74-10.54-2.62-17.05-2.62-6.97 0-13.11 1-18.24 2.97-5.12 1.97-9.13 4.82-11.93 8.47-2.79 3.64-4.21 8.12-4.21 13.29 0 5.96 1.93 10.86 5.73 14.57 3.82 3.72 9.66 6.37 17.36 7.85l13.72 2.67c3.3.66 5.79 1.56 7.38 2.68 1.64 1.15 2.46 2.7 2.46 4.6 0 2.05-1.04 3.72-3.08 4.96-2 1.21-4.77 1.83-8.22 1.83-4.21 0-7.55-.89-9.93-2.65-2.33-1.72-4.02-4.3-5.03-7.66l-22.33 3.52zm80.79 49.9l5.49-17.95 3.1.84c2.96.75 5.55.96 7.78.63s3.94-1.15 5.14-2.46 1.72-3.05 1.58-5.21l-.07-3.31-29.35-78.83h25.9l11.75 38.5c1.59 5.26 2.85 10.53 3.77 15.84.92 5.3 2.01 11 3.27 17.1h-5.07l3.8-17.17a220.63 220.63 0 0 1 4.36-15.77l12.6-38.5h25.62l-33.01 86.99c-1.6 4.22-3.68 7.96-6.26 11.23-2.58 3.26-5.88 5.82-9.89 7.67s-8.97 2.78-14.89 2.78c-3 0-5.9-.22-8.69-.67s-5.1-1.02-6.93-1.72z"/><path d="M445.8 195.38c-3 0-5.94-.23-8.73-.67-2.8-.45-5.15-1.03-6.98-1.74l-.22-.08 5.63-18.4 3.33.91c2.91.74 5.49.95 7.67.63 2.16-.32 3.84-1.12 4.99-2.38 1.14-1.26 1.65-2.95 1.52-5.02l-.07-3.28-29.46-79.12h26.45l.05.18 11.75 38.5c1.59 5.25 2.86 10.59 3.77 15.87l.65 3.65.87-3.73c1.27-5.34 2.73-10.65 4.37-15.78l12.66-38.67h26.16l-.13.34-33.01 86.99c-1.6 4.22-3.72 8.02-6.3 11.29-2.59 3.28-5.95 5.88-9.98 7.74s-9.07 2.8-14.99 2.8zm-15.32-2.79c1.77.66 4.01 1.2 6.66 1.63 2.77.44 5.68.67 8.65.67 5.85 0 10.82-.93 14.78-2.76s7.25-4.39 9.8-7.6c2.55-3.23 4.65-6.98 6.23-11.16l32.88-86.65h-25.07l-12.54 38.33a215.83 215.83 0 0 0-4.36 15.75l-1.13 4.87 2.4 12.2.06.3h-5.68l.06-.3 2.65-12.21-.86-4.8c-.91-5.26-2.17-10.58-3.76-15.81l-11.7-38.32h-25.36l29.24 78.53.07 3.35c.14 2.21-.41 4.02-1.65 5.38-1.23 1.35-3.01 2.21-5.29 2.54-2.25.33-4.9.12-7.88-.64l-2.87-.78-5.35 17.49zm33.29-34.94h4.45l-2.12-10.76-2.33 10.76zm84.17 8.98c-6.71 0-12.65-.95-17.81-2.85s-9.36-4.65-12.6-8.23c-3.24-3.59-5.33-7.89-6.26-12.92l22.8-3.59c.99 3.43 2.65 6.01 5 7.74 2.35 1.74 5.61 2.6 9.78 2.6 3.42 0 6.12-.6 8.09-1.79 1.97-1.2 2.96-2.78 2.96-4.75 0-1.83-.79-3.3-2.36-4.4s-4-1.98-7.28-2.64l-13.72-2.67c-7.79-1.5-13.62-4.14-17.49-7.92s-5.81-8.69-5.81-14.75c0-5.25 1.42-9.74 4.26-13.44 2.84-3.71 6.85-6.56 12.04-8.55 5.18-1.99 11.3-2.99 18.33-2.99 6.57 0 12.28.88 17.14 2.64s8.77 4.27 11.75 7.53 4.91 7.14 5.81 11.65l-21.68 3.45c-.7-2.63-2.15-4.68-4.33-6.16s-4.94-2.22-8.27-2.22c-2.96 0-5.45.6-7.5 1.79s-3.06 2.8-3.06 4.82c0 1.6.63 2.99 1.9 4.19s3.59 2.12 6.97 2.78l15.06 2.82c7.79 1.5 13.59 3.99 17.42 7.46 3.82 3.47 5.74 8.07 5.74 13.79 0 5.4-1.58 10.09-4.75 14.08s-7.52 7.07-13.06 9.25-11.89 3.27-19.07 3.27z"/><path d="M547.94 166.88c-6.71 0-12.73-.96-17.89-2.87-5.17-1.9-9.45-4.7-12.7-8.3-3.25-3.61-5.38-8-6.32-13.04l-.05-.25 23.27-3.66.06.21c.97 3.36 2.62 5.92 4.91 7.61 2.29 1.7 5.53 2.55 9.63 2.55 3.36 0 6.04-.59 7.96-1.76 1.91-1.16 2.84-2.64 2.84-4.54 0-1.76-.74-3.13-2.25-4.19-1.54-1.08-3.96-1.95-7.19-2.6l-13.72-2.67c-7.8-1.5-13.73-4.19-17.62-7.98-3.9-3.81-5.88-8.83-5.88-14.92 0-5.29 1.45-9.86 4.31-13.59 2.85-3.73 6.94-6.63 12.14-8.63 5.19-2 11.39-3.01 18.42-3.01 6.57 0 12.36.89 17.22 2.65 4.87 1.77 8.86 4.32 11.85 7.6 3 3.28 4.97 7.24 5.87 11.77l.05.25-22.16 3.52-.06-.22c-.68-2.56-2.11-4.58-4.23-6.02-2.13-1.44-4.87-2.17-8.13-2.17-2.9 0-5.38.59-7.37 1.76-1.98 1.16-2.94 2.66-2.94 4.6 0 1.52.61 2.86 1.82 4.01 1.23 1.16 3.53 2.07 6.84 2.72l15.06 2.82c7.8 1.5 13.7 4.03 17.54 7.52 3.86 3.51 5.82 8.21 5.82 13.98 0 5.43-1.62 10.22-4.8 14.23-3.18 4-7.61 7.14-13.16 9.33-5.54 2.18-11.99 3.29-19.17 3.29zm-36.37-24.04c.95 4.84 3.02 9.06 6.16 12.54 3.2 3.54 7.4 6.29 12.5 8.17 5.11 1.88 11.07 2.83 17.72 2.83 7.11 0 13.5-1.1 18.98-3.25 5.47-2.16 9.83-5.24 12.95-9.18 3.12-3.92 4.7-8.61 4.7-13.92 0-5.62-1.9-10.2-5.65-13.61-3.77-3.42-9.59-5.91-17.3-7.4l-15.06-2.82c-3.41-.66-5.8-1.62-7.09-2.84-1.31-1.24-1.98-2.71-1.98-4.37 0-2.1 1.07-3.8 3.19-5.04 2.07-1.21 4.64-1.83 7.62-1.83 3.37 0 6.2.76 8.41 2.26 2.16 1.46 3.63 3.51 4.37 6.08l21.2-3.37c-.9-4.33-2.82-8.12-5.69-11.27-2.94-3.22-6.86-5.73-11.65-7.46-4.81-1.74-10.54-2.62-17.05-2.62-6.97 0-13.11 1-18.24 2.97-5.12 1.97-9.13 4.82-11.93 8.47-2.79 3.64-4.21 8.12-4.21 13.29 0 5.96 1.93 10.86 5.73 14.57 3.82 3.72 9.66 6.37 17.36 7.85l13.72 2.67c3.3.66 5.79 1.56 7.38 2.68 1.64 1.15 2.46 2.7 2.46 4.6 0 2.05-1.04 3.72-3.08 4.96-2 1.21-4.77 1.83-8.22 1.83-4.21 0-7.55-.89-9.93-2.65-2.33-1.72-4.02-4.3-5.03-7.66l-22.33 3.52zm126.99-56.37v18.23h-49.12V86.47h49.12zm-38.71-18.72h24.56v73.34c0 2.07.49 3.6 1.48 4.61s2.58 1.51 4.79 1.51c.84 0 2.03-.09 3.55-.28l3.27-.56 3.17 17.88c-2.77.8-5.44 1.34-8.02 1.62s-5.02.42-7.32.42c-8.35 0-14.69-1.96-19-5.88-4.32-3.92-6.48-9.63-6.48-17.14V67.75z"/><path d="M625.33 166.53c-8.38 0-14.83-2-19.17-5.94-4.35-3.95-6.56-9.78-6.56-17.32v-38.32h-10.42V86.22h10.42V67.5h25.06v18.72h14.15v18.73h-14.15v36.14c0 1.99.47 3.48 1.41 4.44.93.95 2.48 1.44 4.61 1.44.84 0 2.02-.09 3.52-.28 1.5-.18 2.59-.37 3.24-.56l.27-.08.05.27 3.21 18.1-.22.06c-2.76.8-5.47 1.34-8.07 1.63-2.58.28-5.05.42-7.35.42zm-25.23-61.59v38.32c0 7.4 2.15 13.1 6.39 16.95 4.25 3.86 10.58 5.81 18.84 5.81 2.28 0 4.73-.14 7.29-.42 2.5-.27 5.11-.79 7.77-1.55l-3.08-17.39c-.68.17-1.71.34-3.04.5-1.52.19-2.73.28-3.58.28-2.27 0-3.94-.53-4.96-1.59-1.03-1.05-1.55-2.66-1.55-4.79v-36.14h-24.06zm24.56-.5h13.65V86.71h-13.65v17.73zm-24.56 0h24.06V86.71H600.1v17.73zm-10.42 0h9.92V86.71h-9.92v17.73zm10.42-18.22h24.06V68H600.1v18.22zm84.67 80.41c-8.21 0-15.3-1.63-21.25-4.89-5.96-3.26-10.52-7.92-13.69-13.97s-4.75-13.28-4.75-21.68 1.58-15.15 4.75-21.25 7.66-10.85 13.48-14.25 12.67-5.1 20.55-5.1c5.54 0 10.62.87 15.24 2.6 4.62 1.74 8.63 4.3 12.04 7.71 3.4 3.4 6.03 7.59 7.88 12.56s2.78 10.72 2.78 17.24v6.19h-67.99V117.5h56.3l-11.47 3.38c0-3.66-.55-6.8-1.65-9.43s-2.73-4.65-4.89-6.05c-2.16-1.41-4.83-2.11-8.02-2.11s-5.89.72-8.09 2.15c-2.21 1.43-3.88 3.43-5.03 5.98-1.15 2.56-1.72 5.55-1.72 8.97v10.28c0 4.04.67 7.4 2.01 10.1s3.2 4.72 5.59 6.05c2.39 1.34 5.18 2.01 8.38 2.01 2.2 0 4.21-.3 6.02-.92 1.81-.61 3.35-1.52 4.65-2.75 1.29-1.22 2.26-2.7 2.92-4.43l21.89 3.59c-1.31 4.5-3.58 8.43-6.79 11.79s-7.27 5.95-12.18 7.78c-4.9 1.83-10.55 2.74-16.93 2.74z"/><path d="M684.77 166.88c-8.22 0-15.41-1.66-21.38-4.92a33.47 33.47 0 0 1-13.79-14.07c-3.17-6.06-4.78-13.39-4.78-21.79s1.61-15.26 4.78-21.37 7.74-10.94 13.57-14.35 12.79-5.14 20.68-5.14c5.54 0 10.7.88 15.33 2.62s8.71 4.35 12.12 7.76 6.08 7.67 7.94 12.65 2.8 10.81 2.8 17.33v6.44h-52.55c.14 3.38.79 6.27 1.95 8.61 1.31 2.64 3.16 4.64 5.49 5.95 2.34 1.31 5.12 1.97 8.25 1.97 2.17 0 4.17-.3 5.94-.9 1.76-.59 3.29-1.5 4.55-2.69s2.22-2.65 2.86-4.34l.07-.19 22.37 3.67-.08.27c-1.32 4.52-3.62 8.52-6.85 11.89-3.22 3.37-7.35 6-12.27 7.84-4.91 1.83-10.63 2.76-17.01 2.76zm-.92-81.15c-7.8 0-14.67 1.71-20.42 5.07s-10.25 8.12-13.38 14.15-4.72 13.15-4.72 21.14 1.59 15.57 4.72 21.56c3.13 5.98 7.7 10.65 13.59 13.87s13 4.86 21.13 4.86c6.32 0 11.99-.92 16.84-2.73s8.91-4.41 12.08-7.72c3.11-3.24 5.34-7.08 6.65-11.42L698.93 141c-.67 1.68-1.65 3.14-2.91 4.34-1.31 1.24-2.91 2.18-4.74 2.8-1.82.62-3.87.93-6.1.93-3.22 0-6.08-.69-8.5-2.04-2.43-1.36-4.34-3.43-5.7-6.16-1.19-2.41-1.87-5.37-2-8.83h-15.44v-14.79h15.59c.25-2.19.78-4.17 1.57-5.94 1.17-2.59 2.89-4.64 5.13-6.09s5-2.19 8.23-2.19 5.97.72 8.16 2.15 3.87 3.5 4.98 6.17c.73 1.73 1.22 3.71 1.47 5.9h13.16l-13.46 3.96v-.33a31.42 31.42 0 0 0-.15-3.13h-28.65a28.18 28.18 0 0 0-.12 2.64v10.28l.01.88h52.06v-5.94c0-6.46-.93-12.23-2.76-17.16-1.83-4.91-4.46-9.11-7.83-12.47-3.36-3.36-7.38-5.93-11.95-7.65s-9.67-2.59-15.15-2.59zm-29.8 45.81h14.92l-.01-.88v-10.28a28.18 28.18 0 0 1 .12-2.64h-15.04v13.79zm44.69-13.79c.09.9.14 1.83.14 2.79l9.49-2.79h-9.63zm-29.1-.5h28.54c-.25-2.12-.73-4.03-1.43-5.71-1.08-2.57-2.69-4.57-4.8-5.94s-4.76-2.07-7.89-2.07-5.8.71-7.96 2.11c-2.15 1.4-3.82 3.38-4.94 5.88-.76 1.7-1.27 3.62-1.52 5.74zm76.58 49.38c-3.75 0-6.91-1.26-9.47-3.76-2.56-2.51-3.83-5.64-3.83-9.4s1.28-6.81 3.83-9.33c2.56-2.51 5.71-3.76 9.47-3.76s6.91 1.25 9.47 3.76 3.84 5.62 3.84 9.33-1.28 6.89-3.84 9.4-5.71 3.76-9.47 3.76z"/><path d="M746.22 166.88c-3.8 0-7.05-1.29-9.64-3.84s-3.91-5.77-3.91-9.58 1.32-6.96 3.91-9.5c2.59-2.55 5.84-3.84 9.64-3.84s7.05 1.29 9.64 3.84c2.6 2.55 3.91 5.75 3.91 9.5s-1.32 7.03-3.91 9.57c-2.59 2.55-5.84 3.84-9.64 3.84zm0-26.25c-3.67 0-6.79 1.24-9.29 3.69s-3.76 5.53-3.76 9.15 1.26 6.77 3.76 9.22 5.62 3.69 9.29 3.69 6.79-1.24 9.29-3.69 3.76-5.55 3.76-9.22-1.27-6.7-3.76-9.15c-2.5-2.45-5.62-3.69-9.29-3.69zm29.61 24.52V86.46h22.59l1.41 20.41h-1.69c1.22-5.11 3.04-9.24 5.46-12.39 2.42-3.14 5.23-5.44 8.45-6.9 3.21-1.45 6.6-2.18 10.17-2.18 5.63 0 10.17 1.81 13.62 5.42s6.11 9.53 7.99 17.74h-2.75c1.27-5.49 3.26-9.95 5.98-13.37s5.91-5.91 9.57-7.46 7.46-2.32 11.4-2.32c4.93 0 9.28 1.07 13.05 3.2 3.78 2.14 6.75 5.19 8.9 9.15 2.16 3.97 3.24 8.74 3.24 14.32v53.07h-24.49v-47.51c0-3.99-1.04-7.01-3.13-9.08-2.09-2.06-4.75-3.1-7.99-3.1-2.3 0-4.3.52-6.02 1.55-1.71 1.03-3.02 2.47-3.91 4.33-.89 1.85-1.34 4.05-1.34 6.58v47.23h-23.58v-47.86c0-3.61-1.01-6.49-3.03-8.62s-4.67-3.2-7.95-3.2c-2.25 0-4.23.52-5.95 1.55s-3.05 2.5-4.01 4.4-1.44 4.23-1.44 7v46.73h-24.56z"/><path d="M893.47 165.4h-24.99v-47.76c0-3.9-1.03-6.89-3.06-8.9s-4.66-3.02-7.81-3.02c-2.24 0-4.22.51-5.89 1.51-1.66 1-2.95 2.42-3.81 4.22-.87 1.81-1.31 3.99-1.31 6.47v47.48h-24.08v-48.11c0-3.53-1-6.37-2.96-8.45-1.96-2.07-4.57-3.12-7.77-3.12-2.19 0-4.15.51-5.82 1.51s-2.98 2.45-3.92 4.3c-.94 1.86-1.42 4.17-1.42 6.89v46.98h-25.06V86.21h23.08l1.02 14.86c1.03-2.6 2.27-4.86 3.72-6.74 2.43-3.16 5.3-5.51 8.54-6.97a24.78 24.78 0 0 1 10.27-2.2c5.67 0 10.32 1.85 13.8 5.5 2.61 2.74 4.8 6.83 6.52 12.2 1.15-3.02 2.6-5.64 4.33-7.82 2.73-3.44 5.99-5.98 9.67-7.54 3.67-1.55 7.54-2.34 11.5-2.34 4.94 0 9.38 1.09 13.18 3.23 3.8 2.15 6.83 5.26 9 9.25s3.27 8.84 3.27 14.44v53.32zm-24.49-.5h23.99v-52.82c0-5.51-1.08-10.29-3.21-14.2-2.13-3.9-5.09-6.95-8.81-9.05s-8.07-3.17-12.93-3.17c-3.89 0-7.69.77-11.3 2.3-3.6 1.53-6.79 4.01-9.47 7.39-1.81 2.28-3.31 5.06-4.48 8.29.47 1.53.9 3.15 1.29 4.87l.07.31h-3.37l.07-.31a43.7 43.7 0 0 1 1.42-4.88c-1.73-5.6-3.94-9.83-6.6-12.62-3.38-3.54-7.91-5.34-13.44-5.34-3.51 0-6.9.73-10.07 2.16-3.16 1.43-5.97 3.73-8.35 6.82-1.6 2.09-2.95 4.64-4.03 7.63l.33 4.85h-2.27l.07-.31c.39-1.63.84-3.17 1.36-4.62l-1.07-15.49h-22.11v78.19h24.06v-46.48c0-2.8.49-5.19 1.47-7.12s2.36-3.45 4.11-4.5 3.79-1.58 6.08-1.58c3.34 0 6.08 1.1 8.13 3.28 2.05 2.17 3.09 5.13 3.09 8.79v47.61h23.08v-46.98c0-2.56.46-4.81 1.36-6.69.91-1.89 2.25-3.38 4-4.43 1.74-1.05 3.81-1.58 6.15-1.58 3.29 0 6.04 1.07 8.16 3.17 2.13 2.11 3.21 5.22 3.21 9.26v47.26zm-27.6-56.58h2.12a67.76 67.76 0 0 0-1.01-3.87c-.41 1.23-.78 2.52-1.1 3.87zm-42.93-1.69h1.1l-.22-3.13c-.32 1-.62 2.05-.89 3.13zm141.74 60c-6.71 0-12.65-.95-17.81-2.85s-9.36-4.65-12.6-8.23c-3.24-3.59-5.33-7.89-6.26-12.92l22.8-3.59c.98 3.43 2.65 6.01 5 7.74 2.35 1.74 5.61 2.6 9.78 2.6 3.42 0 6.12-.6 8.09-1.79 1.97-1.2 2.96-2.78 2.96-4.75 0-1.83-.79-3.3-2.36-4.4s-4-1.98-7.28-2.64l-13.72-2.67c-7.79-1.5-13.62-4.14-17.49-7.92s-5.81-8.69-5.81-14.75c0-5.25 1.42-9.74 4.26-13.44 2.84-3.71 6.85-6.56 12.04-8.55 5.18-1.99 11.3-2.99 18.33-2.99 6.57 0 12.28.88 17.14 2.64s8.77 4.27 11.75 7.53 4.91 7.14 5.81 11.65l-21.68 3.45c-.7-2.63-2.15-4.68-4.33-6.16s-4.94-2.22-8.27-2.22c-2.96 0-5.46.6-7.5 1.79s-3.06 2.8-3.06 4.82c0 1.6.63 2.99 1.9 4.19s3.59 2.12 6.97 2.78l15.06 2.82c7.79 1.5 13.59 3.99 17.42 7.46s5.74 8.07 5.74 13.79c0 5.4-1.58 10.09-4.75 14.08s-7.52 7.07-13.06 9.25-11.89 3.27-19.07 3.27z"/><path d="M940.19 166.88c-6.71 0-12.73-.96-17.89-2.87-5.18-1.91-9.45-4.7-12.7-8.3-3.25-3.61-5.38-7.99-6.32-13.04l-.05-.25 23.28-3.66.06.21c.96 3.36 2.61 5.92 4.9 7.61 2.29 1.7 5.53 2.55 9.63 2.55 3.36 0 6.04-.59 7.96-1.76 1.91-1.16 2.84-2.64 2.84-4.54 0-1.76-.74-3.13-2.25-4.19-1.54-1.08-3.96-1.95-7.19-2.6l-13.72-2.67c-7.8-1.5-13.73-4.19-17.62-7.98-3.9-3.81-5.88-8.83-5.88-14.92 0-5.29 1.45-9.86 4.31-13.59 2.85-3.73 6.94-6.63 12.14-8.63 5.19-2 11.39-3.01 18.42-3.01 6.57 0 12.36.89 17.22 2.65 4.87 1.77 8.86 4.32 11.85 7.6 3 3.28 4.97 7.24 5.87 11.77l.05.25-22.16 3.52-.06-.22c-.68-2.55-2.11-4.58-4.23-6.02-2.13-1.44-4.86-2.17-8.13-2.17-2.9 0-5.38.59-7.37 1.76-1.98 1.16-2.94 2.66-2.94 4.6 0 1.52.61 2.86 1.82 4.01 1.23 1.16 3.53 2.07 6.84 2.72l15.06 2.82c7.8 1.5 13.7 4.03 17.54 7.52 3.86 3.51 5.82 8.21 5.82 13.98 0 5.43-1.62 10.22-4.81 14.23-3.18 4-7.61 7.14-13.16 9.33-5.54 2.18-11.99 3.29-19.17 3.29zm-36.37-24.04c.95 4.85 3.02 9.06 6.16 12.54 3.2 3.54 7.4 6.29 12.5 8.17 5.11 1.88 11.07 2.83 17.72 2.83 7.11 0 13.5-1.1 18.98-3.25 5.47-2.16 9.83-5.24 12.95-9.18 3.12-3.92 4.7-8.61 4.7-13.92 0-5.62-1.9-10.2-5.65-13.61-3.77-3.42-9.59-5.91-17.3-7.4l-15.06-2.82c-3.41-.66-5.8-1.62-7.09-2.84-1.31-1.24-1.98-2.71-1.98-4.37 0-2.1 1.07-3.8 3.19-5.04 2.07-1.21 4.63-1.83 7.62-1.83 3.37 0 6.2.76 8.41 2.26 2.16 1.47 3.63 3.51 4.37 6.08l21.2-3.37c-.9-4.33-2.82-8.12-5.69-11.27-2.94-3.22-6.86-5.73-11.65-7.46-4.81-1.74-10.54-2.62-17.05-2.62-6.97 0-13.11 1-18.24 2.97-5.12 1.97-9.13 4.82-11.93 8.47-2.79 3.65-4.21 8.12-4.21 13.29 0 5.96 1.93 10.86 5.73 14.57 3.82 3.72 9.66 6.37 17.36 7.85l13.73 2.67c3.3.66 5.79 1.56 7.38 2.68 1.63 1.15 2.46 2.7 2.46 4.6 0 2.05-1.04 3.72-3.08 4.96-2 1.21-4.77 1.83-8.22 1.83-4.21 0-7.55-.89-9.93-2.65-2.33-1.73-4.02-4.3-5.03-7.66l-22.33 3.52z"/></g><path d="M36.99 5.19s-32 18.92-33.11 24.45S25.57 86.2 31.47 87.6 83.91 63.36 85.68 61s-5.87-35.51-9.73-37.48S42.23 6.04 36.99 5.18z" fill="#7774f1"/><g clip-path="url(#A)"><path d="M75.95 23.53c-.11 8.65-10.78 24.63-15.94 29.62S31.47 87.6 31.47 87.6l34.87 4.52 40.96-31.47-31.36-37.12" fill="#5b58d1"/></g><path d="M23.72 86.38c-3.3.43-7.11 9.24-7.28 12.24s3.87 26.78 6.91 29.25 17.49 6.85 20.63 6.1c3.14-.76 28.8-20.93 26.61-26.61C68.53 102 60.1 96.5 54.35 94.09c-4.04-1.69-23.92-8.57-30.63-7.71z" fill="#ff7f7a"/><g clip-path="url(#B)"><path d="M28.57 120.63c7.41-2.01 19.46-2.56 28.8-4.37 9.33-1.81 26.64-14.63 31.3-19.41s7.26 2.01 7.26 2.01l1.02 29.03-17.36 8-57.29-1.5 6.26-13.76" fill="#c75467"/><path d="M9.86 74.88L-3.19 86.42l22.62 53.17 9.04-18.88L9.86 74.88z" fill="#ff9284"/></g><path d="M53.91 138.7c8.89 7.62 6.23 12.27 3.4 17s-14.07 20.47-22.46 17.2c-6.64-2.59-12.72-12.97-12.59-19.48.08-4.22 11.64-20.61 19.48-19.77 5.25.56 7.36.93 12.17 5.05z" fill="#3ae668"/><g clip-path="url(#C)"><path d="M22.26,165.05s10.27,3.37,22.6-1.5c12.34-4.87,17.98-14.25,17.98-14.25l-2.83,15.24-2.66,20.48-30.97-1-4.12-18.99Z" fill="#24af69"/></g></svg>