<?xml version="1.0" encoding="UTF-8"?><svg id="Layer_1" xmlns="http://www.w3.org/2000/svg" xmlns:xlink="http://www.w3.org/1999/xlink" viewBox="0 0 696 238"><defs><style>.cls-1,.cls-2{fill:none;}.cls-3{fill:#ff7f7a;}.cls-4{fill:url(#New_Pattern);opacity:.5;}.cls-5{fill:#3ae668;}.cls-6{clip-path:url(#clippath-11);}.cls-7{clip-path:url(#clippath-10);}.cls-8{clip-path:url(#clippath-13);}.cls-9{clip-path:url(#clippath-12);}.cls-10{fill:#ff9284;}.cls-11{clip-path:url(#clippath-1);}.cls-12{clip-path:url(#clippath-3);}.cls-13{clip-path:url(#clippath-4);}.cls-14{clip-path:url(#clippath-2);}.cls-15{clip-path:url(#clippath-7);}.cls-16{clip-path:url(#clippath-6);}.cls-17{clip-path:url(#clippath-9);}.cls-18{clip-path:url(#clippath-8);}.cls-19{clip-path:url(#clippath-5);}.cls-20{fill:#5b58d1;}.cls-21{fill:#c75467;}.cls-2{stroke:#bbf;stroke-width:3px;}.cls-22{fill:#24af69;}.cls-23{clip-path:url(#clippath);}.cls-24{fill:#7774f1;}</style><clipPath id="clippath"><path class="cls-24" d="M669.7,357.54s-20.51,9.73-21.48,13.03,10.05,35.59,13.56,36.77,33.22-11.83,34.43-13.16-1.6-21.91-3.84-23.32-19.53-12.5-22.67-13.31Z"/></clipPath><clipPath id="clippath-1"><path class="cls-3" d="M418.86,364.24c-3,.39-6.48,8.42-6.64,11.15s3.53,24.41,6.3,26.66,15.95,6.25,18.81,5.56,26.25-19.08,24.26-24.26c-1.88-4.88-9.56-9.9-14.8-12.1-3.68-1.54-21.81-7.82-27.92-7.03Z"/></clipPath><clipPath id="clippath-2"><path class="cls-5" d="M220.52,369.38c9.97,8.55,6.98,13.75,3.81,19.06s-15.77,22.94-25.17,19.28c-7.45-2.9-14.26-14.54-14.11-21.84.09-4.73,13.05-23.1,21.83-22.16,5.88.63,8.25,1.04,13.65,5.66Z"/></clipPath><clipPath id="clippath-3"><path class="cls-24" d="M-26.3,357.54s-20.51,9.73-21.48,13.03,10.05,35.59,13.56,36.77S-1.01,395.51.2,394.18s-1.6-21.91-3.84-23.32-19.53-12.5-22.67-13.31Z"/></clipPath><clipPath id="clippath-4"><path class="cls-24" d="M669.7,119.54s-20.51,9.73-21.48,13.03,10.05,35.59,13.56,36.77,33.22-11.83,34.43-13.16-1.6-21.91-3.84-23.32-19.53-12.5-22.67-13.31Z"/></clipPath><clipPath id="clippath-5"><path class="cls-24" d="M316.7,238.54s-20.51,9.73-21.48,13.03,10.05,35.59,13.56,36.77,33.22-11.83,34.43-13.16-1.6-21.91-3.84-23.32-19.53-12.5-22.67-13.31Z"/></clipPath><clipPath id="clippath-6"><path class="cls-3" d="M418.86,126.24c-3,.39-6.48,8.42-6.64,11.15s3.53,24.41,6.3,26.66,15.95,6.25,18.81,5.56,26.25-19.08,24.26-24.26c-1.88-4.88-9.56-9.9-14.8-12.1-3.68-1.54-21.81-7.82-27.92-7.03Z"/></clipPath><clipPath id="clippath-7"><path class="cls-3" d="M81.86,242.24c-3,.39-6.48,8.42-6.64,11.15s3.53,24.41,6.3,26.66,15.95,6.25,18.81,5.56,26.25-19.08,24.26-24.26c-1.88-4.88-9.56-9.9-14.8-12.1-3.68-1.54-21.81-7.82-27.92-7.03Z"/></clipPath><clipPath id="clippath-8"><path class="cls-5" d="M563.52,247.38c9.97,8.55,6.98,13.75,3.81,19.06s-15.77,22.94-25.17,19.28c-7.45-2.9-14.26-14.54-14.11-21.84.09-4.73,13.05-23.1,21.83-22.16,5.88.63,8.25,1.04,13.65,5.66Z"/></clipPath><clipPath id="clippath-9"><path class="cls-5" d="M220.52,131.38c9.97,8.55,6.98,13.75,3.81,19.06s-15.77,22.94-25.17,19.28c-7.45-2.9-14.26-14.54-14.11-21.84.09-4.73,13.05-23.1,21.83-22.16,5.88.63,8.25,1.04,13.65,5.66Z"/></clipPath><clipPath id="clippath-10"><path class="cls-24" d="M-26.3,119.54s-20.51,9.73-21.48,13.03,10.05,35.59,13.56,36.77S-1.01,157.51.2,156.18s-1.6-21.91-3.84-23.32-19.53-12.5-22.67-13.31Z"/></clipPath><clipPath id="clippath-11"><path class="cls-24" d="M316.7.54s-20.51,9.73-21.48,13.03,10.05,35.59,13.56,36.77,33.22-11.83,34.43-13.16-1.6-21.91-3.84-23.32-19.53-12.5-22.67-13.31Z"/></clipPath><clipPath id="clippath-12"><path class="cls-3" d="M81.86,4.24c-3,.39-6.48,8.42-6.64,11.15s3.53,24.41,6.3,26.66,15.95,6.25,18.81,5.56,26.25-19.08,24.26-24.26c-1.88-4.88-9.56-9.9-14.8-12.1-3.68-1.54-21.81-7.82-27.92-7.03Z"/></clipPath><clipPath id="clippath-13"><path class="cls-5" d="M563.52,9.38c9.97,8.55,6.98,13.75,3.81,19.06s-15.77,22.94-25.17,19.28c-7.45-2.9-14.26-14.54-14.11-21.84.09-4.73,13.05-23.1,21.83-22.16,5.88.63,8.25,1.04,13.65,5.66Z"/></clipPath><pattern id="New_Pattern" x="0" y="0" width="696" height="476" patternTransform="translate(-6590.5 748.5)" patternUnits="userSpaceOnUse" viewBox="0 0 696 476"><rect class="cls-1" width="696" height="476"/><path class="cls-24" d="M669.7,357.54s-20.51,9.73-21.48,13.03,10.05,35.59,13.56,36.77,33.22-11.83,34.43-13.16-1.6-21.91-3.84-23.32-19.53-12.5-22.67-13.31Z"/><g class="cls-23"><path class="cls-20" d="M692.37,370.85c-.55,5.25-7.92,14.37-11.33,17.13s-19.26,19.36-19.26,19.36l20.95,4.68,26.65-16.86-17.01-24.31"/></g><path class="cls-3" d="M418.86,364.24c-3,.39-6.48,8.42-6.64,11.15s3.53,24.41,6.3,26.66,15.95,6.25,18.81,5.56,26.25-19.08,24.26-24.26c-1.88-4.88-9.56-9.9-14.8-12.1-3.68-1.54-21.81-7.82-27.92-7.03Z"/><g class="cls-11"><path class="cls-21" d="M423.28,395.46c6.75-1.83,17.74-2.33,26.25-3.99,8.51-1.65,24.29-13.33,28.54-17.69,4.25-4.36,6.62,1.84,6.62,1.84l.93,26.46-15.82,7.29-52.23-1.37,5.71-12.54"/><polygon class="cls-10" points="406.23 353.75 394.32 364.28 414.95 412.75 423.19 395.53 406.23 353.75"/></g><path class="cls-5" d="M220.52,369.38c9.97,8.55,6.98,13.75,3.81,19.06s-15.77,22.94-25.17,19.28c-7.45-2.9-14.26-14.54-14.11-21.84.09-4.73,13.05-23.1,21.83-22.16,5.88.63,8.25,1.04,13.65,5.66Z"/><g class="cls-14"><path class="cls-22" d="M185.04,398.92s11.51,3.78,25.34-1.68c13.83-5.46,20.16-15.97,20.16-15.97l-3.18,17.09-2.98,22.96-34.72-1.12-4.62-21.28Z"/></g><line class="cls-2" x1="411.32" y1="410.05" x2="341.69" y2="479.69"/><line class="cls-2" x1="456.19" y1="411.05" x2="525.82" y2="480.69"/><line class="cls-2" x1="184.32" y1="410.05" x2="114.69" y2="479.69"/><line class="cls-2" x1="2.19" y1="411.05" x2="71.82" y2="480.69"/><line class="cls-2" x1="227.19" y1="409.05" x2="296.82" y2="478.69"/><line class="cls-2" x1="637.32" y1="411.05" x2="567.69" y2="480.69"/><path class="cls-24" d="M-26.3,357.54s-20.51,9.73-21.48,13.03,10.05,35.59,13.56,36.77S-1.01,395.51.2,394.18s-1.6-21.91-3.84-23.32-19.53-12.5-22.67-13.31Z"/><g class="cls-12"><path class="cls-20" d="M-3.63,370.85c-.55,5.25-7.92,14.37-11.33,17.13s-19.26,19.36-19.26,19.36l20.95,4.68,26.65-16.86-17.01-24.31"/></g><line class="cls-2" x1="766.32" y1="286.05" x2="696.69" y2="355.69"/><path class="cls-24" d="M669.7,119.54s-20.51,9.73-21.48,13.03,10.05,35.59,13.56,36.77,33.22-11.83,34.43-13.16-1.6-21.91-3.84-23.32-19.53-12.5-22.67-13.31Z"/><g class="cls-13"><path class="cls-20" d="M692.37,132.85c-.55,5.25-7.92,14.37-11.33,17.13s-19.26,19.36-19.26,19.36l20.95,4.68,26.65-16.86-17.01-24.31"/></g><path class="cls-24" d="M316.7,238.54s-20.51,9.73-21.48,13.03,10.05,35.59,13.56,36.77,33.22-11.83,34.43-13.16-1.6-21.91-3.84-23.32-19.53-12.5-22.67-13.31Z"/><g class="cls-19"><path class="cls-20" d="M339.37,251.85c-.55,5.25-7.92,14.37-11.33,17.13s-19.26,19.36-19.26,19.36l20.95,4.68,26.65-16.86-17.01-24.31"/></g><path class="cls-3" d="M418.86,126.24c-3,.39-6.48,8.42-6.64,11.15s3.53,24.41,6.3,26.66,15.95,6.25,18.81,5.56,26.25-19.08,24.26-24.26c-1.88-4.88-9.56-9.9-14.8-12.1-3.68-1.54-21.81-7.82-27.92-7.03Z"/><g class="cls-16"><path class="cls-21" d="M423.28,157.46c6.75-1.83,17.74-2.33,26.25-3.99,8.51-1.65,24.29-13.33,28.54-17.69,4.25-4.36,6.62,1.84,6.62,1.84l.93,26.46-15.82,7.29-52.23-1.37,5.71-12.54"/><polygon class="cls-10" points="406.23 115.75 394.32 126.28 414.95 174.75 423.19 157.53 406.23 115.75"/></g><path class="cls-3" d="M81.86,242.24c-3,.39-6.48,8.42-6.64,11.15s3.53,24.41,6.3,26.66,15.95,6.25,18.81,5.56,26.25-19.08,24.26-24.26c-1.88-4.88-9.56-9.9-14.8-12.1-3.68-1.54-21.81-7.82-27.92-7.03Z"/><g class="cls-15"><path class="cls-21" d="M86.28,273.46c6.75-1.83,17.74-2.33,26.25-3.99,8.51-1.65,24.29-13.33,28.54-17.69,4.25-4.36,6.62,1.84,6.62,1.84l.93,26.46-15.82,7.29-52.23-1.37,5.71-12.54"/><polygon class="cls-10" points="69.23 231.75 57.32 242.28 77.95 290.75 86.19 273.53 69.23 231.75"/></g><path class="cls-5" d="M563.52,247.38c9.97,8.55,6.98,13.75,3.81,19.06s-15.77,22.94-25.17,19.28c-7.45-2.9-14.26-14.54-14.11-21.84.09-4.73,13.05-23.1,21.83-22.16,5.88.63,8.25,1.04,13.65,5.66Z"/><g class="cls-18"><path class="cls-22" d="M528.04,276.92s11.51,3.78,25.34-1.68c13.83-5.46,20.16-15.97,20.16-15.97l-3.18,17.09-2.98,22.96-34.72-1.12-4.62-21.28Z"/></g><path class="cls-5" d="M220.52,131.38c9.97,8.55,6.98,13.75,3.81,19.06s-15.77,22.94-25.17,19.28c-7.45-2.9-14.26-14.54-14.11-21.84.09-4.73,13.05-23.1,21.83-22.16,5.88.63,8.25,1.04,13.65,5.66Z"/><g class="cls-17"><path class="cls-22" d="M185.04,160.92s11.51,3.78,25.34-1.68c13.83-5.46,20.16-15.97,20.16-15.97l-3.18,17.09-2.98,22.96-34.72-1.12-4.62-21.28Z"/></g><line class="cls-2" x1="411.32" y1="172.05" x2="341.69" y2="241.69"/><line class="cls-2" x1="297.82" y1="285.55" x2="228.19" y2="355.19"/><line class="cls-2" x1="524.82" y1="285.55" x2="455.19" y2="355.19"/><line class="cls-2" x1="342.69" y1="286.55" x2="412.32" y2="356.19"/><line class="cls-2" x1="456.19" y1="173.05" x2="525.82" y2="242.69"/><line class="cls-2" x1="184.32" y1="172.05" x2="114.69" y2="241.69"/><line class="cls-2" x1="70.32" y1="286.05" x2=".69" y2="355.69"/><line class="cls-2" x1="2.19" y1="173.05" x2="71.82" y2="242.69"/><line class="cls-2" x1="113.69" y1="284.55" x2="183.32" y2="354.19"/><line class="cls-2" x1="227.19" y1="171.05" x2="296.82" y2="240.69"/><line class="cls-2" x1="569.69" y1="286.55" x2="639.32" y2="356.19"/><line class="cls-2" x1="637.32" y1="173.05" x2="567.69" y2="242.69"/><path class="cls-24" d="M-26.3,119.54s-20.51,9.73-21.48,13.03,10.05,35.59,13.56,36.77S-1.01,157.51.2,156.18s-1.6-21.91-3.84-23.32-19.53-12.5-22.67-13.31Z"/><g class="cls-7"><path class="cls-20" d="M-3.63,132.85c-.55,5.25-7.92,14.37-11.33,17.13s-19.26,19.36-19.26,19.36l20.95,4.68,26.65-16.86-17.01-24.31"/></g><line class="cls-2" x1="766.32" y1="48.05" x2="696.69" y2="117.69"/><path class="cls-24" d="M316.7.54s-20.51,9.73-21.48,13.03,10.05,35.59,13.56,36.77,33.22-11.83,34.43-13.16-1.6-21.91-3.84-23.32-19.53-12.5-22.67-13.31Z"/><g class="cls-6"><path class="cls-20" d="M339.37,13.85c-.55,5.25-7.92,14.37-11.33,17.13s-19.26,19.36-19.26,19.36l20.95,4.68,26.65-16.86-17.01-24.31"/></g><path class="cls-3" d="M81.86,4.24c-3,.39-6.48,8.42-6.64,11.15s3.53,24.41,6.3,26.66,15.95,6.25,18.81,5.56,26.25-19.08,24.26-24.26c-1.88-4.88-9.56-9.9-14.8-12.1-3.68-1.54-21.81-7.82-27.92-7.03Z"/><g class="cls-9"><path class="cls-21" d="M86.28,35.46c6.75-1.83,17.74-2.33,26.25-3.99,8.51-1.65,24.29-13.33,28.54-17.69,4.25-4.36,6.62,1.84,6.62,1.84l.93,26.46-15.82,7.29-52.23-1.37,5.71-12.54"/><polygon class="cls-10" points="69.23 -6.25 57.32 4.28 77.95 52.75 86.19 35.53 69.23 -6.25"/></g><path class="cls-5" d="M563.52,9.38c9.97,8.55,6.98,13.75,3.81,19.06s-15.77,22.94-25.17,19.28c-7.45-2.9-14.26-14.54-14.11-21.84.09-4.73,13.05-23.1,21.83-22.16,5.88.63,8.25,1.04,13.65,5.66Z"/><g class="cls-8"><path class="cls-22" d="M528.04,38.92s11.51,3.78,25.34-1.68c13.83-5.46,20.16-15.97,20.16-15.97l-3.18,17.09-2.98,22.96-34.72-1.12-4.62-21.28Z"/></g><line class="cls-2" x1="411.32" y1="-65.95" x2="341.69" y2="3.69"/><line class="cls-2" x1="297.82" y1="47.55" x2="228.19" y2="117.19"/><line class="cls-2" x1="524.82" y1="47.55" x2="455.19" y2="117.19"/><line class="cls-2" x1="342.69" y1="48.55" x2="412.32" y2="118.19"/><line class="cls-2" x1="456.19" y1="-64.95" x2="525.82" y2="4.69"/><line class="cls-2" x1="184.32" y1="-65.95" x2="114.69" y2="3.69"/><line class="cls-2" x1="70.32" y1="48.05" x2=".69" y2="117.69"/><line class="cls-2" x1="2.19" y1="-64.95" x2="71.82" y2="4.69"/><line class="cls-2" x1="113.69" y1="46.55" x2="183.32" y2="116.19"/><line class="cls-2" x1="227.19" y1="-66.95" x2="296.82" y2="2.69"/><line class="cls-2" x1="569.69" y1="48.55" x2="639.32" y2="118.19"/><line class="cls-2" x1="637.32" y1="-64.95" x2="567.69" y2="4.69"/></pattern></defs><rect class="cls-4" x="0" y="0" width="696" height="238"/></svg>