<svg viewBox="0 0 696 238" xmlns="http://www.w3.org/2000/svg" xmlns:xlink="http://www.w3.org/1999/xlink"><clipPath id="a"><path d="m669.7 357.54s-20.51 9.73-21.48 13.03 10.05 35.59 13.56 36.77 33.22-11.83 34.43-13.16-1.6-21.91-3.84-23.32-19.53-12.5-22.67-13.31z"/></clipPath><clipPath id="b"><path d="m418.86 364.24c-3 .39-6.48 8.42-6.64 11.15s3.53 24.41 6.3 26.66 15.95 6.25 18.81 5.56 26.25-19.08 24.26-24.26c-1.88-4.88-9.56-9.9-14.8-12.1-3.68-1.54-21.81-7.82-27.92-7.03z"/></clipPath><clipPath id="c"><path d="m220.52 369.38c9.97 8.55 6.98 13.75 3.81 19.06s-15.77 22.94-25.17 19.28c-7.45-2.9-14.26-14.54-14.11-21.84.09-4.73 13.05-23.1 21.83-22.16 5.88.63 8.25 1.04 13.65 5.66z"/></clipPath><clipPath id="d"><path d="m-26.3 357.54s-20.51 9.73-21.48 13.03 10.05 35.59 13.56 36.77 33.21-11.83 34.42-13.16-1.6-21.91-3.84-23.32-19.53-12.5-22.67-13.31z"/></clipPath><clipPath id="e"><path d="m669.7 119.54s-20.51 9.73-21.48 13.03 10.05 35.59 13.56 36.77 33.22-11.83 34.43-13.16-1.6-21.91-3.84-23.32-19.53-12.5-22.67-13.31z"/></clipPath><clipPath id="f"><path d="m316.7 238.54s-20.51 9.73-21.48 13.03 10.05 35.59 13.56 36.77 33.22-11.83 34.43-13.16-1.6-21.91-3.84-23.32-19.53-12.5-22.67-13.31z"/></clipPath><clipPath id="g"><path d="m418.86 126.24c-3 .39-6.48 8.42-6.64 11.15s3.53 24.41 6.3 26.66 15.95 6.25 18.81 5.56 26.25-19.08 24.26-24.26c-1.88-4.88-9.56-9.9-14.8-12.1-3.68-1.54-21.81-7.82-27.92-7.03z"/></clipPath><clipPath id="h"><path d="m81.86 242.24c-3 .39-6.48 8.42-6.64 11.15s3.53 24.41 6.3 26.66 15.95 6.25 18.81 5.56 26.25-19.08 24.26-24.26c-1.88-4.88-9.56-9.9-14.8-12.1-3.68-1.54-21.81-7.82-27.92-7.03z"/></clipPath><clipPath id="i"><path d="m563.52 247.38c9.97 8.55 6.98 13.75 3.81 19.06s-15.77 22.94-25.17 19.28c-7.45-2.9-14.26-14.54-14.11-21.84.09-4.73 13.05-23.1 21.83-22.16 5.88.63 8.25 1.04 13.65 5.66z"/></clipPath><clipPath id="j"><path d="m220.52 131.38c9.97 8.55 6.98 13.75 3.81 19.06s-15.77 22.94-25.17 19.28c-7.45-2.9-14.26-14.54-14.11-21.84.09-4.73 13.05-23.1 21.83-22.16 5.88.63 8.25 1.04 13.65 5.66z"/></clipPath><clipPath id="k"><path d="m-26.3 119.54s-20.51 9.73-21.48 13.03 10.05 35.59 13.56 36.77 33.21-11.83 34.42-13.16-1.6-21.91-3.84-23.32-19.53-12.5-22.67-13.31z"/></clipPath><clipPath id="l"><path d="m316.7.54s-20.51 9.73-21.48 13.03 10.05 35.59 13.56 36.77 33.22-11.83 34.43-13.16-1.6-21.91-3.84-23.32-19.53-12.5-22.67-13.31z"/></clipPath><clipPath id="m"><path d="m81.86 4.24c-3 .39-6.48 8.42-6.64 11.15s3.53 24.41 6.3 26.66 15.95 6.25 18.81 5.56 26.25-19.08 24.26-24.26c-1.88-4.88-9.56-9.9-14.8-12.1-3.68-1.54-21.81-7.82-27.92-7.03z"/></clipPath><clipPath id="n"><path d="m563.52 9.38c9.97 8.55 6.98 13.75 3.81 19.06s-15.77 22.94-25.17 19.28c-7.45-2.9-14.26-14.54-14.11-21.84.09-4.73 13.05-23.1 21.83-22.16 5.88.63 8.25 1.04 13.65 5.66z"/></clipPath><pattern id="o" height="476" patternTransform="translate(-6590.5 748.5)" patternUnits="userSpaceOnUse" viewBox="0 0 696 476" width="696"><path d="m0 0h696v476h-696z" fill="none"/><path d="m669.7 357.54s-20.51 9.73-21.48 13.03 10.05 35.59 13.56 36.77 33.22-11.83 34.43-13.16-1.6-21.91-3.84-23.32-19.53-12.5-22.67-13.31z" fill="#7774f1"/><g clip-path="url(#a)"><path d="m692.37 370.85c-.55 5.25-7.92 14.37-11.33 17.13s-19.26 19.36-19.26 19.36l20.95 4.68 26.65-16.86z" fill="#5b58d1"/></g><path d="m418.86 364.24c-3 .39-6.48 8.42-6.64 11.15s3.53 24.41 6.3 26.66 15.95 6.25 18.81 5.56 26.25-19.08 24.26-24.26c-1.88-4.88-9.56-9.9-14.8-12.1-3.68-1.54-21.81-7.82-27.92-7.03z" fill="#ff7f7a"/><g clip-path="url(#b)"><path d="m423.28 395.46c6.75-1.83 17.74-2.33 26.25-3.99 8.51-1.65 24.29-13.33 28.54-17.69s6.62 1.84 6.62 1.84l.93 26.46-15.82 7.29-52.23-1.37z" fill="#c75467"/><path d="m406.23 353.75-11.91 10.53 20.63 48.47 8.24-17.22z" fill="#ff9284"/></g><path d="m220.52 369.38c9.97 8.55 6.98 13.75 3.81 19.06s-15.77 22.94-25.17 19.28c-7.45-2.9-14.26-14.54-14.11-21.84.09-4.73 13.05-23.1 21.83-22.16 5.88.63 8.25 1.04 13.65 5.66z" fill="#3ae668"/><g clip-path="url(#c)"><path d="m185.04 398.92s11.51 3.78 25.34-1.68 20.16-15.97 20.16-15.97l-3.18 17.09-2.98 22.96-34.72-1.12z" fill="#24af69"/></g><path d="m411.32 410.05-69.63 69.64" fill="none" stroke="#bbf" stroke-width="3"/><path d="m456.19 411.05 69.63 69.64" fill="none" stroke="#bbf" stroke-width="3"/><path d="m184.32 410.05-69.63 69.64" fill="none" stroke="#bbf" stroke-width="3"/><path d="m2.19 411.05 69.63 69.64" fill="none" stroke="#bbf" stroke-width="3"/><path d="m227.19 409.05 69.63 69.64" fill="none" stroke="#bbf" stroke-width="3"/><path d="m637.32 411.05-69.63 69.64" fill="none" stroke="#bbf" stroke-width="3"/><path d="m-26.3 357.54s-20.51 9.73-21.48 13.03 10.05 35.59 13.56 36.77 33.21-11.83 34.42-13.16-1.6-21.91-3.84-23.32-19.53-12.5-22.67-13.31z" fill="#7774f1"/><g clip-path="url(#d)"><path d="m-3.63 370.85c-.55 5.25-7.92 14.37-11.33 17.13s-19.26 19.36-19.26 19.36l20.95 4.68 26.65-16.86-17.01-24.31" fill="#5b58d1"/></g><path d="m766.32 286.05-69.63 69.64" fill="none" stroke="#bbf" stroke-width="3"/><path d="m669.7 119.54s-20.51 9.73-21.48 13.03 10.05 35.59 13.56 36.77 33.22-11.83 34.43-13.16-1.6-21.91-3.84-23.32-19.53-12.5-22.67-13.31z" fill="#7774f1"/><g clip-path="url(#e)"><path d="m692.37 132.85c-.55 5.25-7.92 14.37-11.33 17.13s-19.26 19.36-19.26 19.36l20.95 4.68 26.65-16.86z" fill="#5b58d1"/></g><path d="m316.7 238.54s-20.51 9.73-21.48 13.03 10.05 35.59 13.56 36.77 33.22-11.83 34.43-13.16-1.6-21.91-3.84-23.32-19.53-12.5-22.67-13.31z" fill="#7774f1"/><g clip-path="url(#f)"><path d="m339.37 251.85c-.55 5.25-7.92 14.37-11.33 17.13s-19.26 19.36-19.26 19.36l20.95 4.68 26.65-16.86z" fill="#5b58d1"/></g><path d="m418.86 126.24c-3 .39-6.48 8.42-6.64 11.15s3.53 24.41 6.3 26.66 15.95 6.25 18.81 5.56 26.25-19.08 24.26-24.26c-1.88-4.88-9.56-9.9-14.8-12.1-3.68-1.54-21.81-7.82-27.92-7.03z" fill="#ff7f7a"/><g clip-path="url(#g)"><path d="m423.28 157.46c6.75-1.83 17.74-2.33 26.25-3.99 8.51-1.65 24.29-13.33 28.54-17.69s6.62 1.84 6.62 1.84l.93 26.46-15.82 7.29-52.23-1.37z" fill="#c75467"/><path d="m406.23 115.75-11.91 10.53 20.63 48.47 8.24-17.22z" fill="#ff9284"/></g><path d="m81.86 242.24c-3 .39-6.48 8.42-6.64 11.15s3.53 24.41 6.3 26.66 15.95 6.25 18.81 5.56 26.25-19.08 24.26-24.26c-1.88-4.88-9.56-9.9-14.8-12.1-3.68-1.54-21.81-7.82-27.92-7.03z" fill="#ff7f7a"/><g clip-path="url(#h)"><path d="m86.28 273.46c6.75-1.83 17.74-2.33 26.25-3.99 8.51-1.65 24.29-13.33 28.54-17.69s6.62 1.84 6.62 1.84l.93 26.46-15.82 7.29-52.23-1.37z" fill="#c75467"/><path d="m69.23 231.75-11.91 10.53 20.63 48.47 8.24-17.22z" fill="#ff9284"/></g><path d="m563.52 247.38c9.97 8.55 6.98 13.75 3.81 19.06s-15.77 22.94-25.17 19.28c-7.45-2.9-14.26-14.54-14.11-21.84.09-4.73 13.05-23.1 21.83-22.16 5.88.63 8.25 1.04 13.65 5.66z" fill="#3ae668"/><g clip-path="url(#i)"><path d="m528.04 276.92s11.51 3.78 25.34-1.68 20.16-15.97 20.16-15.97l-3.18 17.09-2.98 22.96-34.72-1.12z" fill="#24af69"/></g><path d="m220.52 131.38c9.97 8.55 6.98 13.75 3.81 19.06s-15.77 22.94-25.17 19.28c-7.45-2.9-14.26-14.54-14.11-21.84.09-4.73 13.05-23.1 21.83-22.16 5.88.63 8.25 1.04 13.65 5.66z" fill="#3ae668"/><g clip-path="url(#j)"><path d="m185.04 160.92s11.51 3.78 25.34-1.68 20.16-15.97 20.16-15.97l-3.18 17.09-2.98 22.96-34.72-1.12z" fill="#24af69"/></g><path d="m411.32 172.05-69.63 69.64" fill="none" stroke="#bbf" stroke-width="3"/><path d="m297.82 285.55-69.63 69.64" fill="none" stroke="#bbf" stroke-width="3"/><path d="m524.82 285.55-69.63 69.64" fill="none" stroke="#bbf" stroke-width="3"/><path d="m342.69 286.55 69.63 69.64" fill="none" stroke="#bbf" stroke-width="3"/><path d="m456.19 173.05 69.63 69.64" fill="none" stroke="#bbf" stroke-width="3"/><path d="m184.32 172.05-69.63 69.64" fill="none" stroke="#bbf" stroke-width="3"/><path d="m70.32 286.05-69.63 69.64" fill="none" stroke="#bbf" stroke-width="3"/><path d="m2.19 173.05 69.63 69.64" fill="none" stroke="#bbf" stroke-width="3"/><path d="m113.69 284.55 69.63 69.64" fill="none" stroke="#bbf" stroke-width="3"/><path d="m227.19 171.05 69.63 69.64" fill="none" stroke="#bbf" stroke-width="3"/><path d="m569.69 286.55 69.63 69.64" fill="none" stroke="#bbf" stroke-width="3"/><path d="m637.32 173.05-69.63 69.64" fill="none" stroke="#bbf" stroke-width="3"/><path d="m-26.3 119.54s-20.51 9.73-21.48 13.03 10.05 35.59 13.56 36.77 33.21-11.83 34.42-13.16-1.6-21.91-3.84-23.32-19.53-12.5-22.67-13.31z" fill="#7774f1"/><g clip-path="url(#k)"><path d="m-3.63 132.85c-.55 5.25-7.92 14.37-11.33 17.13s-19.26 19.36-19.26 19.36l20.95 4.68 26.65-16.86-17.01-24.31" fill="#5b58d1"/></g><path d="m766.32 48.05-69.63 69.64" fill="none" stroke="#bbf" stroke-width="3"/><path d="m316.7.54s-20.51 9.73-21.48 13.03 10.05 35.59 13.56 36.77 33.22-11.83 34.43-13.16-1.6-21.91-3.84-23.32-19.53-12.5-22.67-13.31z" fill="#7774f1"/><g clip-path="url(#l)"><path d="m339.37 13.85c-.55 5.25-7.92 14.37-11.33 17.13s-19.26 19.36-19.26 19.36l20.95 4.68 26.65-16.86z" fill="#5b58d1"/></g><path d="m81.86 4.24c-3 .39-6.48 8.42-6.64 11.15s3.53 24.41 6.3 26.66 15.95 6.25 18.81 5.56 26.25-19.08 24.26-24.26c-1.88-4.88-9.56-9.9-14.8-12.1-3.68-1.54-21.81-7.82-27.92-7.03z" fill="#ff7f7a"/><g clip-path="url(#m)"><path d="m86.28 35.46c6.75-1.83 17.74-2.33 26.25-3.99 8.51-1.65 24.29-13.33 28.54-17.69s6.62 1.84 6.62 1.84l.93 26.46-15.82 7.29-52.23-1.37z" fill="#c75467"/><path d="m69.23-6.25-11.91 10.53 20.63 48.47 8.24-17.22z" fill="#ff9284"/></g><path d="m563.52 9.38c9.97 8.55 6.98 13.75 3.81 19.06s-15.77 22.94-25.17 19.28c-7.45-2.9-14.26-14.54-14.11-21.84.09-4.73 13.05-23.1 21.83-22.16 5.88.63 8.25 1.04 13.65 5.66z" fill="#3ae668"/><g clip-path="url(#n)"><path d="m528.04 38.92s11.51 3.78 25.34-1.68 20.16-15.97 20.16-15.97l-3.18 17.09-2.98 22.96-34.72-1.12z" fill="#24af69"/></g><path d="m411.32-65.95-69.63 69.64" fill="none" stroke="#bbf" stroke-width="3"/><path d="m297.82 47.55-69.63 69.64" fill="none" stroke="#bbf" stroke-width="3"/><path d="m524.82 47.55-69.63 69.64" fill="none" stroke="#bbf" stroke-width="3"/><path d="m342.69 48.55 69.63 69.64" fill="none" stroke="#bbf" stroke-width="3"/><path d="m456.19-64.95 69.63 69.64" fill="none" stroke="#bbf" stroke-width="3"/><path d="m184.32-65.95-69.63 69.64" fill="none" stroke="#bbf" stroke-width="3"/><path d="m70.32 48.05-69.63 69.64" fill="none" stroke="#bbf" stroke-width="3"/><path d="m2.19-64.95 69.63 69.64" fill="none" stroke="#bbf" stroke-width="3"/><path d="m113.69 46.55 69.63 69.64" fill="none" stroke="#bbf" stroke-width="3"/><path d="m227.19-66.95 69.63 69.64" fill="none" stroke="#bbf" stroke-width="3"/><path d="m569.69 48.55 69.63 69.64" fill="none" stroke="#bbf" stroke-width="3"/><path d="m637.32-64.95-69.63 69.64" fill="none" stroke="#bbf" stroke-width="3"/></pattern><path d="m0 0h696v238h-696z" fill="url(#o)" opacity=".5"/></svg>