<?xml version="1.0" encoding="UTF-8"?><svg id="Layer_1" xmlns="http://www.w3.org/2000/svg" viewBox="0 0 256 224"><defs><style>.cls-1{fill:#3ae668;}</style></defs><rect class="cls-1" x="1.37" y="162.91" width="252" height="59" rx="29.5" ry="29.5"/><path d="M55.56,147.42c-2.73,0-5.38-.5-7.95-1.5-16.98-6.62-30.28-30.61-29.97-46.07.19-9.61,12.54-27.07,23.51-36.73,8.5-7.49,16.55-10.89,23.94-10.1,10.9,1.16,17.11,2.22,28.34,11.84h0c23.03,19.74,13.88,35.04,8.41,44.18-.82,1.37-8.29,13.64-19.04,24.15-9.69,9.47-18.81,14.23-27.23,14.24ZM35.63,100.48c.02,8.97,9.46,25.14,18.51,28.67,5.41,2.1,20.98-10.52,32.24-29.35,2.42-4.05,4.01-6.89,3.92-9.35-.13-3.88-4.75-8.62-8.6-11.92h0c-7.5-6.43-9.62-6.66-18.53-7.61-2.09-.22-8.02,2.63-15.77,11.39-6.93,7.84-11.2,15.73-11.77,18.17ZM35.6,100.62s0,0,0,0h0Z"/><path d="M154.66,106.08c-1.75,0-2.74-.33-3.64-.64-3.56-1.2-8.44-2.83-20.15-35.72-11.09-31.14-9.5-36.5-8.9-38.52.92-3.09,2.82-9.53,41.67-27.95l2.95-1.4,3.16.82c3.28.85,10.39,4.23,40.02,23.04l1.45.92c3.32,2.09,5.26,5.75,7.15,13.5,1.06,4.32,2.07,9.87,2.86,15.62,2.52,18.45.95,21.83-1.55,24.59-2.31,2.55-12.86,7.66-31.35,15.21-21.19,8.65-29.53,10.52-33.67,10.52ZM139.77,36.94c1.86,10.1,12.42,40.66,17.92,50.52,3.9-1.02,11.58-3.55,24.37-8.79,10-4.1,18.14-7.8,22.44-9.9-.35-7.36-2.7-22.77-4.61-28.01-19.68-12.49-28.39-17.48-32.21-19.48-11.22,5.49-23.32,12.14-27.91,15.65ZM204.47,71.9h0s0,0,0,0ZM207.61,67.14h0ZM201.59,41.85s.02.01.03.02l-.03-.02ZM199.45,39.72h0s0,0,0,0ZM138.26,38.27s0,0,0,0h0ZM139.49,34.72h0Z"/><path d="M158.38,201.97c-10.42,0-31.46-7.2-36.9-11.63-2.11-1.72-5.64-4.59-10.42-27.75-1.56-7.56-3.95-21.19-3.69-25.54.26-4.55,2.8-10.79,4.89-14.76,4.16-7.9,8.85-12.09,14.34-12.8h0c14.91-1.93,52.22,12.54,52.58,12.69,9.04,3.78,25.6,13.47,30.36,25.85,1.44,3.75.95,7.96-1.44,12.52-4.25,8.09-15.03,18.16-23.32,25.18-5.14,4.35-17.68,14.6-23.19,15.93-.89.21-1.96.31-3.19.31ZM133.51,176.8c4.34,2.47,18.67,6.84,23.71,7.22,2.85-1.7,10.42-7.18,18.67-14.41,10-8.77,14.39-14.31,15.91-16.81-3.07-4.47-11.61-10.69-19.57-14.02-8.51-3.56-33.32-11.36-41.93-11.51-1.91,2.33-4.62,8.32-4.96,10.77.11,5.56,5.1,32.4,8.17,38.75ZM133.86,177.45h0ZM128.91,127.34h0s0,0,0,0c0,0,0,0,0,0ZM130.94,126.62h0Z"/></svg>