<svg fill="none" height="603" viewBox="0 0 2228 603" width="2228" xmlns="http://www.w3.org/2000/svg" xmlns:xlink="http://www.w3.org/1999/xlink"><clipPath id="a"><path d="m0 0h2228v603h-2228z"/></clipPath><g clip-path="url(#a)" fill="#100e0f"><path d="m429.109 258.075h-187.244c-4.825 0-8.722 3.9-8.722 8.728v91.617c0 4.829 3.897 8.79 8.722 8.79h73.054v113.841s-16.392 5.571-61.734 5.571c-53.507 0-128.232-19.562-128.232-183.977s77.817-186.081 150.872-186.081c63.218 0 90.498 11.143 107.818 16.528 5.444 1.672 10.454-3.776 10.454-8.604l20.908-88.5221c0-2.2905-.742-5.0142-3.34-6.8094-7.052-5.0142-49.981-29.0945565-158.48-29.0945565-124.953-.06190325-253.185 53.1749565-253.185 308.9590565 0 255.785 146.789 293.917 270.505 293.917 102.437 0 164.542-43.827 164.542-43.827 2.536-1.424 2.846-5.015 2.846-6.624v-285.684c0-4.828-3.898-8.728-8.722-8.728z"/><path d="m1394.03 30.6421c0-4.8904-3.83-8.7903-8.66-8.7903h-105.4c-4.83 0-8.73 3.9618-8.73 8.7903v203.8479h-164.29v-203.8479c0-4.8904-3.9-8.7903-8.72-8.7903h-105.41c-4.825 0-8.722 3.9618-8.722 8.7903v552.0539c0 4.89 3.897 8.852 8.722 8.852h105.41c4.82 0 8.72-3.962 8.72-8.852v-236.1h164.29l-.31 236.1c0 4.89 3.9 8.852 8.73 8.852h105.65c4.82 0 8.66-3.962 8.72-8.852z"/><path d="m628.044 103.069c0-38.0086-30.434-68.7127-67.982-68.7127s-67.982 30.7041-67.982 68.7127c0 38.009 30.434 68.713 67.982 68.713s67.982-30.766 67.982-68.713z"/><path d="m620.497 466.256v-254.794c0-4.829-3.897-8.791-8.722-8.791h-105.096c-4.825 0-9.155 4.953-9.155 9.843v365.106c0 10.709 6.68 13.928 15.34 13.928h94.705c10.392 0 12.928-5.076 12.928-14.114v-111.116z"/><path d="m1794.62 203.476h-104.6c-4.82 0-8.72 3.962-8.72 8.852v270.703s-26.6 19.438-64.27 19.438-47.76-17.147-47.76-54.103v-236.038c0-4.89-3.89-8.852-8.72-8.852h-106.15c-4.76 0-8.72 3.962-8.72 8.852v253.928c0 109.754 61.12 136.62 145.24 136.62 68.98 0 124.65-38.132 124.65-38.132s2.66 20.118 3.83 22.471c1.18 2.352 4.33 4.766 7.67 4.766l67.55-.309c4.77 0 8.73-3.962 8.73-8.791v-370.553c0-4.89-3.96-8.852-8.79-8.852z"/><path d="m2080.59 191.033c-59.44 0-99.84 26.557-99.84 26.557v-186.9479c0-4.8904-3.89-8.7903-8.72-8.7903h-105.71c-4.83 0-8.73 3.9618-8.73 8.7903v552.0539c0 4.89 3.9 8.852 8.73 8.852h73.36c3.28 0 5.81-1.733 7.67-4.705 1.79-2.971 4.45-25.442 4.45-25.442s43.24 40.98 125.08 40.98c96.07 0 151.18-48.78 151.18-218.952s-88.02-192.396-147.47-192.396zm-41.26 311.065c-36.31-1.115-60.86-17.581-60.86-17.581v-174.815s24.24-14.919 54.06-17.58c37.67-3.405 73.98 7.985 73.98 97.931 0 94.835-16.39 113.53-67.11 112.045z"/><path d="m923.477 202.548h-79.054s-.124-104.4932-.124-104.5551c0-3.9618-2.041-5.9427-6.619-5.9427h-107.756c-4.206 0-6.433 1.8571-6.433 5.8808v108.021s-54.002 13.062-57.652 14.114c-3.65 1.053-6.309 4.395-6.309 8.419v67.908c0 4.89 3.897 8.79 8.721 8.79h55.24v163.301c0 121.331 85.054 133.216 142.397 133.216 26.227 0 57.589-8.419 62.786-10.338 3.154-1.176 4.948-4.395 4.948-7.923v-74.656c.062-4.89-4.021-8.79-8.66-8.79s-16.392 1.857-28.516 1.857c-38.847 0-52.023-18.076-52.023-41.475 0-23.4 0-155.192 0-155.192h79.054c4.825 0 8.722-3.962 8.722-8.79v-85.055c0-4.891-3.897-8.79-8.722-8.79z"/></g></svg>