<svg viewBox="0 0 256 224" xmlns="http://www.w3.org/2000/svg"><rect fill="#3ae668" height="59" rx="29.5" width="252" x="2" y="162.91"/><path d="m90.55 143.83c-39.38 0-71.42-32.04-71.42-71.42s32.04-71.42 71.42-71.42 71.42 32.04 71.42 71.42-32.04 71.42-71.42 71.42zm0-124.84c-29.46 0-53.42 23.96-53.42 53.42s23.96 53.42 53.42 53.42 53.42-23.96 53.42-53.42-23.96-53.42-53.42-53.42z"/><path d="m165.63 143.83c-39.38 0-71.42-32.04-71.42-71.42s32.03-71.42 71.42-71.42 71.42 32.04 71.42 71.42-32.04 71.42-71.42 71.42zm0-124.84c-29.46 0-53.42 23.96-53.42 53.42s23.96 53.42 53.42 53.42 53.42-23.96 53.42-53.42-23.96-53.42-53.42-53.42z"/><path d="m127.46 206.25c-39.38 0-71.42-32.04-71.42-71.42s32.04-71.42 71.42-71.42 71.42 32.04 71.42 71.42-32.04 71.42-71.42 71.42zm0-124.84c-29.46 0-53.42 23.96-53.42 53.42s23.96 53.42 53.42 53.42 53.42-23.96 53.42-53.42-23.96-53.42-53.42-53.42z"/></svg>