<?xml version="1.0" encoding="UTF-8"?><svg id="Layer_1" xmlns="http://www.w3.org/2000/svg" viewBox="0 0 256 224"><defs><style>.cls-1{fill:#3ae668;}</style></defs><rect class="cls-1" x="2" y="162.91" width="252" height="59" rx="29.5" ry="29.5"/><path d="M90.55,143.83c-39.38,0-71.42-32.04-71.42-71.42S51.17.99,90.55.99s71.42,32.04,71.42,71.42-32.04,71.42-71.42,71.42ZM90.55,18.99c-29.46,0-53.42,23.96-53.42,53.42s23.96,53.42,53.42,53.42,53.42-23.96,53.42-53.42-23.96-53.42-53.42-53.42Z"/><path d="M165.63,143.83c-39.38,0-71.42-32.04-71.42-71.42S126.24.99,165.63.99s71.42,32.04,71.42,71.42-32.04,71.42-71.42,71.42ZM165.63,18.99c-29.46,0-53.42,23.96-53.42,53.42s23.96,53.42,53.42,53.42,53.42-23.96,53.42-53.42-23.96-53.42-53.42-53.42Z"/><path d="M127.46,206.25c-39.38,0-71.42-32.04-71.42-71.42S88.08,63.41,127.46,63.41s71.42,32.04,71.42,71.42-32.04,71.42-71.42,71.42ZM127.46,81.41c-29.46,0-53.42,23.96-53.42,53.42s23.96,53.42,53.42,53.42,53.42-23.96,53.42-53.42-23.96-53.42-53.42-53.42Z"/></svg>