<svg viewBox="0 0 802 600" xmlns="http://www.w3.org/2000/svg" xmlns:xlink="http://www.w3.org/1999/xlink"><clipPath id="a"><path d="m353.68 22s-86.81 76.47-86.96 94.03 99.23 160.28 118.08 161.11c18.85.84 146.17-104.64 150.22-112.86 4.05-8.23-38.62-105.12-51.56-108.89-12.95-3.77-113.26-33.81-129.77-33.39z"/></clipPath><clipPath id="b"><path d="m339.21 267.8c-10.26 1.33-22.12 28.75-22.66 38.07s12.05 83.33 21.49 91.02c9.45 7.68 54.44 21.33 64.2 18.98s89.6-65.13 82.82-82.8c-6.4-16.67-32.64-33.81-50.54-41.29-12.57-5.25-74.45-26.68-95.31-23.98z"/></clipPath><clipPath id="c"><path d="m440.76 430.6c27.67 23.72 19.38 38.18 10.57 52.9-8.81 14.73-43.79 63.69-69.88 53.53-20.67-8.05-39.59-40.35-39.18-60.63.26-13.13 36.22-64.13 60.61-61.52 16.32 1.74 22.91 2.89 37.88 15.72z"/></clipPath><linearGradient id="d" gradientUnits="userSpaceOnUse" x1="401" x2="401" y1="94" y2="578"><stop offset="0" stop-color="#bab8ff"/><stop offset="1" stop-color="#5b58d1"/></linearGradient><path d="m353.68 22s-86.81 76.47-86.96 94.03 99.23 160.28 118.08 161.11c18.85.84 146.17-104.64 150.22-112.86 4.05-8.23-38.62-105.12-51.56-108.89-12.95-3.77-113.26-33.81-129.77-33.39z" fill="#e7eff8"/><g clip-path="url(#a)"><path d="m483.45 55.39c4.69 26.5-18.6 81.55-31.46 99.83s-67.19 121.92-67.19 121.92l109.24-6.49 106.89-120.05-117.47-95.21" fill="#bacee8"/></g><path d="m339.21 267.8c-10.26 1.33-22.12 28.75-22.66 38.07s12.05 83.33 21.49 91.02c9.45 7.68 54.44 21.33 64.2 18.98s89.6-65.13 82.82-82.8c-6.4-16.67-32.64-33.81-50.54-41.29-12.57-5.25-74.45-26.68-95.31-23.98z" fill="#e7eff8"/><g clip-path="url(#b)"><path d="m362.08 374.36c23.05-6.25 60.56-7.97 89.61-13.61s82.9-45.52 97.41-60.39 22.59 6.27 22.59 6.27l3.18 90.33-54.01 24.88-178.28-4.66 19.49-42.81" fill="#bacee8"/><path d="m304.35 231.64-40.63 35.93 70.41 165.45 28.13-58.76z" fill="#fafdff"/></g><path d="m440.76 430.6c27.67 23.72 19.38 38.18 10.57 52.9-8.81 14.73-43.79 63.69-69.88 53.53-20.67-8.05-39.59-40.35-39.18-60.63.26-13.13 36.22-64.13 60.61-61.52 16.32 1.74 22.91 2.89 37.88 15.72z" fill="#e7eff8"/><g clip-path="url(#c)"><path d="m342.26 512.6s31.94 10.49 70.33-4.65c38.39-15.15 55.96-44.34 55.96-44.34l-8.82 47.44-8.28 63.74-96.38-3.11-12.82-59.08z" fill="#bacee8"/></g><path d="m629.89 129.44c-15.8 0-28.61-9.75-28.61-35.44 0 25.69-12.81 35.44-28.61 35.44s-28.61-9.75-28.61-35.44c0 25.69-12.81 35.44-28.61 35.44s-28.61-9.75-28.61-35.44c0 25.69-12.81 35.44-28.61 35.44s-28.61-9.75-28.61-35.44c0 25.69-12.81 35.44-28.61 35.44s-28.61-9.75-28.61-35.44c0 25.69-12.81 35.44-28.61 35.44s-28.61-9.75-28.61-35.44c0 25.69-12.81 35.44-28.61 35.44s-28.61-9.75-28.61-35.44c0 25.69-12.81 35.44-28.61 35.44s-28.61-9.75-28.61-35.44c0 25.69-12.81 35.44-28.61 35.44s-28.61-9.75-28.61-35.44v209.24c0 176.04 115.02 274.76 256.9 274.76h1.2c141.88 0 256.9-98.71 256.9-274.76v-209.24c0 25.69-12.81 35.44-28.61 35.44z" fill="url(#d)" opacity=".27"/></svg>