<svg fill="none" height="636" viewBox="0 0 2324 636" width="2324" xmlns="http://www.w3.org/2000/svg" xmlns:xlink="http://www.w3.org/1999/xlink"><clipPath id="a"><path d="m0 0h2324v636h-2324z"/></clipPath><mask id="b" height="634" maskUnits="userSpaceOnUse" width="2323" x="-1" y="0"><path d="m2321.41.94397h-2321.4285547v632.24103h2321.4285547z" fill="#fff"/></mask><mask id="c" height="633" maskUnits="userSpaceOnUse" width="2323" x="-1" y="0"><path d="m2321.41.94397h-2321.4285547v631.48303h2321.4285547z" fill="#fff"/></mask><g clip-path="url(#a)"><g mask="url(#b)"><g mask="url(#c)"><g fill="#fff"><path d="m1089.41 628.434c-39.67 0-81.4-21.145-117.61-57.095-1.376 2.396-2.834 4.713-4.333 6.952-15.26 22.864-44.66 50.143-98.209 50.143-36.652 0-86.048-14.218-113.313-81.956-18.277-45.395-26.785-114.971-26.785-218.976 0-91.244 10.527-163.996 31.279-216.219 12.004-30.2345 27.765-54.1591 46.82-71.1138 22.371-19.8905 49.636-30.41499 78.815-30.41499 38.509 0 71.546 17.37429 93.02 48.92729 3.275 4.8329 6.269 9.9653 8.965 15.3972 42.711-42.7765 86.151-64.34445 129.851-64.34445 57.56 0 94.74 39.76115 94.74 101.30975 0 34.748-16.1 75.088-47.88 119.863-18.32 25.8-41.11 52.221-67.03 77.724 47.63 71.933 91.5 161.32 91.5 217.735 0 27.282-10.23 52.844-28.83 71.975-18.83 19.391-44.06 30.074-71.04 30.074z"/><path d="m1164.73 111.046c0-29.2564-11.7-53.3806-46.8-53.3806-38.03 0-94.33 27.0599-163.084 138.1936 2.195-13.159 2.916-25.601 2.916-37.283 0-59.9714-24.868-100.9106-71.666-100.9106-70.948 0-108.976 100.1716-108.976 269.8216 0 198.904 31.437 253.002 92.157 253.002 51.194 0 77.517-35.11 80.455-125.034 36.573 79.701 95.808 125.034 139.698 125.034 28.52 0 51.93-23.407 51.93-54.12 0-45.333-46.08-142.587-106.78-224.487 69.49-60.69 130.19-138.933 130.19-190.856z"/><path d="m2188.64 261.717c-72 0-130.58-59.453-130.58-132.543 0-34.9685 13.32-67.3604 37.48-91.2051 24.22-23.8845 57.27-37.02493 93.1-37.02493 35.84 0 69.45 13.04063 94.04 36.70533 24.98 24.0446 38.73 56.7958 38.73 92.2437 0 72.692-59.56 131.824-132.77 131.824z"/><path d="m2188.64 213.791c46.81 0 84.83-38.005 84.83-83.896 0-45.892-35.82-81.02-84.83-81.02-48.99 0-82.65 35.128-82.65 80.301s36.57 84.615 82.65 84.615z"/><path d="m2179.14 632.417c-47.15 0-85.77-23.444-108.68-65.98-18.67-34.691-27.76-82.74-27.76-146.863 0-64.125 9.12-112.094 27.9-146.783 23.31-43.076 62.9-66.8 111.45-66.8 48.56 0 83.7 20.949 105.97 60.57 18.79 33.43 27.54 80.22 27.54 147.261s-8.89 116.227-27.18 151.314c-22.61 43.378-61.42 67.281-109.24 67.281z"/><path d="m2182.05 253.941c-62.89 0-91.41 55.937-91.41 165.633 0 109.698 29.25 164.916 88.5 164.916 59.24 0 88.5-53.78 88.5-170.646 0-116.867-28.52-159.903-85.56-159.903z"/><path d="m1882.21 632.427c-48.22 0-82.11-21.867-100.71-64.983-11.92-27.641-18.14-64.686-20.31-123.557-15.5-6.571-28.35-15.078-38.82-25.682-19.91-20.17-29.99-46.491-29.99-78.225 0-33.69 9.67-61.288 28.74-82.018 10.35-11.242 23.21-20.25 38.84-27.139 2.78-67.76 24.22-124.715 62.43-165.3748 39.09-41.5983 94.85-64.50423 157.09-64.50423 44.58 0 83.29 11.98223 111.93 34.62863 30.42 24.0644 47.18 58.0737 47.18 95.7574 0 49.967-26.26 89.667-68.67 109.917 26.42 17.195 46.72 45.412 46.72 92.282 0 42.177-14.6 74.55-43.4 96.259-16.76 12.619-37.68 21.306-65.35 26.86-3.62 51.044-11.33 86.691-24.11 112.871-20.14 41.161-55.24 62.908-101.57 62.908z"/><path d="m2090.63 131.332c0-45.1723-40.23-82.457-111.17-82.457-96.54 0-171.87 65.962-171.87 197.188v20.07c-46.81 9.326-67.3 30.834-67.3 73.85 0 37.285 20.48 58.792 68.01 68.118 1.46 139.114 19.76 176.399 73.86 176.399 54.11 0 76.06-39.442 79.72-169.929 77.52-6.448 106.78-27.959 106.78-81.017 0-47.331-29.26-66.683-106.78-72.414-.74-25.822-.74-44.454-1.45-58.074 11.7 2.875 27.06 5.013 40.22 5.013 55.58 0 89.96-30.835 89.96-76.726z"/><path d="m1318.31 628.434c-64.66 0-123.92-27.297-166.86-76.865-41.2-47.548-63.92-112.074-63.92-181.65s22.63-131.565 63.72-176.359c42.11-45.911 101.45-71.213 167.06-71.213 65.62 0 125.07 24.943 166.94 70.235 41.76 45.193 63.84 106.502 63.84 177.318 0 70.813-22.69 134.099-63.93 181.651-42.95 49.563-102.21 76.864-166.85 76.864z"/><path d="m1318.32 170.278c-107.53 0-182.85 81.898-182.85 199.622 0 117.726 78.26 210.589 182.85 210.589 104.58 0 182.83-90.665 182.83-210.589 0-119.921-75.32-199.622-182.83-199.622zm-8.03 244.237c-22.67 0-39.49-20.469-39.49-45.333 0-22.666 16.82-40.959 39.49-40.959s38.76 18.271 38.76 40.959c0 24.864-16.82 45.333-38.76 45.333z"/><path d="m1611.41 452.93c-41.75 0-71.77-7.847-94.5-24.704-27.82-20.648-41.94-52.58-41.94-94.877 0-49.547 22.27-76.867 40.95-91.066 24.26-18.452 56.7-27.059 102.05-27.059 45.37 0 78.88 7.988 103.37 25.123 20.42 14.298 44.77 42.416 44.77 95.2 0 52.781-25.85 81.118-47.54 94.757-24.87 15.658-57.93 22.626-107.18 22.626z"/><path d="m1617.97 263.157c-68.01 0-95.07 22.666-95.07 70.195 0 54.838 30.73 71.654 88.51 71.654 75.32 0 106.77-17.553 106.77-69.475 0-51.925-31.43-72.395-100.18-72.395z"/><path d="m303.083 623.201c-110.355 0-200.117-49.343-252.7279-138.95-46.57864-78.546-50.3736547-163.619-50.3736547-258.678 0-56.356 16.9576547-105.423 49.0157547-141.9088 29.461-33.5102 71.2058-55.2181 117.5648-61.1292 55.028-6.9696 123.438-7.5488 194.565-7.5488 115.746 0 148.443 1.4179 193.985 5.9711 60.581 6.0111 111.555 28.6176 147.385 65.3828 36.393 37.3449 55.628 87.2109 55.628 144.2659v11.463c0 97.357-65.094 178.834-155.815 200.981-6.771 15.978-15.16 31.872-25.086 47.53l-.261.399c-31.957 49.388-107.081 132.244-250.97 132.244h-22.93z"/><path d="m550.36 68.6304c-43.004-4.2937-73.106-5.7316-189.214-5.7316-74.541 0-137.617.7188-188.49 7.1692-67.372 8.6074-124.7168 60.191-124.7168 155.509 0 95.32 5.0133 169.127 43.7224 234.333 43.7234 74.528 116.8264 115.368 211.4424 115.368h22.93c116.105 0 179.184-61.629 210.722-110.356 13.623-21.507 23.649-42.996 30.102-64.503 82.429-7.17 143.351-75.25 143.351-158.366v-11.463c0-89.567-58.762-151.9146-159.83-161.9596z"/><path d="m2150.98 184.726h-108.28v76.706h108.28z"/></g><path d="m2105.99 129.176c0 46.61 36.57 84.615 82.65 84.615s84.83-38.005 84.83-83.896c0-45.892-35.82-81.02-84.83-81.02-48.99 0-82.65 35.128-82.65 80.301zm-15.36 290.408c0 111.136 29.26 164.916 88.51 164.916 59.24 0 88.5-53.78 88.5-170.647s-28.52-159.902-85.56-159.902c-62.9 0-91.42 55.937-91.42 165.633m-350.35-79.601c0 37.285 20.48 58.792 68.02 68.118 1.45 139.114 19.75 176.399 73.86 176.399s76.06-39.442 79.71-169.929c77.52-6.448 106.78-27.959 106.78-81.017 0-47.331-29.26-66.683-106.78-72.414-.73-25.822-.73-44.454-1.46-58.074 11.7 2.875 27.07 5.013 40.22 5.013 55.6 0 89.97-30.835 89.97-76.726 0-45.8923-40.22-82.4582-111.17-82.4582-96.54 0-171.87 65.9622-171.87 197.1872v20.071c-46.8 9.325-67.3 30.833-67.3 73.849m-217.39-6.65c0 54.838 30.72 71.654 88.5 71.654 75.33 0 106.78-17.553 106.78-69.478 0-51.921-31.45-72.391-100.19-72.391-68.72 0-95.07 22.666-95.07 70.196m-252.15 35.846c0-22.666 16.82-40.959 39.49-40.959s38.77 18.274 38.77 40.959c0 24.864-16.81 45.332-38.77 45.332s-39.49-20.468-39.49-45.332zm-135.3.74c0 119.921 78.26 210.585 182.84 210.585 104.59 0 182.84-90.664 182.84-210.585 0-119.923-75.33-199.625-182.84-199.625-107.52 0-182.84 81.899-182.84 199.625zm-249.393-312.2571c-70.948 0-108.976 100.1711-108.976 269.8181 0 198.904 31.456 253.005 92.157 253.005 51.194 0 77.52-35.106 80.455-125.033 36.573 79.701 95.817 125.033 139.697 125.033 28.52 0 51.93-23.406 51.93-54.119 0-45.333-46.08-142.587-106.78-224.487 69.49-60.689 130.19-138.933 130.19-190.856 0-29.2567-11.71-53.381-46.8-53.381-38.03 0-94.34 27.0599-163.085 138.195 2.198-13.16 2.916-25.602 2.916-37.284 0-59.9718-24.865-100.911-71.666-100.911" fill="#202020"/><path d="m47.9222 225.577c0-95.318 57.3448-146.9016 124.7158-155.509 50.894-6.4504 113.971-7.1692 188.492-7.1692 116.109 0 146.207 1.4379 189.211 5.7316 101.069 10.0251 159.83 72.3726 159.83 161.9596v11.463c0 83.135-60.919 151.215-143.351 158.366-6.453 21.507-16.479 42.996-30.099 64.503-31.541 48.727-94.616 110.356-210.725 110.356h-22.929c-94.615 0-167.72-40.84-211.4423-115.368-38.7091-65.206-43.7224-137.597-43.7224-234.333" fill="#202020"/><path d="m101.667 226.29c0 92.444 5.733 151.913 35.833 207.094 34.394 63.782 96.753 88.149 167.72 88.149h22.209c93.18 0 138.338-45.153 163.426-84.557 12.184-20.069 22.932-42.275 28.663-70.234l4.295-17.915h25.807c57.344 0 106.797-46.569 106.797-106.061v-10.745c0-66.64-41.565-101.769-113.968-110.356-40.846-3.574-65.217-5.012-181.341-5.012-78.119 0-134.025.719-176.31 7.169-59.482 8.607-83.151 42.277-83.151 102.468" fill="#fff"/><path d="m523.838 275.73c0 8.607 6.453 15.058 17.915 15.058 36.555 0 56.627-20.789 56.627-55.178 0-34.388-20.072-55.897-56.627-55.897-11.462 0-17.915 6.451-17.915 15.058v80.98z" fill="#202020"/><path d="m171.917 271.418c0 42.277 23.649 78.823 53.749 107.5 20.073 19.353 51.612 39.422 73.103 52.322 6.452 3.576 12.904 5.733 20.076 5.733 8.606 0 15.757-2.157 21.511-5.733 21.511-12.9 53.03-32.969 72.384-52.322 30.82-28.658 54.469-65.202 54.469-107.5 0-45.872-34.394-86.711-83.85-86.711-29.38 0-49.456 15.058-64.514 35.826-13.624-20.789-34.396-35.826-63.797-35.826-50.174 0-83.151 40.839-83.151 86.711" fill="#ff5a16"/></g></g></g></svg>