<svg width="2324" height="636" viewBox="0 0 2324 636" fill="none" xmlns="http://www.w3.org/2000/svg">
<g clip-path="url(#clip0_864_56)">
<mask id="mask0_864_56" style="mask-type:luminance" maskUnits="userSpaceOnUse" x="-1" y="0" width="2323" height="634">
<path d="M2321.41 0.94397H-0.0185547V633.185H2321.41V0.94397Z" fill="white"/>
</mask>
<g mask="url(#mask0_864_56)">
<mask id="mask1_864_56" style="mask-type:luminance" maskUnits="userSpaceOnUse" x="-1" y="0" width="2323" height="633">
<path d="M2321.41 0.94397H-0.0185547V632.427H2321.41V0.94397Z" fill="white"/>
</mask>
<g mask="url(#mask1_864_56)">
<path d="M1089.41 628.434C1049.74 628.434 1008.01 607.289 971.8 571.339C970.424 573.735 968.966 576.052 967.467 578.291C952.207 601.155 922.807 628.434 869.258 628.434C832.606 628.434 783.21 614.216 755.945 546.478C737.668 501.083 729.16 431.507 729.16 327.502C729.16 236.258 739.687 163.506 760.439 111.283C772.443 81.0485 788.204 57.1239 807.259 40.1692C829.63 20.2787 856.895 9.75421 886.074 9.75421C924.583 9.75421 957.62 27.1285 979.094 58.6815C982.369 63.5144 985.363 68.6468 988.059 74.0787C1030.77 31.3022 1074.21 9.73425 1117.91 9.73425C1175.47 9.73425 1212.65 49.4954 1212.65 111.044C1212.65 145.792 1196.55 186.132 1164.77 230.907C1146.45 256.707 1123.66 283.128 1097.74 308.631C1145.37 380.564 1189.24 469.951 1189.24 526.366C1189.24 553.648 1179.01 579.21 1160.41 598.341C1141.58 617.732 1116.35 628.415 1089.37 628.415L1089.41 628.434Z" fill="white"/>
<path d="M1164.73 111.046C1164.73 81.7896 1153.03 57.6654 1117.93 57.6654C1079.9 57.6654 1023.6 84.7253 954.846 195.859C957.041 182.7 957.762 170.258 957.762 158.576C957.762 98.6046 932.894 57.6654 886.096 57.6654C815.148 57.6654 777.12 157.837 777.12 327.487C777.12 526.391 808.557 580.489 869.277 580.489C920.471 580.489 946.794 545.379 949.732 455.455C986.305 535.156 1045.54 580.489 1089.43 580.489C1117.95 580.489 1141.36 557.082 1141.36 526.369C1141.36 481.036 1095.28 383.782 1034.58 301.882C1104.07 241.192 1164.77 162.949 1164.77 111.026L1164.73 111.046Z" fill="white"/>
<path d="M2188.64 261.717C2116.64 261.717 2058.06 202.264 2058.06 129.174C2058.06 94.2055 2071.38 61.8136 2095.54 37.9689C2119.76 14.0844 2152.81 0.94397 2188.64 0.94397C2224.48 0.94397 2258.09 13.9846 2282.68 37.6493C2307.66 61.6939 2321.41 94.4451 2321.41 129.893C2321.41 202.585 2261.85 261.717 2188.64 261.717Z" fill="white"/>
<path d="M2188.64 213.791C2235.45 213.791 2273.47 175.786 2273.47 129.895C2273.47 84.003 2237.65 48.875 2188.64 48.875C2139.65 48.875 2105.99 84.003 2105.99 129.176C2105.99 174.349 2142.56 213.791 2188.64 213.791Z" fill="white"/>
<path d="M2179.14 632.417C2131.99 632.417 2093.37 608.973 2070.46 566.437C2051.79 531.746 2042.7 483.697 2042.7 419.574C2042.7 355.449 2051.82 307.48 2070.6 272.791C2093.91 229.715 2133.5 205.991 2182.05 205.991C2230.61 205.991 2265.75 226.94 2288.02 266.561C2306.81 299.991 2315.56 346.781 2315.56 413.822C2315.56 480.863 2306.67 530.049 2288.38 565.136C2265.77 608.514 2226.96 632.417 2179.14 632.417Z" fill="white"/>
<path d="M2182.05 253.941C2119.16 253.941 2090.64 309.878 2090.64 419.574C2090.64 529.272 2119.89 584.49 2179.14 584.49C2238.38 584.49 2267.64 530.71 2267.64 413.844C2267.64 296.977 2239.12 253.941 2182.08 253.941H2182.05Z" fill="white"/>
<path d="M1882.21 632.427C1833.99 632.427 1800.1 610.56 1781.5 567.444C1769.58 539.803 1763.36 502.758 1761.19 443.887C1745.69 437.316 1732.84 428.809 1722.37 418.205C1702.46 398.035 1692.38 371.714 1692.38 339.98C1692.38 306.29 1702.05 278.692 1721.12 257.962C1731.47 246.72 1744.33 237.712 1759.96 230.823C1762.74 163.063 1784.18 106.108 1822.39 65.4482C1861.48 23.8499 1917.24 0.94397 1979.48 0.94397C2024.06 0.94397 2062.77 12.9262 2091.41 35.5726C2121.83 59.637 2138.59 93.6463 2138.59 131.33C2138.59 181.297 2112.33 220.997 2069.92 241.247C2096.34 258.442 2116.64 286.659 2116.64 333.529C2116.64 375.706 2102.04 408.079 2073.24 429.788C2056.48 442.407 2035.56 451.094 2007.89 456.648C2004.27 507.692 1996.56 543.339 1983.78 569.519C1963.64 610.68 1928.54 632.427 1882.21 632.427Z" fill="white"/>
<path d="M2090.63 131.332C2090.63 86.1597 2050.4 48.875 1979.46 48.875C1882.92 48.875 1807.59 114.837 1807.59 246.063V266.133C1760.78 275.459 1740.29 296.967 1740.29 339.983C1740.29 377.268 1760.77 398.775 1808.3 408.101C1809.76 547.215 1828.06 584.5 1882.16 584.5C1936.27 584.5 1958.22 545.058 1961.88 414.571C2039.4 408.123 2068.66 386.612 2068.66 333.554C2068.66 286.223 2039.4 266.871 1961.88 261.14C1961.14 235.318 1961.14 216.686 1960.43 203.066C1972.13 205.941 1987.49 208.079 2000.65 208.079C2056.23 208.079 2090.61 177.244 2090.61 131.353L2090.63 131.332Z" fill="white"/>
<path d="M1318.31 628.434C1253.65 628.434 1194.39 601.137 1151.45 551.569C1110.25 504.021 1087.53 439.495 1087.53 369.919C1087.53 300.343 1110.16 238.354 1151.25 193.56C1193.36 147.649 1252.7 122.347 1318.31 122.347C1383.93 122.347 1443.38 147.29 1485.25 192.582C1527.01 237.775 1549.09 299.084 1549.09 369.9C1549.09 440.713 1526.4 503.999 1485.16 551.551C1442.21 601.114 1382.95 628.415 1318.31 628.415V628.434Z" fill="white"/>
<path d="M1318.32 170.278C1210.79 170.278 1135.47 252.176 1135.47 369.9C1135.47 487.626 1213.73 580.489 1318.32 580.489C1422.9 580.489 1501.15 489.824 1501.15 369.9C1501.15 249.979 1425.83 170.278 1318.32 170.278ZM1310.29 414.515C1287.62 414.515 1270.8 394.046 1270.8 369.182C1270.8 346.516 1287.62 328.223 1310.29 328.223C1332.96 328.223 1349.05 346.494 1349.05 369.182C1349.05 394.046 1332.23 414.515 1310.29 414.515Z" fill="white"/>
<path d="M1611.41 452.93C1569.66 452.93 1539.64 445.083 1516.91 428.226C1489.09 407.578 1474.97 375.646 1474.97 333.349C1474.97 283.802 1497.24 256.482 1515.92 242.283C1540.18 223.831 1572.62 215.224 1617.97 215.224C1663.34 215.224 1696.85 223.212 1721.34 240.347C1741.76 254.645 1766.11 282.763 1766.11 335.547C1766.11 388.328 1740.26 416.665 1718.57 430.304C1693.7 445.962 1660.64 452.93 1611.39 452.93H1611.41Z" fill="white"/>
<path d="M1617.97 263.157C1549.96 263.157 1522.9 285.823 1522.9 333.352C1522.9 388.19 1553.63 405.006 1611.41 405.006C1686.73 405.006 1718.18 387.453 1718.18 335.531C1718.18 283.606 1686.75 263.136 1618 263.136L1617.97 263.157Z" fill="white"/>
<path d="M303.083 623.201C192.728 623.201 102.966 573.858 50.3551 484.251C3.77646 405.705 -0.0185547 320.632 -0.0185547 225.573C-0.0185547 169.217 16.9391 120.15 48.9972 83.6642C78.4582 50.154 120.203 28.4461 166.562 22.535C221.59 15.5654 290 14.9862 361.127 14.9862C476.873 14.9862 509.57 16.4041 555.112 20.9573C615.693 26.9684 666.667 49.5749 702.497 86.3401C738.89 123.685 758.125 173.551 758.125 230.606V242.069C758.125 339.426 693.031 420.903 602.31 443.05C595.539 459.028 587.15 474.922 577.224 490.58L576.963 490.979C545.006 540.367 469.882 623.223 325.993 623.223H303.063L303.083 623.201Z" fill="white"/>
<path d="M550.36 68.6304C507.356 64.3367 477.254 62.8988 361.146 62.8988C286.605 62.8988 223.529 63.6176 172.656 70.068C105.284 78.6754 47.9392 130.259 47.9392 225.577C47.9392 320.897 52.9525 394.704 91.6616 459.91C135.385 534.438 208.488 575.278 303.104 575.278H326.034C442.139 575.278 505.218 513.649 536.756 464.922C550.379 443.415 560.405 421.926 566.858 400.419C649.287 393.249 710.209 325.169 710.209 242.053V230.59C710.209 141.023 651.447 78.6754 550.379 68.6304H550.36Z" fill="white"/>
<path d="M2150.98 184.726H2042.7V261.432H2150.98V184.726Z" fill="white"/>
<path d="M2105.99 129.176C2105.99 175.786 2142.56 213.791 2188.64 213.791C2234.72 213.791 2273.47 175.786 2273.47 129.895C2273.47 84.003 2237.65 48.875 2188.64 48.875C2139.65 48.875 2105.99 84.003 2105.99 129.176ZM2090.63 419.584C2090.63 530.72 2119.89 584.5 2179.14 584.5C2238.38 584.5 2267.64 530.72 2267.64 413.853C2267.64 296.986 2239.12 253.951 2182.08 253.951C2119.18 253.951 2090.66 309.888 2090.66 419.584M1740.31 339.983C1740.31 377.268 1760.79 398.775 1808.33 408.101C1809.78 547.215 1828.08 584.5 1882.19 584.5C1936.3 584.5 1958.25 545.058 1961.9 414.571C2039.42 408.123 2068.68 386.612 2068.68 333.554C2068.68 286.223 2039.42 266.871 1961.9 261.14C1961.17 235.318 1961.17 216.686 1960.44 203.066C1972.14 205.941 1987.51 208.079 2000.66 208.079C2056.26 208.079 2090.63 177.244 2090.63 131.353C2090.63 85.4607 2050.41 48.8948 1979.46 48.8948C1882.92 48.8948 1807.59 114.857 1807.59 246.082V266.153C1760.79 275.478 1740.29 296.986 1740.29 340.002M1522.9 333.352C1522.9 388.19 1553.62 405.006 1611.4 405.006C1686.73 405.006 1718.18 387.453 1718.18 335.528C1718.18 283.607 1686.73 263.137 1617.99 263.137C1549.27 263.137 1522.92 285.803 1522.92 333.333M1270.77 369.179C1270.77 346.513 1287.59 328.22 1310.26 328.22C1332.93 328.22 1349.03 346.494 1349.03 369.179C1349.03 394.043 1332.22 414.511 1310.26 414.511C1288.3 414.511 1270.77 394.043 1270.77 369.179ZM1135.47 369.919C1135.47 489.84 1213.73 580.504 1318.31 580.504C1422.9 580.504 1501.15 489.84 1501.15 369.919C1501.15 249.996 1425.82 170.294 1318.31 170.294C1210.79 170.294 1135.47 252.193 1135.47 369.919ZM886.077 57.6619C815.129 57.6619 777.101 157.833 777.101 327.48C777.101 526.384 808.557 580.485 869.258 580.485C920.452 580.485 946.778 545.379 949.713 455.452C986.286 535.153 1045.53 580.485 1089.41 580.485C1117.93 580.485 1141.34 557.079 1141.34 526.366C1141.34 481.033 1095.26 383.779 1034.56 301.879C1104.05 241.19 1164.75 162.946 1164.75 111.023C1164.75 81.7663 1153.04 57.642 1117.95 57.642C1079.92 57.642 1023.61 84.7019 954.865 195.837C957.063 182.677 957.781 170.235 957.781 158.553C957.781 98.5812 932.916 57.642 886.115 57.642" fill="#202020"/>
<path d="M47.9222 225.577C47.9222 130.259 105.267 78.6754 172.638 70.068C223.532 63.6176 286.609 62.8988 361.13 62.8988C477.239 62.8988 507.337 64.3367 550.341 68.6304C651.41 78.6555 710.171 141.003 710.171 230.59V242.053C710.171 325.188 649.252 393.268 566.82 400.419C560.367 421.926 550.341 443.415 536.721 464.922C505.18 513.649 442.105 575.278 325.996 575.278H303.067C208.452 575.278 135.347 534.438 91.6247 459.91C52.9156 394.704 47.9023 322.313 47.9023 225.577" fill="#202020"/>
<path d="M101.667 226.29C101.667 318.734 107.4 378.203 137.5 433.384C171.894 497.166 234.253 521.533 305.22 521.533H327.429C420.609 521.533 465.767 476.38 490.855 436.976C503.039 416.907 513.787 394.701 519.518 366.742L523.813 348.827H549.62C606.964 348.827 656.417 302.258 656.417 242.766V232.021C656.417 165.381 614.852 130.252 542.449 121.665C501.603 118.091 477.232 116.653 361.108 116.653C282.989 116.653 227.083 117.372 184.798 123.822C125.316 132.429 101.647 166.099 101.647 226.29" fill="white"/>
<path d="M523.838 275.73C523.838 284.337 530.291 290.788 541.753 290.788C578.308 290.788 598.38 269.999 598.38 235.61C598.38 201.222 578.308 179.713 541.753 179.713C530.291 179.713 523.838 186.164 523.838 194.771V275.751V275.73Z" fill="#202020"/>
<path d="M171.917 271.418C171.917 313.695 195.566 350.241 225.666 378.918C245.739 398.271 277.278 418.34 298.769 431.24C305.221 434.816 311.673 436.973 318.845 436.973C327.451 436.973 334.602 434.816 340.356 431.24C361.867 418.34 393.386 398.271 412.74 378.918C443.56 350.26 467.209 313.716 467.209 271.418C467.209 225.546 432.815 184.707 383.359 184.707C353.979 184.707 333.903 199.765 318.845 220.533C305.221 199.744 284.449 184.707 255.048 184.707C204.874 184.707 171.897 225.546 171.897 271.418" fill="#FF5A16"/>
</g>
</g>
</g>
<defs>
<clipPath id="clip0_864_56">
<rect width="2324" height="636" fill="white"/>
</clipPath>
</defs>
</svg>
