<svg fill="none" height="1067" viewBox="0 0 1067 1067" width="1067" xmlns="http://www.w3.org/2000/svg"><g fill="#1a171b"><path d="m345.575 796.579c-47.629 0-85-6.215-112.169-18.619-27.168-12.404-46.614-29.329-58.351-50.803-11.737-21.46-17.446-46.107-17.099-73.942.333-27.822 4.175-57.499 11.577-89.029l127.76-534.1662 155.915-24.14102-139.83 579.38122c-2.694 12.07-4.188 23.14-4.521 33.197-.347 10.056 1.507 18.952 5.535 26.661 4.028 7.723 10.896 13.925 20.619 18.606 9.723 4.709 23.301 7.723 40.746 9.056l-30.182 123.746"/><path d="m908.951 463.675c0 48.962-8.056 93.763-24.155 134.309-16.098 40.586-38.398 75.61-66.821 105.113-28.515 29.516-62.713 52.483-102.605 68.915-39.906 16.418-83.333 24.647-130.267 24.647-22.808 0-45.615-2.013-68.408-6.041l-45.268 182.07h-148.873l166.985-696.084c26.809-8.043 57.498-15.245 92.043-21.634 34.53-6.362 71.929-9.549 112.168-9.549 37.545 0 69.915 5.708 97.07 17.098 27.169 11.404 49.456 26.995 66.954 46.775 17.433 19.793 30.33 42.933 38.733 69.422 8.362 26.501 12.564 54.817 12.564 84.999m-365.155 206.212c11.391 2.694 25.475 4.027 42.24 4.027 26.155 0 49.963-4.854 71.423-14.591 21.46-9.709 39.732-23.301 54.83-40.746 15.085-17.432 26.808-38.372 35.211-62.873 8.376-24.474 12.577-51.456 12.577-80.972 0-28.822-6.388-53.323-19.112-73.436-12.751-20.113-34.878-30.183-66.394-30.183-21.474 0-41.587 2.014-60.353 6.042z"/></g></svg>