<svg width="1067" height="1067" viewBox="0 0 1067 1067" fill="none" xmlns="http://www.w3.org/2000/svg">
<path d="M345.575 796.579C297.946 796.579 260.575 790.364 233.406 777.96C206.238 765.556 186.792 748.631 175.055 727.157C163.318 705.697 157.609 681.05 157.956 653.215C158.289 625.393 162.131 595.716 169.533 564.186L297.293 30.0198L453.208 5.87878L313.378 585.26C310.684 597.33 309.19 608.4 308.857 618.457C308.51 628.513 310.364 637.409 314.392 645.118C318.42 652.841 325.288 659.043 335.011 663.724C344.734 668.433 358.312 671.447 375.757 672.78L345.575 796.526" fill="#1A171B"/>
<path d="M908.951 463.675C908.951 512.637 900.895 557.438 884.796 597.984C868.698 638.57 846.398 673.594 817.975 703.097C789.46 732.613 755.262 755.58 715.37 772.012C675.464 788.43 632.037 796.659 585.103 796.659C562.295 796.659 539.488 794.646 516.695 790.618L471.427 972.688H322.554L489.539 276.604C516.348 268.561 547.037 261.359 581.582 254.97C616.112 248.608 653.511 245.421 693.75 245.421C731.295 245.421 763.665 251.129 790.82 262.519C817.989 273.923 840.276 289.514 857.774 309.294C875.207 329.087 888.104 352.227 896.507 378.716C904.869 405.217 909.071 433.533 909.071 463.715M543.916 669.927C555.307 672.621 569.391 673.954 586.156 673.954C612.311 673.954 636.119 669.1 657.579 659.363C679.039 649.654 697.311 636.062 712.409 618.617C727.494 601.185 739.217 580.245 747.62 555.744C755.996 531.27 760.197 504.288 760.197 474.772C760.197 445.95 753.809 421.449 741.085 401.336C728.334 381.223 706.207 371.153 674.691 371.153C653.217 371.153 633.104 373.167 614.338 377.195L543.916 669.927Z" fill="#1A171B"/>
</svg>
