<?xml version="1.0" encoding="UTF-8"?><svg id="Layer_1" xmlns="http://www.w3.org/2000/svg" viewBox="0 0 256 224"><defs><style>.cls-1{fill:#3ae668;}</style></defs><rect class="cls-1" x="2" y="161.91" width="252" height="59" rx="29.5" ry="29.5"/><path d="M91.92,162.29c-13.14,0-26.04-3.7-37.42-10.89-15.88-10.03-26.91-25.65-31.04-43.97h0c-4.14-18.32-.89-37.16,9.14-53.04s25.65-26.91,43.97-31.04c18.32-4.14,37.16-.89,53.04,9.14,15.88,10.03,26.91,25.65,31.04,43.97,4.14,18.32.89,37.16-9.14,53.04s-25.65,26.91-43.97,31.04c-5.19,1.17-10.43,1.75-15.63,1.75ZM92.16,39.6c-3.87,0-7.76.43-11.63,1.3-13.63,3.08-25.25,11.28-32.71,23.1s-9.88,25.83-6.8,39.46c3.08,13.63,11.28,25.25,23.1,32.71,11.82,7.46,25.83,9.88,39.46,6.8,13.63-3.08,25.25-11.28,32.71-23.1s9.88-25.83,6.8-39.46c-3.08-13.63-11.28-25.25-23.1-32.71-8.47-5.35-18.06-8.1-27.84-8.1Z"/><path d="M170.36,149.57c-1.64,0-3.31-.45-4.8-1.39l-26.31-16.61c-4.2-2.65-5.46-8.21-2.8-12.42,2.65-4.2,8.21-5.46,12.42-2.8l26.31,16.61c4.2,2.65,5.46,8.21,2.8,12.42-1.71,2.71-4.63,4.19-7.62,4.19Z"/><path d="M223.71,199.39c-3.26,0-6.45-.92-9.27-2.7l-47.08-29.74c-3.94-2.49-6.67-6.36-7.69-10.9-1.03-4.54-.22-9.21,2.26-13.14l5.42-8.58c5.13-8.12,15.92-10.56,24.04-5.43l47.08,29.74c3.94,2.49,6.67,6.36,7.69,10.9,1.03,4.54.22,9.21-2.26,13.14l-5.42,8.58c-2.49,3.94-6.36,6.67-10.9,7.69-1.29.29-2.58.43-3.87.43ZM177.46,152.04l46.11,29.12,4.81-7.61-46.11-29.12-4.81,7.61Z"/><path d="M120.18,120.5c-1.39,0-2.8-.32-4.12-1-4.42-2.28-6.15-7.71-3.87-12.12,3.26-6.32,4.19-13.62,2.62-20.57-2.22-9.84-9.17-17.91-18.59-21.59-4.63-1.81-6.92-7.03-5.11-11.66,1.81-4.63,7.03-6.92,11.66-5.11,14.99,5.85,26.06,18.71,29.6,34.39,2.5,11.07,1.01,22.71-4.18,32.78-1.6,3.1-4.75,4.88-8.01,4.88Z"/></svg>