<?xml version="1.0" encoding="UTF-8"?><svg id="Layer_1" xmlns="http://www.w3.org/2000/svg" viewBox="0 0 256 224"><defs><style>.cls-1{fill:#3ae668;}</style></defs><rect class="cls-1" x="2" y="162.91" width="252" height="59" rx="29.5" ry="29.5"/><path d="M44.1,138.38c-3.94,0-7.55-2.6-8.66-6.58-5.2-18.62-4.84-38.14,1.04-56.45,2.53-7.87,6.07-15.44,10.52-22.49C75.92,7.05,136.74-6.69,182.56,22.25c4.2,2.65,5.46,8.21,2.8,12.42-2.65,4.2-8.21,5.46-12.42,2.8-37.42-23.64-87.1-12.42-110.74,25.01-3.64,5.77-6.54,11.95-8.6,18.38-4.8,14.94-5.09,30.89-.84,46.11,1.34,4.79-1.46,9.75-6.25,11.09-.81.23-1.62.33-2.43.33Z"/><path d="M167.91,50.89c-3.61,0-7.02-2.19-8.4-5.76-1.79-4.64.52-9.85,5.16-11.64l13.05-5.03-2.02-14.09c-.71-4.92,2.71-9.48,7.63-10.19,4.92-.7,9.48,2.71,10.19,7.63l3.04,21.18c.6,4.15-1.76,8.17-5.67,9.68l-19.74,7.61c-1.06.41-2.16.6-3.24.6Z"/><path d="M127.28,160.89c-10.45,0-21.02-2.85-30.49-8.83-26.7-16.86-34.71-52.31-17.84-79.01,8.17-12.94,20.89-21.91,35.81-25.28,14.92-3.37,30.26-.73,43.2,7.44,26.7,16.86,34.71,52.31,17.84,79.01-10.88,17.23-29.5,26.67-48.52,26.68ZM127.45,64.34c-2.9,0-5.83.32-8.73.98-10.23,2.31-18.95,8.47-24.56,17.34h0c-11.56,18.31-6.08,42.61,12.23,54.18,18.31,11.56,42.62,6.08,54.18-12.23s6.08-42.61-12.23-54.18c-6.36-4.01-13.56-6.08-20.9-6.08ZM86.56,77.85h0,0Z"/><path d="M125.75,199.53c-18.36,0-36.38-5.18-52.29-15.22-4.2-2.65-5.46-8.21-2.8-12.42,2.65-4.2,8.21-5.46,12.42-2.8,18.13,11.45,39.64,15.16,60.55,10.43,20.92-4.72,38.74-17.31,50.19-35.44,3.64-5.77,6.54-11.95,8.6-18.38,4.8-14.95,5.09-30.89.84-46.11-1.34-4.79,1.46-9.75,6.25-11.09,4.79-1.34,9.75,1.46,11.09,6.25,5.2,18.62,4.84,38.15-1.04,56.45-2.53,7.87-6.07,15.44-10.52,22.49-14.02,22.19-35.84,37.6-61.44,43.38-7.26,1.64-14.57,2.45-21.84,2.45Z"/><path d="M71.41,202.47c-4.4,0-8.25-3.23-8.9-7.72l-3.04-21.18c-.6-4.15,1.76-8.17,5.67-9.68l19.74-7.61c4.64-1.79,9.85.52,11.63,5.16,1.79,4.64-.52,9.85-5.16,11.64l-13.05,5.03,2.02,14.09c.71,4.92-2.71,9.48-7.63,10.19-.43.06-.87.09-1.29.09Z"/></svg>