<svg fill="none" height="420" viewBox="0 0 3196 420" width="3196" xmlns="http://www.w3.org/2000/svg"><g clip-rule="evenodd" fill-rule="evenodd"><path d="m242.109 127.252c14.906 21.495 23.642 47.6 23.642 75.748s-8.736 54.253-23.642 75.748l-34.42-34.452c6.759-12.242 10.606-26.319 10.606-41.296s-3.847-29.054-10.606-41.296zm-33.556-33.588-34.42 34.452c-12.231-6.765-26.295-10.616-41.258-10.616-47.1758 0-85.4195 38.28-85.4195 85.5s38.2437 85.5 85.4195 85.5c14.963 0 29.027-3.851 41.258-10.616l34.42 34.452c-21.475 14.92-47.556 23.664-75.678 23.664-73.3847 0-132.875-59.546-132.875-133s59.4903-133 132.875-133c28.122 0 54.203 8.7441 75.678 23.664z" fill="#000"/><path d="m242.109 127.251c14.906 21.496 23.641 47.601 23.641 75.749s-8.735 54.253-23.641 75.748l-34.42-34.452c6.759-12.242 10.606-26.319 10.606-41.296s-3.847-29.054-10.606-41.296z" fill="#000"/><path d="m774.173 95.1997c-25.875 0-50.352 9.8003-68.535 25.2003v-16.1c0-4.2-3.497-7.0003-6.994-7.0003h-23.777c-4.196 0-6.994 3.5003-6.994 7.0003v305.9c0 3.5 2.798 7 6.994 7h24.477c3.496 0 6.993-2.8 6.993-7v-128.1c18.183 15.4 42.66 25.2 68.536 25.2 58.745 0 106.3-47.6 106.3-106.4-1.399-58.8-48.954-105.7003-107-105.7003zm0 173.6003c-37.764 0-67.836-30.8-67.836-67.9 0-37.8 30.771-67.9 67.836-67.9 37.765 0 67.837 30.8 67.837 67.9 0 37.8-30.771 67.9-67.837 67.9z" fill="#000"/><path d="m1235.04 95.1997c-25.88 0-49.65 9.1003-67.84 24.5003v-9.1c0-7.7-6.29-14.0003-13.98-14.0003h-10.49c-7.7 0-13.99 6.3003-13.99 14.0003v184.1c0 5.6 4.9 10.5 10.49 10.5h17.48c5.6 0 10.49-4.9 10.49-10.5v-87.5c0-37.8 30.78-74.2 67.84-74.2 24.48 0 67.84 13.3 67.84 74.2v87.5c0 5.6 4.89 10.5 10.49 10.5h17.48c5.6 0 10.49-4.9 10.49-10.5v-88.2c0-92.4-72.73-111.3003-106.3-111.3003z" fill="#000"/><path d="m1106.36 178.5c-10.49-49.7-55.95-86.1-109.096-83.3-53.15 2.8-96.509 44.8-100.006 98-4.196 62.3 44.758 114.1 105.602 114.1 41.26 0 76.93-23.1 94.41-57.4 2.8-4.9-.7-11.2-6.29-12.6l-20.98-4.2c-3.5-.7-7 .7-9.1 4.2-11.88 18.9-33.56 32.2-57.34 32.2-20.982 0-39.865-9.8-52.453-24.5l120.283-50.4zm-170.638 30.8c0-2.8-.7-5.6-.7-8.4 0-37.8 30.772-67.9 67.838-67.9 20.98 0 40.56 9.8 52.45 25.2z" fill="#000"/><path d="m540.593 93.7998c-58.745 0-106.301 47.6002-106.301 106.4002s47.556 106.4 106.301 106.4c58.744 0 106.3-47.6 106.3-106.4s-47.556-106.4002-106.3-106.4002zm0 174.3002c-37.765 0-67.837-30.8-67.837-67.9 0-37.8 30.771-67.9 67.837-67.9 37.764 0 67.836 30.8 67.836 67.9.699 37.1-30.072 67.9-67.836 67.9z" fill="#000"/><path d="m1809.2 93.1001c-58.74 0-106.3 47.5999-106.3 106.3999s47.56 106.4 106.3 106.4c58.75 0 106.3-47.6 106.3-106.4s-47.55-106.3999-106.3-106.3999zm0 174.2999c-37.76 0-67.83-30.8-67.83-67.9 0-37.8 30.77-67.9 67.83-67.9 37.77 0 67.84 30.8 67.84 67.9s-30.07 67.9-67.84 67.9z" fill="#000"/><path d="m2731.64 30.1001h-21.68c-4.9 0-8.4 3.5-8.4 8.4v21.7c0 4.9 3.5 8.4 8.4 8.4h21.68c4.89 0 8.39-3.5 8.39-8.4v-21.7c0-4.9-4.2-8.4-8.39-8.4z" fill="#515f71"/><g fill="#000"><path d="m3178.52 235.9-25.18-4.9c-2.8-.7-5.59.7-6.99 3.5-11.89 19.6-33.57 32.9-58.05 32.9-20.98 0-39.86-9.8-52.45-24.5l120.29-50.4 36.36-15.4c-10.49-49.7-55.94-86.0999-109.09-83.2999s-96.51 45.4999-100.01 98.6999c-4.2 62.3 44.76 114.1 105.6 114.1 41.96 0 78.33-24.5 95.11-59.5 1.4-5.6-1.4-10.5-5.59-11.2zm-158.75-37.1c0-37.8 30.77-67.9 67.83-67.9 20.98 0 40.56 9.8 52.45 25.2l-120.28 51.1z"/><path d="m2321.82 176.4c-10.49-49.7-55.95-86.1001-109.1-83.3001s-96.51 45.5001-100 98.7001c-4.2 62.3 44.75 114.1 105.6 114.1 41.96 0 78.32-24.5 95.81-60.2 2.1-4.2-.7-9.1-4.9-9.8l-25.17-4.9c-2.8-.7-5.6.7-7 3.5-11.89 19.6-33.57 32.9-58.04 32.9-20.98 0-39.87-9.8-52.45-24.5l120.28-50.4zm-171.34 30.8c0-2.8-.7-5.6-.7-8.4 0-37.8 30.77-67.9 67.84-67.9 20.98 0 40.56 9.8 52.45 25.2z"/><path d="m1980.54 4.8999h-25.18c-3.49 0-6.29 2.8-6.29 6.3v284.9001c0 3.5 2.8 7 6.99 7h24.48c3.5 0 6.99-2.8 6.99-7v-284.9001c0-3.5-3.49-6.3-6.99-6.3z"/><path d="m2066.56 4.8999h-25.18c-3.49 0-6.29 2.8-6.29 6.3v284.9001c0 3.5 2.8 7 6.99 7h24.48c3.5 0 6.99-2.8 6.99-7v-284.9001c-.7-3.5-3.49-6.3-6.99-6.3z"/><path d="m2731.64 93.7998h-21.68c-4.9 0-8.4 3.5-8.4 8.4002v193.2c0 4.9 3.5 8.4 8.4 8.4h21.68c4.89 0 8.39-3.5 8.39-8.4v-193.9c0-4.2002-4.2-7.7002-8.39-7.7002z"/><path d="m2660.3 93.7999h-27.27c-2.8 0-5.6-2.8-5.6-5.6v-77.7c0-2.8-2.79-5.6-5.59-5.6h-27.28c-2.79 0-5.59 2.8-5.59 5.6v77.7c0 2.8-2.8 5.6-5.59 5.6h-27.28c-2.8 0-5.59 2.8-5.59 5.6v26.6001c0 2.8 2.79 5.6 5.59 5.6h27.28c2.79 0 5.59 2.8 5.59 5.6v158.9c0 4.2 3.5 7 6.99 7h23.78c4.2 0 6.99-3.5 6.99-7v-158.9c0-2.8 2.8-5.6 5.6-5.6h27.27c2.8 0 5.6-2.8 5.6-5.6v-27.3001c.7-2.8-1.4-4.9-4.9-4.9z"/><path d="m2509.24 248.5c-2.79-2.8-7.69-2.8-10.49 0-12.58 11.9-28.67 18.9-47.55 18.9-39.86 0-72.03-35-67.84-75.6 3.5-31.5 29.38-56.7 60.85-60.2 19.58-2.1 38.46 4.9 51.75 16.8 4.19 3.5 10.49 3.5 14.68-.7l11.89-11.9c4.2-4.2 4.2-11.2 0-15.4-20.28-18.9-48.25-29.4001-78.32-27.3001-53.85 3.5-97.21 48.3001-99.31 102.9001-2.1 60.2 46.16 109.2 106.3 109.2 28.67 0 55.25-11.2 74.13-30.1 2.8-2.8 2.8-7.7 0-10.5z"/><path d="m1672.13 248.5c-2.8-2.8-7.69-2.8-10.49 0-12.59 11.9-28.67 18.9-47.56 18.9-39.86 0-72.03-35-67.83-75.6 3.5-31.5 29.37-56.7 60.84-60.2 19.58-2.1 38.47 4.9 51.75 16.8 4.2 3.5 10.49 3.5 14.69-.7l11.89-11.9c4.19-4.2 4.19-11.2 0-15.4-20.28-18.9-48.26-29.4001-78.33-27.3001-53.85 3.5-97.21 48.3001-99.31 102.9001-2.09 60.2 46.16 109.2 106.3 109.2 28.68 0 55.25-11.2 74.14-30.1 2.79-2.8 2.79-7.7 0-10.5z"/><path d="m2965.22 95.8999h-34.27c-.7 0-1.4.7-1.4 1.4l-55.95 164.5001c-.7 1.4-2.79 1.4-2.79 0l-55.95-164.5001c0-.7-.7-1.4-1.4-1.4h-34.27c-1.4 0-2.1 1.4-1.4 2.1l69.24 203.7001c0 .7.7 1.4 1.4 1.4h47.55c.7 0 1.4-.7 1.4-1.4l69.24-203.7001c.69-.7 0-2.1-1.4-2.1z"/></g></g></svg>