<svg fill="none" height="561" viewBox="0 0 3092 561" width="3092" xmlns="http://www.w3.org/2000/svg"><path d="m4 71.8489c0-21.6893 16.0564-36.438 41.2259-36.438h120.4231c109.14 0 183.347 60.0794 183.347 148.3551 0 86.757-73.556 151.174-183.347 151.174h-16.707c-42.094 0-63.7921 21.689-63.7921 56.609v98.903c0 27.98-16.0564 45.548-40.5749 45.548-24.5186 0-40.575-17.568-40.575-45.548zm81.1499 125.3641c0 44.029 22.3491 65.068 65.0931 65.068h10.415c60.104 0 104.367-24.509 104.367-78.298 0-53.79-44.046-78.299-104.367-78.299h-10.198c-42.744 0-65.0931 21.039-65.0931 65.068v26.461zm264.0631 300.18c0 22.991 16.056 38.39 40.575 38.39 16.056 0 30.811-10.411 39.273-32.1l14.754-39.258c11.934-31.449 32.981-46.198 55.981-46.198h133.008c22.999 0 44.046 14.749 55.98 46.198l14.755 39.258c8.462 21.689 22.999 32.1 39.273 32.1 24.518 0 40.575-15.399 40.575-38.39 0-6.29-1.302-14.098-4.123-21.689l-158.828-412.9646c-9.764-25.1596-32.113-37.7394-53.811-37.7394s-44.046 12.5798-53.81 37.7394l-158.829 412.9646c-3.471 7.808-4.773 15.399-4.773 21.689zm154.705-187.612c0-7.592 2.17-14.749 5.642-25.16l30.16-83.287c5.641-16.05 15.405-23.858 26.688-23.858s21.047 7.591 26.689 23.858l30.16 83.287c3.471 10.411 5.641 17.568 5.641 25.16 0 21.038-11.934 35.787-43.396 35.787h-37.754c-31.896 0-43.83-14.749-43.83-35.787zm252.78-236.4138c0-22.34 16.057-37.7394 42.094-37.7394h321.998c25.82 0 42.09 15.3994 42.09 37.7394 0 22.3399-16.05 37.7398-42.09 37.7398h-53.81c-42.75 0-65.75 21.689-65.75 71.357v307.338c0 28.63-16.053 46.198-41.223 46.198-25.169 0-41.226-17.568-41.226-46.198v-307.338c0-49.668-22.999-71.357-65.744-71.357h-53.811c-26.471 0-42.528-15.3999-42.528-37.7398zm481.692 417.0848c0 27.98 16.06 45.548 40.58 45.548 24.51 0 40.57-17.568 40.57-45.548v-111.266c0-31.449 18.23-44.897 40.58-44.897h5.64c14.75 0 29.51 9.11 38.4 22.34l106.32 156.163c9.77 14.749 22.35 22.991 38.41 22.991 21.04 0 37.75-17.568 37.75-38.39 0-8.459-2.82-17.568-9.11-26.678l-70.74-99.337c-8.46-11.929-11.93-21.689-11.93-30.148 0-17.568 15.4-30.148 33.63-43.379 32.98-24.508 68.57-56.609 68.57-118.206 0-86.1068-67.27-144.2341-177.93-144.2341h-140.82c-25.16 0-40.57 14.7487-40.57 36.438v418.6031zm81.15-299.529v-21.038c0-45.548 23.87-64.418 60.1-64.418h34.94c60.1 0 98.72 22.34 98.72 74.178 0 51.837-40.57 75.479-100.89 75.479h-32.98c-36.02.216-59.89-18.653-59.89-64.201zm381.67 298.011v-417.0851c0-21.6893 15.4-36.438 40.57-36.438h264.71c25.17 0 40.58 14.7487 40.58 36.438s-15.41 36.4381-40.58 36.4381h-167.29c-32.98 0-56.63 19.52-56.63 56.609v15.399c0 37.089 23.87 56.61 56.63 56.61h129.54c25.17 0 40.57 14.748 40.57 36.438 0 21.689-15.4 36.438-40.57 36.438h-124.55c-32.98 0-61.62 20.388-61.62 61.597v19.521c0 41.209 28.64 61.597 61.62 61.597h162.52c25.17 0 40.58 14.749 40.58 36.438s-15.41 36.438-40.58 36.438h-264.71c-25.39 0-40.79-14.749-40.79-36.438zm394.03-208.434c0-151.174 113.48-255.5 246.49-255.5 133 0 246.48 104.326 246.48 255.5s-113.48 255.5-246.48 255.5c-133.01 0-246.49-104.326-246.49-255.5zm92.43 0c0 106.278 62.93 174.165 154.06 174.165 90.91 0 154.05-67.887 154.05-174.165 0-107.145-62.92-174.165-154.05-174.165-90.92-.217-154.06 67.02-154.06 174.165zm497.75 209.952c0 27.98 16.06 45.548 40.58 45.548 24.51 0 40.57-17.568 40.57-45.548v-214.073c0-25.81 15.41-38.39 31.46-38.39 12.59 0 23 6.941 30.81 19.52l134.31 224.702c18.23 30.798 34.94 53.789 69.22 53.789 32.98 0 56.63-23.858 56.63-62.248v-403.2045c0-27.9792-16.06-45.5475-40.58-45.5475-24.51 0-40.57 17.5683-40.57 45.5475v214.0735c0 25.81-15.41 38.39-31.46 38.39-12.59 0-23.22-6.941-30.81-19.52l-134.31-224.7015c-18.23-30.7988-34.94-53.7895-69.22-53.7895-32.98 0-56.63 23.8583-56.63 62.2483z" fill="#000"/></svg>