<?xml version="1.0" encoding="UTF-8"?>
<svg id="Layer_1" xmlns="http://www.w3.org/2000/svg" xmlns:xlink="http://www.w3.org/1999/xlink" version="1.1" viewBox="0 0 800 600">
  <!-- Generator: Adobe Illustrator 29.1.0, SVG Export Plug-In . SVG Version: 2.1.0 Build 142)  -->
  <defs>
    <style>
      .st0 {
        fill: none;
      }

      .st1 {
        mix-blend-mode: multiply;
        opacity: .2;
      }

      .st1, .st2 {
        isolation: isolate;
      }

      .st1, .st3 {
        fill: #7774f1;
      }

      .st4 {
        fill: #ff7f7a;
      }

      .st5 {
        fill: url(#linear-gradient2);
      }

      .st6 {
        fill: url(#linear-gradient1);
      }

      .st7 {
        fill: url(#linear-gradient3);
      }

      .st8 {
        fill: url(#linear-gradient6);
      }

      .st9 {
        fill: url(#linear-gradient8);
      }

      .st10 {
        fill: url(#linear-gradient7);
      }

      .st11 {
        fill: url(#linear-gradient5);
      }

      .st12 {
        fill: url(#linear-gradient4);
      }

      .st13 {
        fill: #eef;
      }

      .st14 {
        fill: url(#linear-gradient);
      }

      .st15 {
        fill: #3ae668;
      }

      .st16 {
        fill: #ff9284;
      }

      .st17 {
        clip-path: url(#clippath-1);
      }

      .st18 {
        clip-path: url(#clippath-2);
      }

      .st19 {
        fill: #5b58d1;
      }

      .st20 {
        fill: #c75467;
      }

      .st21 {
        fill: #24af69;
      }

      .st22 {
        clip-path: url(#clippath);
      }
    </style>
    <linearGradient id="linear-gradient" x1="477.8" y1="83.9" x2="677.1" y2="83.9" gradientTransform="translate(0 602) scale(1 -1)" gradientUnits="userSpaceOnUse">
      <stop offset="0" stop-color="#dcdcf9"/>
      <stop offset=".6" stop-color="#ccccea"/>
      <stop offset=".7" stop-color="#c9c9e9"/>
      <stop offset=".8" stop-color="#c2c2e6"/>
      <stop offset=".9" stop-color="#b5b5e0"/>
      <stop offset=".9" stop-color="#a3a3d9"/>
      <stop offset=".9" stop-color="#8c8ccf"/>
      <stop offset="1" stop-color="#7070c4"/>
      <stop offset="1" stop-color="#6464bf"/>
    </linearGradient>
    <linearGradient id="linear-gradient1" x1="487.8" y1="112.6" x2="687.2" y2="112.6" gradientTransform="translate(0 602) scale(1 -1)" gradientUnits="userSpaceOnUse">
      <stop offset="0" stop-color="#dcdcf9"/>
      <stop offset=".6" stop-color="#ccccea"/>
      <stop offset=".7" stop-color="#c9c9e9"/>
      <stop offset=".8" stop-color="#c2c2e6"/>
      <stop offset=".9" stop-color="#b5b5e0"/>
      <stop offset=".9" stop-color="#a3a3d9"/>
      <stop offset=".9" stop-color="#8c8ccf"/>
      <stop offset="1" stop-color="#7070c4"/>
      <stop offset="1" stop-color="#6464bf"/>
    </linearGradient>
    <linearGradient id="linear-gradient2" x1="39" y1="191.1" x2="238.3" y2="191.1" gradientTransform="translate(0 602) scale(1 -1)" gradientUnits="userSpaceOnUse">
      <stop offset="0" stop-color="#dcdcf9"/>
      <stop offset=".6" stop-color="#ccccea"/>
      <stop offset=".7" stop-color="#c9c9e9"/>
      <stop offset=".8" stop-color="#c2c2e6"/>
      <stop offset=".9" stop-color="#b5b5e0"/>
      <stop offset=".9" stop-color="#a3a3d9"/>
      <stop offset=".9" stop-color="#8c8ccf"/>
      <stop offset="1" stop-color="#7070c4"/>
      <stop offset="1" stop-color="#6464bf"/>
    </linearGradient>
    <linearGradient id="linear-gradient3" x1="49.1" y1="219.8" x2="248.4" y2="219.8" gradientTransform="translate(0 602) scale(1 -1)" gradientUnits="userSpaceOnUse">
      <stop offset="0" stop-color="#dcdcf9"/>
      <stop offset=".6" stop-color="#ccccea"/>
      <stop offset=".7" stop-color="#c9c9e9"/>
      <stop offset=".8" stop-color="#c2c2e6"/>
      <stop offset=".9" stop-color="#b5b5e0"/>
      <stop offset=".9" stop-color="#a3a3d9"/>
      <stop offset=".9" stop-color="#8c8ccf"/>
      <stop offset="1" stop-color="#7070c4"/>
      <stop offset="1" stop-color="#6464bf"/>
    </linearGradient>
    <linearGradient id="linear-gradient4" x1="34" y1="244.7" x2="233.3" y2="244.7" gradientTransform="translate(0 602) scale(1 -1)" gradientUnits="userSpaceOnUse">
      <stop offset="0" stop-color="#dcdcf9"/>
      <stop offset=".6" stop-color="#ccccea"/>
      <stop offset=".7" stop-color="#c9c9e9"/>
      <stop offset=".8" stop-color="#c2c2e6"/>
      <stop offset=".9" stop-color="#b5b5e0"/>
      <stop offset=".9" stop-color="#a3a3d9"/>
      <stop offset=".9" stop-color="#8c8ccf"/>
      <stop offset="1" stop-color="#7070c4"/>
      <stop offset="1" stop-color="#6464bf"/>
    </linearGradient>
    <linearGradient id="linear-gradient5" x1="313.2" y1="277.2" x2="512.6" y2="277.2" gradientTransform="translate(0 602) scale(1 -1)" gradientUnits="userSpaceOnUse">
      <stop offset="0" stop-color="#dcdcf9"/>
      <stop offset=".6" stop-color="#ccccea"/>
      <stop offset=".7" stop-color="#c9c9e9"/>
      <stop offset=".8" stop-color="#c2c2e6"/>
      <stop offset=".9" stop-color="#b5b5e0"/>
      <stop offset=".9" stop-color="#a3a3d9"/>
      <stop offset=".9" stop-color="#8c8ccf"/>
      <stop offset="1" stop-color="#7070c4"/>
      <stop offset="1" stop-color="#6464bf"/>
    </linearGradient>
    <linearGradient id="linear-gradient6" x1="323.3" y1="305.8" x2="522.6" y2="305.8" gradientTransform="translate(0 602) scale(1 -1)" gradientUnits="userSpaceOnUse">
      <stop offset="0" stop-color="#dcdcf9"/>
      <stop offset=".6" stop-color="#ccccea"/>
      <stop offset=".7" stop-color="#c9c9e9"/>
      <stop offset=".8" stop-color="#c2c2e6"/>
      <stop offset=".9" stop-color="#b5b5e0"/>
      <stop offset=".9" stop-color="#a3a3d9"/>
      <stop offset=".9" stop-color="#8c8ccf"/>
      <stop offset="1" stop-color="#7070c4"/>
      <stop offset="1" stop-color="#6464bf"/>
    </linearGradient>
    <linearGradient id="linear-gradient7" x1="308.2" y1="330.8" x2="507.6" y2="330.8" gradientTransform="translate(0 602) scale(1 -1)" gradientUnits="userSpaceOnUse">
      <stop offset="0" stop-color="#dcdcf9"/>
      <stop offset=".6" stop-color="#ccccea"/>
      <stop offset=".7" stop-color="#c9c9e9"/>
      <stop offset=".8" stop-color="#c2c2e6"/>
      <stop offset=".9" stop-color="#b5b5e0"/>
      <stop offset=".9" stop-color="#a3a3d9"/>
      <stop offset=".9" stop-color="#8c8ccf"/>
      <stop offset="1" stop-color="#7070c4"/>
      <stop offset="1" stop-color="#6464bf"/>
    </linearGradient>
    <linearGradient id="linear-gradient8" x1="318.3" y1="359.4" x2="517.7" y2="359.4" gradientTransform="translate(0 602) scale(1 -1)" gradientUnits="userSpaceOnUse">
      <stop offset="0" stop-color="#dcdcf9"/>
      <stop offset=".6" stop-color="#ccccea"/>
      <stop offset=".7" stop-color="#c9c9e9"/>
      <stop offset=".8" stop-color="#c2c2e6"/>
      <stop offset=".9" stop-color="#b5b5e0"/>
      <stop offset=".9" stop-color="#a3a3d9"/>
      <stop offset=".9" stop-color="#8c8ccf"/>
      <stop offset="1" stop-color="#7070c4"/>
      <stop offset="1" stop-color="#6464bf"/>
    </linearGradient>
    <clipPath id="clippath">
      <path class="st0" d="M396.5,20s-92.9,44-97.3,59c-4.4,15,45.5,161.2,61.4,166.5,15.9,5.3,150.5-53.6,155.9-59.6,5.5-6-7.2-99.2-17.4-105.6s-88.5-56.6-102.7-60.3h0Z"/>
    </clipPath>
    <clipPath id="clippath-1">
      <path class="st0" d="M82.9,204.7c-10.7,1.4-23.2,30.1-23.7,39.9-.6,9.8,12.6,87.3,22.5,95.3,9.9,8,57,22.3,67.2,19.9,10.2-2.5,93.8-68.2,86.7-86.7-6.7-17.5-34.2-35.4-52.9-43.2-13.2-5.5-78-27.9-99.8-25.1Z"/>
    </clipPath>
    <clipPath id="clippath-2">
      <path class="st0" d="M626.3,352.2c37.5,32.2,26.3,51.8,14.3,71.7s-59.4,86.3-94.7,72.6c-28-10.9-53.7-54.7-53.1-82.2.4-17.8,49.1-86.9,82.2-83.4,22.1,2.4,31,3.9,51.3,21.3h0Z"/>
    </clipPath>
  </defs>
  <g class="st2">
    <g id="Layer_11" data-name="Layer_1">
      <ellipse class="st1" cx="607.3" cy="528.9" rx="102.4" ry="27.4" transform="translate(-14.5 17.2) rotate(-1.6)"/>
      <path class="st14" d="M677.1,509c-.9-14.6-45.2-26.4-99.7-26.4s-98.8,11.8-99.6,26.4h0v17.3h0c0,.2,0,.3,0,.5,0,14.8,44.6,26.9,99.7,26.9s99.7-12,99.7-26.9,0-.3,0-.5h0v-17.3h0,0Z"/>
      <ellipse class="st13" cx="577.4" cy="509.4" rx="99.7" ry="26.9"/>
      <path class="st1" d="M575,524.8l101-18.6,1.2,5.4v14.7c0,0,.1-10-8.6-8.2s-26.4,11-93.5,6.8Z"/>
      <path class="st6" d="M687.2,480.3c-.9-14.6-45.2-26.4-99.7-26.4s-98.8,11.8-99.6,26.4h0v17.3h0c0,.1,0,.3,0,.5,0,14.8,44.6,26.9,99.7,26.9s99.7-12,99.7-26.9,0-.3,0-.5h0v-17.3h0,0Z"/>
      <ellipse class="st13" cx="587.5" cy="480.7" rx="99.7" ry="26.9"/>
      <ellipse class="st1" cx="177.3" cy="420.1" rx="117.2" ry="27.4" transform="translate(-11.7 5.1) rotate(-1.6)"/>
      <path class="st5" d="M238.3,401.8c-.9-14.6-45.2-26.4-99.6-26.4s-98.8,11.8-99.7,26.4h0v17.3h0c0,.1,0,.3,0,.5,0,14.8,44.6,26.9,99.7,26.9s99.7-12,99.7-26.9,0-.3,0-.5h0v-17.3h0Z"/>
      <path class="st13" d="M131.2,417.3l63.6-10.9,42.9-7.3c-5.7-13.4-47.8-23.8-99-23.8s-99.7,12-99.7,26.9,44.6,26.9,99.7,26.9,66.6-5,84.3-12.5c-12.3,4.9-91.7.8-91.7.8h0Z"/>
      <path class="st13" d="M238.3,402.2c0-1-.2-2.1-.7-3.1l-42.8,7.3-63.6,10.9s79.4,4.1,91.7-.8c9.7-4.1,15.4-9.1,15.4-14.3h0Z"/>
      <path class="st1" d="M238.3,402.2c0-1-.2-2.1-.7-3.1l-42.8,7.3-63.6,10.9s79.4,4.1,91.7-.8c9.7-4.1,15.4-9.1,15.4-14.3h0Z"/>
      <path class="st1" d="M238.8,420.2h0,0Z"/>
      <path class="st1" d="M223,416.5c0,0,.2,0,.3-.1,11.5-5,15-1.3,15.1,3.1h0v-17.3c0,5.3-5.6,10.2-15.4,14.3h0Z"/>
      <path class="st7" d="M248.4,373.1c-.9-14.6-45.2-26.4-99.6-26.4s-98.8,11.8-99.7,26.4h0v17.3h0c0,.1,0,.3,0,.5,0,14.8,44.6,26.9,99.7,26.9s99.7-12,99.7-26.9,0-.3,0-.5h0v-17.3h0Z"/>
      <path class="st13" d="M239.8,383.4c-8.8,1.8-26.2,11.8-93.4,7.5l81.6-33.7c-18.2-6.4-46.9-10.6-79.3-10.6-55.1,0-99.7,12-99.7,26.9s44.6,26.9,99.7,26.9,78.5-7.1,92.9-17.2c-.6,0-1.2,0-1.9.2h0Z"/>
      <path class="st1" d="M241.7,383.2c6.8,0,6.7,8.4,6.7,8.4v-14.7c0,0,0-3.4,0-3.4,0,3.4-2.4,6.7-6.7,9.7h0Z"/>
      <path class="st13" d="M228,357.3l-81.6,33.7c67.1,4.2,84.6-5.8,93.4-7.5.7-.1,1.3-.2,1.9-.2,4.3-3,6.7-6.3,6.7-9.7,0-6.1-7.6-11.8-20.4-16.3h0Z"/>
      <path class="st1" d="M228,357.3l-81.6,33.7c79.6.5,84.6-5.8,93.4-7.5.7-.1,1.3-.2,1.9-.2,4.3-3,6.7-6.3,6.7-9.7,0-6.1-7.6-11.8-20.4-16.3h0Z"/>
      <path class="st12" d="M233.3,348.1c-.9-14.6-45.2-26.4-99.7-26.4s-98.8,11.8-99.7,26.4h0v17.3h0c0,.1,0,.3,0,.5,0,14.8,44.6,26.9,99.7,26.9s99.7-12,99.7-26.9,0-.3,0-.5h0v-17.3h0,0Z"/>
      <ellipse class="st13" cx="133.7" cy="348.6" rx="99.7" ry="26.9"/>
      <ellipse class="st1" cx="463.8" cy="333.8" rx="129.4" ry="27.4" transform="translate(-9.1 13.1) rotate(-1.6)"/>
      <path class="st11" d="M512.5,315.7c-.9-14.6-45.2-26.4-99.6-26.4s-98.8,11.8-99.6,26.4h0v17.3h0c0,.1,0,.3,0,.5,0,14.8,44.6,26.9,99.7,26.9s99.7-12,99.7-26.9,0-.3,0-.5h0v-17.3h0Z"/>
      <path class="st13" d="M405.5,331.3l63.6-10.9,42.9-7.3c-5.7-13.4-47.8-23.8-99-23.8s-99.7,12-99.7,26.9,44.6,26.9,99.7,26.9,66.6-5,84.3-12.5c-12.3,4.9-91.7.8-91.7.8h0Z"/>
      <path class="st13" d="M512.6,316.2c0-1-.2-2.1-.7-3.1l-42.9,7.3-63.6,10.9s79.4,4.1,91.7-.8c9.7-4.1,15.4-9.1,15.4-14.3h0Z"/>
      <path class="st1" d="M512.6,316.2c0-1-.2-2.1-.7-3.1l-42.9,7.3-63.6,10.9s79.4,4.1,91.7-.8c9.7-4.1,15.4-9.1,15.4-14.3h0Z"/>
      <path class="st1" d="M513,334.2h0,0Z"/>
      <path class="st1" d="M497.2,330.5c0,0,.2,0,.3-.1,11.5-5,15-1.3,15.1,3.1h0v-17.3c0,5.3-5.6,10.2-15.4,14.3Z"/>
      <path class="st8" d="M522.6,287.1c-.9-14.6-45.2-26.4-99.6-26.4s-98.8,11.8-99.6,26.4h0v17.3h0c0,.1,0,.3,0,.5,0,14.8,44.6,26.9,99.7,26.9s99.7-12,99.7-26.9,0-.3,0-.5h0v-17.3h0Z"/>
      <path class="st13" d="M514,297.4c-8.8,1.8-26.2,11.8-93.4,7.5l81.6-33.7c-18.2-6.4-46.9-10.6-79.3-10.6-55,0-99.7,12-99.7,26.9s44.6,26.9,99.7,26.9,78.5-7.1,92.9-17.2c-.6,0-1.2,0-1.9.2h0Z"/>
      <path class="st1" d="M515.9,297.2c6.8,0,6.7,8.4,6.7,8.4v-14.7c0,0,0-3.4,0-3.4,0,3.4-2.4,6.7-6.7,9.7Z"/>
      <path class="st13" d="M502.2,271.2l-81.6,33.7c67.1,4.2,84.6-5.8,93.4-7.5.7-.1,1.3-.2,1.9-.2,4.3-3,6.7-6.3,6.7-9.7,0-6.1-7.6-11.8-20.4-16.3h0Z"/>
      <path class="st1" d="M502.2,271.2l-81.6,33.7c79.6.5,84.6-5.8,93.4-7.5.7-.1,1.3-.2,1.9-.2,4.3-3,6.7-6.3,6.7-9.7,0-6.1-7.6-11.8-20.4-16.3h0Z"/>
      <path class="st10" d="M507.6,262.1c-.9-14.6-45.2-26.4-99.6-26.4s-98.8,11.8-99.6,26.4h0v17.3h0c0,.1,0,.3,0,.5,0,14.8,44.6,26.9,99.7,26.9s99.7-12,99.7-26.9,0-.3,0-.5h0v-17.3h0Z"/>
      <ellipse class="st13" cx="407.9" cy="262.6" rx="99.7" ry="26.9"/>
      <path class="st1" d="M405.5,278l101-18.6,1.2,5.4v14.7c0,0,.1-10-8.6-8.2-8.8,1.8-26.4,11-93.6,6.8h0Z"/>
      <path class="st9" d="M517.6,233.5c-.9-14.6-45.2-26.4-99.6-26.4s-98.8,11.8-99.6,26.4h0v17.3h0c0,.1,0,.3,0,.5,0,14.8,44.6,26.9,99.7,26.9s99.7-12,99.7-26.9,0-.3,0-.5h0v-17.3h0Z"/>
      <ellipse class="st13" cx="418" cy="233.9" rx="99.7" ry="26.9"/>
      <path class="st1" d="M517.6,233.1c0-.3,0-.6-.1-.9,0-.2,0-.3-.1-.5,0-.3-.2-.6-.3-.9,0-.2-.2-.3-.2-.5-.1-.3-.3-.6-.4-.8,0-.2-.2-.3-.3-.5-.2-.3-.4-.6-.6-.8-.1-.2-.3-.3-.4-.5-.2-.3-.5-.6-.7-.8-.2-.2-.3-.3-.5-.5-.3-.3-.6-.5-.9-.8-.2-.1-.4-.3-.6-.4-.3-.3-.7-.5-1-.8-.2-.1-.4-.3-.6-.4-.4-.3-.8-.5-1.2-.8-.2-.1-.5-.3-.7-.4-.4-.2-.8-.5-1.3-.7-.3-.1-.5-.3-.8-.4-.5-.2-.9-.5-1.4-.7-.3-.1-.6-.3-.9-.4-.5-.2-1-.5-1.5-.7-.3-.1-.6-.3-1-.4-.5-.2-1.1-.4-1.6-.7-.4-.1-.7-.3-1.1-.4-.6-.2-1.1-.4-1.7-.6-.4-.1-.8-.3-1.2-.4-.6-.2-1.2-.4-1.8-.6-.4-.1-.8-.3-1.2-.4-.6-.2-1.2-.4-1.9-.6-.4-.1-.9-.2-1.3-.4-.6-.2-1.3-.4-2-.5-.5-.1-1-.2-1.4-.4-.7-.2-1.3-.3-2-.5-.5-.1-1-.2-1.5-.4-.7-.2-1.4-.3-2.1-.5-.5-.1-1.1-.2-1.6-.4-.7-.1-1.4-.3-2.1-.4-.6-.1-1.2-.2-1.8-.3-.7-.1-1.4-.3-2.1-.4-.6-.1-1.2-.2-1.8-.3-.7-.1-1.5-.2-2.2-.4-.6-.1-1.3-.2-1.9-.3-.8-.1-1.5-.2-2.2-.4-.7-.1-1.4-.2-2-.3-.8-.1-1.5-.2-2.2-.3-.7,0-1.4-.2-2.2-.3-.7,0-1.5-.2-2.2-.3-.7,0-1.5-.2-2.3-.2-.8,0-1.5-.2-2.2-.2-.8,0-1.5-.1-2.3-.2-.8,0-1.5-.1-2.3-.2-.8,0-1.6-.1-2.4-.2-.8,0-1.5-.1-2.3-.2-.8,0-1.7-.1-2.5-.2-.8,0-1.5-.1-2.3-.1-.9,0-1.8,0-2.7-.1-.7,0-1.5,0-2.2-.1-1,0-2,0-3-.1-.7,0-1.3,0-2,0-1.1,0-2.2,0-3.3,0-.6,0-1.2,0-1.8,0-1.7,0-3.4,0-5.1,0s-3.4,0-5.1,0c-.6,0-1.2,0-1.8,0-1.1,0-2.2,0-3.3,0-.7,0-1.3,0-2,0-1,0-2,0-3,.1-.7,0-1.5,0-2.2.1-.9,0-1.8,0-2.7.1-.8,0-1.5,0-2.3.1-.8,0-1.7.1-2.5.2-.8,0-1.5.1-2.3.2-.8,0-1.6.1-2.4.2-.8,0-1.5.1-2.3.2-.8,0-1.6.1-2.3.2-.8,0-1.5.2-2.2.2s-1.5.2-2.3.2c-.8,0-1.5.2-2.2.3-.7,0-1.5.2-2.2.3-.8.1-1.5.2-2.2.3-.7,0-1.4.2-2,.3-.8.1-1.5.2-2.2.3-.6.1-1.3.2-1.9.3-.7.1-1.5.2-2.2.4-.6.1-1.2.2-1.8.3-.7.1-1.4.3-2.1.4-.6.1-1.2.2-1.8.3-.7.1-1.4.3-2.1.4-.5.1-1.1.2-1.6.4-.7.2-1.4.3-2.1.5-.5.1-1,.2-1.5.4-.7.2-1.4.3-2,.5-.5.1-1,.2-1.4.4-.7.2-1.3.4-2,.5-.3,0-.7.2-1,.3,4.2,13.7,13.8,27.9,15.7,29.9,2.4,2.4,84.4-.4,154.5-5.6,1.6-1.9,2.5-3.9,2.5-6s0-.5,0-.8h0Z"/>
      <path class="st3" d="M396.5,20s-92.9,44.1-97.3,59c-4.4,15,45.5,161.2,61.4,166.5s150.5-53.6,155.9-59.6-7.2-99.2-17.4-105.6-88.5-56.6-102.7-60.3h0Z"/>
      <g class="st22">
        <path class="st19" d="M499.2,80.3c-2.5,23.8-35.9,65.1-51.3,77.6-15.5,12.5-87.2,87.7-87.2,87.7l94.9,21.2,120.7-76.4-77-110.1"/>
      </g>
      <path class="st1" d="M133.7,321.7c-20.8,0-40.1,1.7-56,4.6,2.6,7.5,13.1,16.1,25.5,19.6.7.2,35.2,14,43.1,14.1,20.4.1,52.9-.7,82.3-3.3,3.1-2.6,4.7-5.3,4.7-8.2,0-14.8-44.6-26.9-99.7-26.9h0Z"/>
      <path class="st4" d="M82.9,204.7c-10.7,1.4-23.2,30.1-23.7,39.9-.6,9.8,12.6,87.3,22.5,95.3,9.9,8,57,22.3,67.2,19.9,10.2-2.5,93.8-68.2,86.7-86.7-6.7-17.4-34.2-35.4-52.9-43.2-13.2-5.5-78-27.9-99.8-25.1h0Z"/>
      <g class="st17">
        <g>
          <path class="st20" d="M98.7,316.3c24.1-6.5,63.4-8.3,93.8-14.2,30.4-5.9,86.8-47.7,102-63.2,15.2-15.6,23.7,6.6,23.7,6.6l3.3,94.6-56.5,26-186.7-4.9,20.4-44.8"/>
          <polygon class="st16" points="37.8 167.2 -4.8 204.9 68.9 378.1 98.4 316.6 37.8 167.2"/>
        </g>
      </g>
      <path class="st1" d="M587.5,453.9c-29.3,0-55.7,3.4-74,8.9,12.8,15.9,38.7,35.6,43.7,35.6,30.6.2,87.3-1.8,123.1-7.8,4.4-3,6.8-6.3,6.8-9.8,0-14.8-44.6-26.9-99.7-26.9h0Z"/>
      <path class="st15" d="M626.3,352.2c37.5,32.2,26.3,51.8,14.3,71.7s-59.4,86.3-94.7,72.6c-28-10.9-53.7-54.7-53.1-82.2.4-17.8,49.1-86.9,82.2-83.4,22.1,2.4,31,3.9,51.3,21.3h0Z"/>
      <g class="st18">
        <path class="st21" d="M492.8,463.3s43.3,14.2,95.3-6.3c52-20.5,75.9-60.1,75.9-60.1l-12,64.3-11.2,86.4-130.6-4.2-17.4-80.1h0Z"/>
      </g>
    </g>
  </g>
</svg>