<?xml version="1.0" encoding="UTF-8"?><svg xmlns="http://www.w3.org/2000/svg" xmlns:xlink="http://www.w3.org/1999/xlink" viewBox="0 0 800 600"><defs><style>.cls-1{fill:#ff7f7a;}.cls-2{mix-blend-mode:multiply;opacity:.16;}.cls-2,.cls-3{fill:#7774f1;}.cls-4{fill:url(#linear-gradient-8);}.cls-5{fill:url(#linear-gradient-7);}.cls-6{fill:url(#linear-gradient-5);}.cls-7{fill:url(#linear-gradient-6);}.cls-8{fill:url(#linear-gradient-9);}.cls-9{fill:url(#linear-gradient-4);}.cls-10{fill:url(#linear-gradient-3);}.cls-11{fill:url(#linear-gradient-2);}.cls-12{fill:#eef;}.cls-13{fill:url(#linear-gradient);}.cls-14{isolation:isolate;}.cls-15{fill:#3ae668;}.cls-16{fill:#ff9284;}.cls-17{clip-path:url(#clippath-1);}.cls-18{clip-path:url(#clippath-2);}.cls-19{fill:#5b58d1;}.cls-20{fill:#c75467;}.cls-21{fill:#24af69;}.cls-22{clip-path:url(#clippath);}</style><linearGradient id="linear-gradient" x1="477.76" y1="518.06" x2="677.11" y2="518.06" gradientUnits="userSpaceOnUse"><stop offset="0" stop-color="#dcdcf9"/><stop offset=".55" stop-color="#ccccea"/><stop offset=".72" stop-color="#c9c9e9"/><stop offset=".8" stop-color="#c2c2e6"/><stop offset=".86" stop-color="#b5b5e0"/><stop offset=".91" stop-color="#a3a3d9"/><stop offset=".95" stop-color="#8c8ccf"/><stop offset=".99" stop-color="#7070c4"/><stop offset="1" stop-color="#6464bf"/></linearGradient><linearGradient id="linear-gradient-2" x1="487.83" y1="489.39" x2="687.18" y2="489.39" xlink:href="#linear-gradient"/><linearGradient id="linear-gradient-3" x1="38.99" y1="410.86" x2="238.33" y2="410.86" xlink:href="#linear-gradient"/><linearGradient id="linear-gradient-4" x1="49.05" y1="382.19" x2="248.4" y2="382.19" xlink:href="#linear-gradient"/><linearGradient id="linear-gradient-5" x1="34" y1="357.26" x2="233.35" y2="357.26" xlink:href="#linear-gradient"/><linearGradient id="linear-gradient-6" x1="313.22" y1="324.85" x2="512.57" y2="324.85" xlink:href="#linear-gradient"/><linearGradient id="linear-gradient-7" x1="323.29" y1="296.18" x2="522.64" y2="296.18" xlink:href="#linear-gradient"/><linearGradient id="linear-gradient-8" x1="308.23" y1="271.25" x2="507.58" y2="271.25" xlink:href="#linear-gradient"/><linearGradient id="linear-gradient-9" x1="318.3" y1="242.58" x2="517.65" y2="242.58" xlink:href="#linear-gradient"/><clipPath id="clippath"><path class="cls-3" d="M396.51,20s-92.86,44.05-97.29,59.01c-4.43,14.96,45.5,161.18,61.4,166.51,15.9,5.33,150.46-53.58,155.93-59.61,5.47-6.03-7.24-99.23-17.37-105.62-10.13-6.39-88.45-56.61-102.66-60.29Z"/></clipPath><clipPath id="clippath-1"><path class="cls-1" d="M82.89,204.73c-10.74,1.39-23.16,30.11-23.73,39.87-.56,9.76,12.61,87.26,22.51,95.3,9.89,8.05,57,22.34,67.22,19.87,10.22-2.46,93.82-68.2,86.72-86.7-6.7-17.45-34.18-35.4-52.92-43.23-13.16-5.5-77.96-27.94-99.8-25.11Z"/></clipPath><clipPath id="clippath-2"><path class="cls-15" d="M626.33,352.17c37.51,32.16,26.27,51.75,14.33,71.72s-59.36,86.34-94.72,72.56c-28.02-10.92-53.66-54.7-53.12-82.19.35-17.79,49.1-86.93,82.16-83.4,22.13,2.36,31.05,3.91,51.35,21.31Z"/></clipPath></defs><g class="cls-14"><g id="Layer_1"><path class="cls-2" d="M712.26,526.32c0-15.15-52.46-27.42-117.17-27.42-64.71,0-87.19,11.16-87.19,26.31s22.48,28.54,87.19,28.54c64.71,0,117.17-12.28,117.17-27.42Z"/><path class="cls-13" d="M677.09,508.95c-.9-14.63-45.17-26.41-99.65-26.41s-98.75,11.78-99.65,26.41h-.02v17.3h.02c0,.15-.02.3-.02.46,0,14.84,44.63,26.87,99.67,26.87s99.67-12.03,99.67-26.87c0-.15-.01-.3-.02-.46h.02v-17.3h-.02Z"/><ellipse class="cls-12" cx="577.44" cy="509.41" rx="99.67" ry="26.87"/><path class="cls-2" d="M574.99,524.84l100.96-18.59,1.23,5.35-.07,14.66s.22-9.99-8.57-8.2c-8.79,1.79-26.4,10.99-93.55,6.78Z"/><path class="cls-11" d="M687.16,480.28c-.9-14.63-45.17-26.41-99.65-26.41s-98.75,11.78-99.65,26.41h-.02v17.3h.02c0,.15-.02.3-.02.46,0,14.84,44.63,26.87,99.67,26.87s99.67-12.03,99.67-26.87c0-.15-.01-.3-.02-.46h.02v-17.3h-.02Z"/><ellipse class="cls-12" cx="587.5" cy="480.74" rx="99.67" ry="26.87"/><ellipse class="cls-2" cx="177.35" cy="420.13" rx="117.17" ry="27.42" transform="translate(-11.69 5.13) rotate(-1.6)"/><path class="cls-10" d="M238.31,401.75c-.9-14.63-45.17-26.41-99.65-26.41s-98.75,11.78-99.65,26.41h-.02v17.3h.02c0,.15-.02.3-.02.46,0,14.84,44.63,26.87,99.67,26.87s99.67-12.03,99.67-26.87c0-.15-.01-.3-.02-.46h.02v-17.3h-.02Z"/><path class="cls-12" d="M131.23,417.3l63.57-10.87,42.85-7.31c-5.7-13.38-47.84-23.77-98.99-23.77-55.05,0-99.67,12.03-99.67,26.87s44.63,26.87,99.67,26.87c35.5,0,66.64-5.01,84.3-12.54-12.33,4.87-91.73.76-91.73.76Z"/><path class="cls-12" d="M238.33,402.21c0-1.05-.25-2.08-.68-3.1l-42.85,7.31-63.57,10.87s79.4,4.11,91.73-.76c9.73-4.15,15.38-9.06,15.38-14.33Z"/><path class="cls-2" d="M238.33,402.21c0-1.05-.25-2.08-.68-3.1l-42.85,7.31-63.57,10.87s79.4,4.11,91.73-.76c9.73-4.15,15.38-9.06,15.38-14.33Z"/><path class="cls-2" d="M238.78,420.24h-.09s.06,0,.09,0Z"/><path class="cls-2" d="M222.96,416.54c.08-.03.18-.07.26-.1,11.48-5.03,15.03-1.29,15.12,3.07h0s0-17.3,0-17.3c0,5.27-5.65,10.18-15.38,14.33Z"/><path class="cls-9" d="M248.38,373.08c-.9-14.63-45.17-26.41-99.65-26.41s-98.75,11.78-99.65,26.41h-.02v17.3h.02c0,.15-.02.3-.02.46,0,14.84,44.63,26.87,99.67,26.87s99.67-12.03,99.67-26.87c0-.15-.01-.3-.02-.46h.02v-17.3h-.02Z"/><path class="cls-12" d="M239.76,383.44c-8.79,1.79-26.24,11.77-93.39,7.55l81.63-33.73c-18.21-6.43-46.94-10.59-79.28-10.59-55.05,0-99.67,12.03-99.67,26.87s44.63,26.87,99.67,26.87c42.35,0,78.5-7.12,92.94-17.16-.59,0-1.21.05-1.91.19Z"/><path class="cls-2" d="M241.67,383.24c6.83-.06,6.66,8.39,6.66,8.39l.07-14.66v-3.44c0,3.42-2.4,6.69-6.73,9.71Z"/><path class="cls-12" d="M228.01,357.26l-81.63,33.73c67.15,4.21,84.6-5.76,93.39-7.55.7-.14,1.32-.19,1.91-.19,4.33-3.01,6.73-6.28,6.73-9.71,0-6.12-7.61-11.76-20.39-16.28Z"/><path class="cls-2" d="M228.01,357.26l-81.63,33.73c79.59.47,84.6-5.76,93.39-7.55.7-.14,1.32-.19,1.91-.19,4.33-3.01,6.73-6.28,6.73-9.71,0-6.12-7.61-11.76-20.39-16.28Z"/><path class="cls-6" d="M233.33,348.15c-.9-14.63-45.17-26.41-99.65-26.41s-98.75,11.78-99.65,26.41h-.02v17.3h.02c0,.15-.02.3-.02.46,0,14.84,44.63,26.87,99.67,26.87s99.67-12.03,99.67-26.87c0-.15-.01-.3-.02-.46h.02v-17.3h-.02Z"/><ellipse class="cls-12" cx="133.67" cy="348.61" rx="99.67" ry="26.87"/><ellipse class="cls-2" cx="451.58" cy="334.12" rx="117.17" ry="27.42" transform="translate(-9.17 12.77) rotate(-1.6)"/><path class="cls-7" d="M512.55,315.74c-.9-14.63-45.17-26.41-99.65-26.41s-98.75,11.78-99.65,26.41h-.02v17.3h.02c0,.15-.02.3-.02.46,0,14.84,44.63,26.87,99.67,26.87s99.67-12.03,99.67-26.87c0-.15-.01-.3-.02-.46h.02v-17.3h-.02Z"/><path class="cls-12" d="M405.46,331.29l63.57-10.87,42.85-7.31c-5.7-13.38-47.84-23.77-98.99-23.77-55.05,0-99.67,12.03-99.67,26.87s44.63,26.87,99.67,26.87c35.5,0,66.64-5.01,84.3-12.54-12.33,4.87-91.73.76-91.73.76Z"/><path class="cls-12" d="M512.57,316.2c0-1.05-.25-2.08-.68-3.1l-42.85,7.31-63.57,10.87s79.4,4.11,91.73-.76c9.73-4.15,15.38-9.06,15.38-14.33Z"/><path class="cls-2" d="M512.57,316.2c0-1.05-.25-2.08-.68-3.1l-42.85,7.31-63.57,10.87s79.4,4.11,91.73-.76c9.73-4.15,15.38-9.06,15.38-14.33Z"/><path class="cls-2" d="M513.01,334.23h-.09s.06,0,.09,0Z"/><path class="cls-2" d="M497.19,330.53c.08-.03.18-.07.26-.1,11.48-5.03,15.03-1.29,15.12,3.07h0s0-17.3,0-17.3c0,5.27-5.65,10.18-15.38,14.33Z"/><path class="cls-5" d="M522.61,287.07c-.9-14.63-45.17-26.41-99.65-26.41s-98.75,11.78-99.65,26.41h-.02v17.3h.02c0,.15-.02.3-.02.46,0,14.84,44.63,26.87,99.67,26.87s99.67-12.03,99.67-26.87c0-.15-.01-.3-.02-.46h.02v-17.3h-.02Z"/><path class="cls-12" d="M514,297.43c-8.79,1.79-26.24,11.77-93.39,7.55l81.63-33.73c-18.21-6.43-46.94-10.59-79.28-10.59-55.05,0-99.67,12.03-99.67,26.87s44.63,26.87,99.67,26.87c42.35,0,78.5-7.12,92.94-17.16-.59,0-1.21.05-1.91.19Z"/><path class="cls-2" d="M515.9,297.23c6.83-.06,6.66,8.39,6.66,8.39l.07-14.66v-3.44c0,3.42-2.4,6.69-6.73,9.71Z"/><path class="cls-12" d="M502.24,271.25l-81.63,33.73c67.15,4.21,84.6-5.76,93.39-7.55.7-.14,1.32-.19,1.91-.19,4.33-3.01,6.73-6.28,6.73-9.71,0-6.12-7.61-11.76-20.39-16.28Z"/><path class="cls-2" d="M502.24,271.25l-81.63,33.73c79.59.47,84.6-5.76,93.39-7.55.7-.14,1.32-.19,1.91-.19,4.33-3.01,6.73-6.28,6.73-9.71,0-6.12-7.61-11.76-20.39-16.28Z"/><path class="cls-4" d="M507.56,262.14c-.9-14.63-45.17-26.41-99.65-26.41s-98.75,11.78-99.65,26.41h-.02v17.3h.02c0,.15-.02.3-.02.46,0,14.84,44.63,26.87,99.67,26.87s99.67-12.03,99.67-26.87c0-.15-.01-.3-.02-.46h.02v-17.3h-.02Z"/><ellipse class="cls-12" cx="407.91" cy="262.6" rx="99.67" ry="26.87"/><path class="cls-2" d="M405.46,278.03l100.96-18.59,1.23,5.35-.07,14.66s.22-9.99-8.57-8.2c-8.79,1.79-26.4,10.99-93.55,6.78Z"/><path class="cls-8" d="M517.63,233.47c-.9-14.63-45.17-26.41-99.65-26.41s-98.75,11.78-99.65,26.41h-.02v17.3h.02c0,.15-.02.3-.02.46,0,14.84,44.63,26.87,99.67,26.87s99.67-12.03,99.67-26.87c0-.15-.01-.3-.02-.46h.02v-17.3h-.02Z"/><ellipse class="cls-12" cx="417.98" cy="233.93" rx="99.67" ry="26.87"/><path class="cls-2" d="M517.57,233.12c-.03-.29-.07-.57-.13-.85-.04-.17-.09-.34-.14-.51-.08-.28-.17-.57-.29-.85-.07-.17-.15-.33-.23-.49-.14-.28-.28-.56-.44-.84-.1-.16-.21-.32-.32-.48-.19-.28-.38-.56-.6-.83-.13-.16-.27-.31-.4-.47-.24-.27-.48-.55-.74-.81-.15-.16-.32-.31-.49-.46-.28-.27-.57-.54-.89-.8-.18-.15-.38-.3-.57-.45-.33-.26-.66-.52-1.02-.78-.21-.15-.43-.3-.65-.44-.37-.26-.75-.51-1.16-.76-.23-.15-.49-.29-.73-.44-.42-.25-.84-.5-1.28-.74-.26-.14-.54-.29-.81-.43-.46-.24-.91-.48-1.4-.72-.29-.14-.6-.28-.9-.42-.5-.23-.99-.46-1.51-.69-.32-.14-.65-.28-.98-.41-.53-.22-1.06-.45-1.62-.66-.35-.14-.71-.27-1.06-.4-.56-.21-1.13-.43-1.72-.64-.38-.13-.77-.26-1.16-.4-.59-.2-1.18-.41-1.8-.61-.41-.13-.84-.26-1.25-.39-.62-.19-1.23-.39-1.87-.57-.44-.13-.89-.25-1.34-.38-.65-.18-1.29-.37-1.96-.54-.47-.12-.95-.25-1.43-.37-.67-.17-1.33-.34-2.02-.51-.5-.12-1.02-.24-1.53-.36-.69-.16-1.37-.32-2.07-.48-.54-.12-1.09-.23-1.64-.35-.7-.15-1.4-.3-2.11-.44-.58-.12-1.17-.22-1.75-.34-.71-.14-1.41-.27-2.14-.4-.6-.11-1.22-.21-1.84-.32-.73-.13-1.45-.25-2.19-.37-.63-.1-1.27-.2-1.9-.29-.75-.12-1.49-.23-2.25-.35-.67-.1-1.35-.19-2.02-.28-.75-.1-1.49-.21-2.25-.31-.71-.09-1.44-.18-2.16-.26-.74-.09-1.48-.18-2.23-.27-.74-.08-1.5-.16-2.26-.24-.75-.08-1.49-.16-2.25-.24-.77-.08-1.55-.14-2.33-.21-.76-.07-1.52-.14-2.28-.21-.8-.07-1.62-.12-2.44-.19-.76-.06-1.5-.12-2.27-.17-.84-.06-1.69-.11-2.53-.16-.76-.05-1.51-.1-2.27-.14-.88-.05-1.78-.09-2.67-.13-.74-.03-1.46-.07-2.2-.11-.98-.04-1.97-.07-2.96-.1-.67-.02-1.33-.05-2-.07-1.08-.03-2.18-.05-3.28-.07-.59-.01-1.17-.03-1.76-.04-1.69-.02-3.39-.03-5.1-.03s-3.41.01-5.1.03c-.59,0-1.17.02-1.76.04-1.09.02-2.19.04-3.28.07-.67.02-1.33.05-2,.07-.99.03-1.98.06-2.96.1-.74.03-1.47.07-2.2.11-.89.04-1.79.08-2.68.13-.76.04-1.51.09-2.27.14-.84.05-1.7.1-2.53.16-.76.05-1.51.11-2.26.17-.81.06-1.63.12-2.44.19-.77.06-1.52.14-2.28.21-.78.07-1.56.14-2.33.21-.76.07-1.5.16-2.25.24-.75.08-1.51.16-2.26.24-.75.09-1.49.18-2.23.27-.72.09-1.45.17-2.16.26-.76.1-1.5.2-2.25.31-.68.09-1.36.18-2.03.28-.76.11-1.5.23-2.25.34-.63.1-1.28.19-1.9.3-.74.12-1.46.25-2.19.37-.61.11-1.24.21-1.84.32-.72.13-1.42.27-2.13.4-.59.11-1.18.22-1.76.34-.71.14-1.41.29-2.11.44-.55.12-1.1.23-1.64.35-.7.16-1.38.32-2.07.48-.51.12-1.03.24-1.53.36-.69.17-1.35.34-2.02.51-.48.12-.96.24-1.43.37-.66.18-1.31.36-1.95.54-.34.09-.68.19-1.01.28,4.16,13.71,13.77,27.87,15.73,29.85,2.4,2.43,84.42-.45,154.51-5.59,1.64-1.93,2.53-3.94,2.53-6.01,0-.27-.05-.54-.08-.8Z"/><path class="cls-3" d="M396.51,20s-92.86,44.05-97.29,59.01c-4.43,14.96,45.5,161.18,61.4,166.51,15.9,5.33,150.46-53.58,155.93-59.61,5.47-6.03-7.24-99.23-17.37-105.62-10.13-6.39-88.45-56.61-102.66-60.29Z"/><g class="cls-22"><path class="cls-19" d="M499.16,80.29c-2.48,23.78-35.85,65.1-51.31,77.56-15.46,12.47-87.24,87.67-87.24,87.67l94.88,21.2,120.68-76.36-77.01-110.08"/></g><path class="cls-2" d="M133.67,321.74c-20.77,0-40.06,1.71-56.03,4.65,2.61,7.5,13.08,16.11,25.53,19.6.7.2,35.21,14.01,43.14,14.07,20.37.15,52.94-.74,82.31-3.27,3.05-2.58,4.72-5.33,4.72-8.18,0-14.84-44.63-26.87-99.67-26.87Z"/><path class="cls-1" d="M82.89,204.73c-10.74,1.39-23.16,30.11-23.73,39.87-.56,9.76,12.61,87.26,22.51,95.3,9.89,8.05,57,22.34,67.22,19.87,10.22-2.46,93.82-68.2,86.72-86.7-6.7-17.45-34.18-35.4-52.92-43.23-13.16-5.5-77.96-27.94-99.8-25.11Z"/><g class="cls-17"><path class="cls-20" d="M98.7,316.3c24.13-6.54,63.42-8.34,93.83-14.25,30.42-5.91,86.8-47.66,102-63.24,15.2-15.58,23.66,6.56,23.66,6.56l3.33,94.58-56.55,26.05-186.68-4.88,20.41-44.83"/><polygon class="cls-16" points="37.75 167.24 -4.8 204.86 68.92 378.1 98.38 316.58 37.75 167.24"/></g><path class="cls-2" d="M587.5,453.87c-29.34,0-55.71,3.42-73.95,8.85,12.8,15.87,38.66,35.56,43.7,35.6,30.59.23,87.33-1.78,123.11-7.83,4.37-3.02,6.8-6.31,6.8-9.75,0-14.84-44.63-26.87-99.67-26.87Z"/><path class="cls-15" d="M626.33,352.17c37.51,32.16,26.27,51.75,14.33,71.72s-59.36,86.34-94.72,72.56c-28.02-10.92-53.66-54.7-53.12-82.19.35-17.79,49.1-86.93,82.16-83.4,22.13,2.36,31.05,3.91,51.35,21.31Z"/><g class="cls-18"><path class="cls-21" d="M492.81,463.33s43.3,14.22,95.34-6.31c52.04-20.53,75.86-60.1,75.86-60.1l-11.96,64.3-11.23,86.41-130.65-4.21-17.37-80.09Z"/></g><path class="cls-2" d="M515.12,239.93s2.18,5.53,2.53,11.3v-17.3s.35,3.07-2.53,6.01Z"/><path class="cls-2" d="M680.38,490.49s6.45,1.78,6.8,7.55l-.03-16.61s.55,4.08-6.77,9.06Z"/><path class="cls-2" d="M228.63,356.78s4.37,3.48,4.72,9.25l-.03-16.61s-.49,4.33-4.68,7.36Z"/></g></g></svg>