<?xml version="1.0" encoding="UTF-8"?><svg id="Layer_1" xmlns="http://www.w3.org/2000/svg" viewBox="0 0 800 600"><defs><style>.cls-1{fill:#3ae668;}.cls-2{fill:#fff;}</style></defs><ellipse class="cls-1" cx="441" cy="465" rx="257" ry="117" transform="translate(-45.63 47.99) rotate(-5.92)"/><path d="M150.63,316.23c-8.63,0-16.9-3.02-23.56-8.67L25.67,221.54c-7.44-6.31-11.97-15.14-12.77-24.86-.8-9.72,2.24-19.17,8.55-26.61l86.01-101.4c6.31-7.44,15.14-11.97,24.86-12.77,9.73-.8,19.17,2.24,26.61,8.55l101.4,86.01c15.36,13.02,17.25,36.11,4.23,51.47l-86.01,101.4c-6.31,7.44-15.14,11.97-24.86,12.77-1.02.08-2.04.13-3.05.13ZM135.33,73.78c-.51,0-1.03.02-1.55.06-4.93.4-9.41,2.71-12.61,6.48l-86.01,101.4c-6.6,7.79-5.64,19.5,2.14,26.1l101.4,86.01c7.79,6.6,19.5,5.64,26.1-2.14l86.01-101.4c6.6-7.79,5.64-19.5-2.14-26.1l-101.4-86.01c-3.38-2.86-7.57-4.4-11.95-4.4ZM257.69,196.1h0,0Z"/><path d="M681,256.5c-53.76,0-97.5-43.74-97.5-97.5s43.74-97.5,97.5-97.5,97.5,43.74,97.5,97.5-43.74,97.5-97.5,97.5ZM681,79.5c-43.84,0-79.5,35.66-79.5,79.5s35.66,79.5,79.5,79.5,79.5-35.66,79.5-79.5-35.66-79.5-79.5-79.5Z"/><path d="M421.73,202.57c-1.65,0-3.31-.1-4.97-.29-14.7-1.74-26.96-10.9-32.79-24.5l-50.52-117.64c-5.84-13.6-4.04-28.79,4.82-40.65,8.86-11.85,22.91-17.89,37.61-16.15l127.14,15.07c14.7,1.74,26.96,10.9,32.79,24.5,5.84,13.6,4.04,28.79-4.82,40.65l-76.62,102.57c-7.85,10.51-19.79,16.45-32.64,16.45ZM349.98,53.03l50.52,117.64c3.27,7.62,10.14,12.75,18.37,13.73,8.23.97,16.11-2.41,21.07-9.05l76.62-102.57c4.96-6.64,5.97-15.16,2.7-22.77s-10.14-12.75-18.37-13.73l-127.14-15.07c-8.23-.98-16.11,2.41-21.07,9.05-4.96,6.64-5.97,15.16-2.7,22.77Z"/><rect class="cls-2" x="277" y="427" width="315" height="52" rx="26" ry="26"/><path d="M566,488h-263c-19.3,0-35-15.7-35-35s15.7-35,35-35h263c19.3,0,35,15.7,35,35s-15.7,35-35,35ZM303,436c-9.37,0-17,7.63-17,17s7.63,17,17,17h263c9.37,0,17-7.63,17-17s-7.63-17-17-17h-263Z"/><line class="cls-2" x1="302.33" y1="431.98" x2="312" y2="456"/><path d="M312,461c-1.98,0-3.86-1.18-4.64-3.13l-9.67-24.02c-1.03-2.56.21-5.47,2.77-6.51,2.56-1.03,5.47.21,6.51,2.77l9.67,24.02c1.03,2.56-.21,5.47-2.77,6.51-.61.25-1.24.36-1.87.36Z"/><line class="cls-2" x1="565.67" y1="427.63" x2="559" y2="458"/><path d="M559,463c-.36,0-.72-.04-1.08-.12-2.7-.59-4.4-3.26-3.81-5.96l6.67-30.37c.59-2.7,3.26-4.4,5.96-3.81,2.7.59,4.4,3.26,3.81,5.96l-6.67,30.37c-.51,2.34-2.58,3.93-4.88,3.93Z"/><path class="cls-2" d="M335,381c-3-6-38-68-83-105"/><path d="M335.01,390c-3.3,0-6.48-1.82-8.06-4.98-.3-.61-34.89-64.44-80.67-102.07-3.84-3.16-4.39-8.83-1.24-12.67,3.16-3.84,8.83-4.39,12.67-1.24,49.3,40.54,85.01,107.29,85.33,107.93,2.22,4.45.42,9.85-4.02,12.08-1.29.65-2.67.95-4.02.95Z"/><path d="M347.01,405c-.47,0-.95-.04-1.43-.11l-50-8c-4.91-.79-8.25-5.4-7.46-10.31s5.4-8.25,10.31-7.46l42.56,6.81,12.52-35.9c1.64-4.69,6.77-7.17,11.46-5.54,4.69,1.64,7.17,6.77,5.54,11.46l-15,43.02c-1.28,3.66-4.72,6.04-8.49,6.04Z"/><path class="cls-2" d="M441.96,355.96c.88-6.65,2.04-60.96,2.04-122.96"/><path d="M441.97,364.96c-.39,0-.79-.03-1.19-.08-4.93-.65-8.39-5.17-7.74-10.1.69-5.23,1.96-55.45,1.96-121.78,0-4.97,4.03-9,9-9s9,4.03,9,9c0,60.89-1.14,116.73-2.12,124.14-.6,4.53-4.46,7.82-8.91,7.82Z"/><path d="M443.49,384.11c-1.83,0-3.67-.56-5.24-1.68l-36.49-26.11c-4.04-2.89-4.97-8.51-2.08-12.56s8.51-4.97,12.56-2.08l31.14,22.29,31.27-23.29c3.99-2.97,9.63-2.14,12.59,1.84,2.97,3.99,2.14,9.62-1.84,12.59l-36.54,27.21c-1.59,1.19-3.48,1.78-5.38,1.78Z"/><path d="M552.27,380.23c-1.42,0-2.87-.34-4.21-1.05-4.29-2.27-5.98-7.52-3.89-11.85.27-.78.81-3.03,1.29-5.03,4.17-17.35,15.26-63.46,60.88-100.3,3.87-3.12,9.53-2.52,12.66,1.35,3.12,3.87,2.52,9.53-1.35,12.66-40.86,33-50.55,73.3-54.69,90.51-1.08,4.47-1.67,6.93-2.73,8.94-1.62,3.04-4.73,4.78-7.96,4.78ZM544.33,367.01c-.03.06-.06.12-.1.19.03-.06.06-.12.1-.19Z"/><path d="M547.03,398.71c-2.94,0-5.76-1.44-7.46-3.97l-25.08-37.2c-2.78-4.12-1.69-9.71,2.43-12.49,4.12-2.78,9.71-1.69,12.49,2.43l21.41,31.75,37.43-10.91c4.77-1.39,9.77,1.35,11.16,6.12,1.39,4.77-1.35,9.77-6.12,11.16l-43.74,12.75c-.83.24-1.68.36-2.52.36Z"/><path class="cls-1" d="M213.69,187.75c-2.2,0-4.41-.8-6.15-2.43-.41-.39-41.54-38.82-68.11-60.46-3.85-3.14-4.43-8.81-1.3-12.66,3.14-3.85,8.81-4.43,12.66-1.3,27.05,22.03,67.34,59.68,69.04,61.27,3.63,3.4,3.82,9.09.42,12.72-1.77,1.89-4.17,2.85-6.57,2.85Z"/><path class="cls-1" d="M455.99,124c-1.79,0-3.6-.53-5.18-1.64-4.06-2.86-5.04-8.48-2.17-12.54.1-.14,9.68-13.76,21.86-32.48,2-3.08,1-5.99.48-7.09-.52-1.11-2.13-3.72-5.77-4.14-4.94-.56-8.49-5.02-7.93-9.96.56-4.94,5.01-8.49,9.96-7.93,8.77,1,16.26,6.36,20.02,14.35,3.77,7.99,3.14,17.18-1.67,24.58-12.37,19.02-22.13,32.9-22.23,33.04-1.75,2.49-4.54,3.82-7.36,3.82Z"/><path class="cls-1" d="M735.38,185.14c-.9,0-1.81-.13-2.71-.42-4.74-1.49-7.38-6.55-5.88-11.29,1.46-4.65,2.21-9.5,2.21-14.43,0-18.25-10.13-34.68-26.44-42.9-4.44-2.24-6.23-7.65-3.99-12.09,2.24-4.44,7.65-6.22,12.09-3.99,22.42,11.29,36.34,33.89,36.34,58.97,0,6.76-1.02,13.44-3.04,19.84-1.21,3.84-4.76,6.3-8.58,6.3Z"/></svg>