<svg fill="none" height="573" viewBox="0 0 2361 573" width="2361" xmlns="http://www.w3.org/2000/svg" xmlns:xlink="http://www.w3.org/1999/xlink"><clipPath id="a"><path d="m0 0h2361v573h-2361z"/></clipPath><g clip-path="url(#a)" fill="#000"><path d="m1818.26 128.164h-129.82c-8.87 0-16.46 6.478-17.8 15.232l-52.51 332.956c-1.05 6.595 4.03 12.49 10.68 12.49h66.63c6.18 0 11.49-4.494 12.49-10.68l14.87-94.372c1.4-8.754 8.93-15.233 17.8-15.233h41.08c85.53 0 134.83-41.378 147.73-123.436 5.78-35.892.23-64.081-16.57-83.808-18.44-21.71-51.17-33.149-94.64-33.149zm14.99 121.568c-7.11 46.631-42.71 46.631-77.13 46.631h-19.6l13.71-87.018c.81-5.252 5.36-9.162 10.67-9.162h8.99c23.45 0 45.57 0 57 13.364 6.83 7.996 8.87 19.844 6.31 36.185z"/><path d="m892.296 128.164h-129.821c-8.869 0-16.454 6.478-17.796 15.232l-52.512 332.956c-1.05 6.595 4.026 12.49 10.678 12.49h61.964c8.868 0 16.454-6.478 17.796-15.233l14.178-89.819c1.4-8.754 8.927-15.233 17.796-15.233h41.076c85.536 0 134.839-41.378 147.735-123.436 5.77-35.892.23-64.081-16.572-83.808-18.437-21.71-51.17-33.149-94.638-33.149zm14.995 121.568c-7.118 46.631-42.709 46.631-77.134 46.631h-19.604l13.711-87.018c.817-5.252 5.368-9.162 10.678-9.162h8.985c23.455 0 45.569 0 56.946 13.364 6.827 7.996 8.869 19.844 6.302 36.185z"/><path d="m1280.36 248.273h-62.14c-5.31 0-9.86 3.852-10.68 9.163l-2.74 17.392-4.32-6.304c-13.47-19.551-43.46-26.087-73.4-26.087-68.67 0-127.367 52.059-138.745 125.07-5.951 36.418 2.509 71.26 23.165 95.539 18.96 22.294 46.03 31.632 78.3 31.632 55.37 0 86.06-35.601 86.06-35.601l-2.8 17.275c-1.05 6.595 4.03 12.548 10.68 12.548h55.95c8.87 0 16.46-6.478 17.8-15.232l33.61-212.847c1.05-6.595-4.03-12.49-10.68-12.49zm-86.64 120.985c-6.01 35.542-34.2 59.354-70.2 59.354-18.02 0-32.44-5.778-41.71-16.808-9.22-10.914-12.66-26.38-9.75-43.655 5.6-35.193 34.25-59.822 69.67-59.822 17.68 0 31.97 5.837 41.42 16.925 9.52 11.148 13.25 26.789 10.57 43.947z"/><path d="m2206.26 248.273h-62.13c-5.31 0-9.87 3.852-10.68 9.163l-2.74 17.392-4.32-6.304c-13.48-19.551-43.47-26.087-73.4-26.087-68.68 0-127.37 52.059-138.75 125.07-5.95 36.418 2.51 71.26 23.16 95.539 18.97 22.294 46.04 31.632 78.3 31.632 55.38 0 86.07-35.601 86.07-35.601l-2.81 17.275c-1.05 6.595 4.03 12.548 10.68 12.548h55.96c8.87 0 16.45-6.478 17.79-15.232l33.61-212.847c1.05-6.595-4.03-12.49-10.68-12.49zm-86.64 120.985c-6.01 35.542-34.19 59.354-70.19 59.354-18.03 0-32.44-5.778-41.72-16.808-9.22-10.914-12.66-26.38-9.74-43.655 5.6-35.193 34.25-59.822 69.66-59.822 17.68 0 31.98 5.837 41.43 16.925 9.51 11.148 13.24 26.789 10.56 43.947z"/><path d="m1611.42 248.273h-62.49c-5.95 0-11.55 2.976-14.94 7.937l-86.17 126.996-36.53-122.035c-2.28-7.645-9.34-12.898-17.27-12.898h-61.44c-7.41 0-12.66 7.295-10.27 14.299l68.79 201.991-64.7 91.337c-5.08 7.179 0 17.1 8.81 17.1h62.43c5.89 0 11.43-2.918 14.82-7.762l207.77-299.982c4.96-7.178-.17-16.983-8.87-16.983z"/><path d="m2279.55 137.268-53.27 339.084c-1.05 6.595 4.02 12.49 10.67 12.49h53.57c8.87 0 16.45-6.478 17.79-15.233l52.51-332.956c1.06-6.595-4.02-12.489-10.67-12.489h-59.98c-5.31 0-9.86 3.851-10.68 9.162z"/><path d="m189.802 118.942c4.609-2.218 9.569-3.326 14.703-3.326h139.566c17.387 0 33.491 1.167 47.902 3.501 4.259.701 8.402 1.459 12.428 2.393 4.026.876 7.993 1.926 11.844 3.035 1.926.584 3.793 1.167 5.66 1.751 1.867.642 3.617 1.342 5.426 2.042 2.801-38.1684-7.818-64.7816-26.256-85.15-26.956-29.8231-74.45-43.188-135.831-43.188h-165.7629c-12.5446 0-23.222 9.1045-25.1475 21.5356l-74.158657 470.2244c-1.458673 9.279 5.717977 17.684 15.111757 17.684h97.6723l57.938-365.056c1.751-11.03 8.811-20.543 18.905-25.387z"/><path d="m414.495 148.59c-1.575-.525-3.209-1.051-4.843-1.517-3.325-.993-6.768-1.868-10.327-2.627-3.617-.817-7.293-1.517-11.086-2.101-13.186-2.159-28.065-3.21-44.168-3.21h-129.588c-3.443 0-6.71.759-9.628 2.16-6.418 3.093-11.202 9.163-12.369 16.633l-23.397 148.823c2.509-.466 5.134-.758 7.993-.758h52.221c27.714 0 52.453-3.093 74.333-9.397 55.313-15.874 92.48-51.884 111.151-109.137 4.143-12.664 7.177-24.395 9.277-35.309-3.034-1.284-6.185-2.51-9.51-3.618z"/><path d="m462.514 175.67c-4.492-5.136-9.977-9.396-15.812-13.365-14.47 69.918-57.529 168.258-219.091 168.258-.351 0-40.026-.116-40.026-.116-12.545 0-23.106 9.104-25.089 21.535 0 0-31.099 196.039-32.616 206.311-1.226 8.17 5.834 14.765 13.244 14.765h80.402c10.969 0 20.305-7.995 21.997-18.792l19.488-121.51c1.692-10.856 11.027-18.793 21.996-18.793h13.887c89.737 0 160.045-36.476 180.583-141.937.584-3.151 1.167-6.303 1.634-9.455 4.259-35.367-1.459-65.073-20.538-86.784z"/></g></svg>