<svg width="62" height="60" viewBox="0 0 62 60" fill="none" xmlns="http://www.w3.org/2000/svg">
<path d="M20.353 0.000321702C20.353 0.000321702 0.0802135 17.4668 0.000211648 21.528C-0.0797902 25.5892 22.5446 58.8511 26.9024 59.0929C31.2603 59.3347 60.976 35.2623 61.9333 33.3692C62.8907 31.477 53.2689 8.95783 50.2836 8.05264C47.2993 7.14745 24.1743 -0.0554099 20.353 0.000321702Z" fill="#7878EF"/>
<mask id="mask0_629_816" style="mask-type:luminance" maskUnits="userSpaceOnUse" x="0" y="0" width="62" height="60">
<path d="M20.353 0.000321702C20.353 0.000321702 0.0802135 17.4668 0.000211648 21.528C-0.0797902 25.5892 22.5446 58.8511 26.9024 59.0929C31.2603 59.3347 60.976 35.2623 61.9333 33.3692C62.8907 31.477 53.2689 8.95783 50.2836 8.05264C47.2993 7.14745 24.1743 -0.0554099 20.353 0.000321702Z" fill="white"/>
</mask>
<g mask="url(#mask0_629_816)">
<path d="M50.2835 8.05311C51.301 14.1935 45.7737 26.8679 42.7534 31.064C39.7331 35.26 26.9023 59.0925 26.9023 59.0925L52.1846 57.8682L77.2117 30.3718L50.2835 8.05222" fill="#5C5CCF"/>
</g>
</svg>
