<svg fill="none" height="55" viewBox="0 0 62 55" width="62" xmlns="http://www.w3.org/2000/svg" xmlns:xlink="http://www.w3.org/1999/xlink"><mask id="a" height="25" maskUnits="userSpaceOnUse" width="29" x="0" y="0"><path d="m3.77504.0390199c-1.7082.2212901-3.6829866 4.7874901-3.77227896 6.3391101-.08929234 1.55161 2.00583896 13.87457 3.57880896 15.15447 1.57297 1.2798 9.06383 3.5516 10.68853 3.1595 1.6248-.3921 14.919-10.8445 13.7892-13.786-1.0663-2.77513-5.4352-5.62925-8.4142-6.87416-2.0925-.87481-12.39607-4.442617-15.87006-3.9929201z" fill="#fff"/></mask><mask id="b" height="21" maskUnits="userSpaceOnUse" width="20" x="4" y="34"><path d="m20.5658 37.0494c4.6076 3.9496 3.2268 6.3566 1.7599 8.8089-1.4668 2.4523-7.2902 10.6051-11.6345 8.9124-3.44164-1.3407-6.59146-6.7189-6.52352-10.0946.04335-2.185 6.03042-10.6775 10.09072-10.244 2.7182.2905 3.8143.4801 6.3074 2.618z" fill="#fff"/></mask><mask id="c" height="34" maskUnits="userSpaceOnUse" width="35" x="27" y="16"><path d="m38.4088 16.6666s-11.2398 9.6838-11.2841 11.9355c-.0444 2.2516 12.4991 20.6929 14.9153 20.827 2.4161.134 18.8913-13.2124 19.422-14.2619.5308-1.0491-4.8038-13.5343-6.4589-14.0362-1.6546-.5019-14.4757-4.4953-16.5943-4.4644z" fill="#fff"/></mask><path d="m3.77504.0390199c-1.7082.2212901-3.6829866 4.7874901-3.77227896 6.3391101-.08929234 1.55161 2.00583896 13.87457 3.57880896 15.15447 1.57297 1.2798 9.06383 3.5516 10.68853 3.1595 1.6248-.3921 14.919-10.8445 13.7892-13.786-1.0663-2.77513-5.4352-5.62925-8.4142-6.87416-2.0925-.87481-12.39607-4.442617-15.87006-3.9929201z" fill="#ff807d"/><g mask="url(#a)"><path d="m6.28961 17.7803c3.83759-1.0398 10.08359-1.3271 14.92019-2.266 4.8367-.9389 13.8028-7.57885 16.2195-10.05509 2.4167-2.4769 3.762 1.04368 3.762 1.04368l.5299 15.03931-8.992 4.143-29.68388-.7764 3.24493-7.1279" fill="#c65568"/><path d="m-3.4027-5.92294-6.7655 5.9819401 11.72316 27.5472999 4.68332-9.7827z" fill="#ff9388"/></g><path d="m20.5658 37.0494c4.6076 3.9496 3.2268 6.3566 1.7599 8.8089-1.4668 2.4523-7.2902 10.6051-11.6345 8.9124-3.44164-1.3407-6.59146-6.7189-6.52352-10.0946.04335-2.185 6.03042-10.6775 10.09072-10.244 2.7182.2905 3.8143.4801 6.3074 2.618z" fill="#45e56e"/><g mask="url(#b)"><path d="m4.16737 50.7027s5.31871 1.747 11.71023-.7752c6.3915-2.5222 9.3175-7.3821 9.3175-7.3821l-1.4682 7.8984-1.3788 10.6129-16.04678-.5176z" fill="#2eaf6b"/></g><path d="m38.4088 16.6666s-11.2398 9.6838-11.2841 11.9355c-.0444 2.2516 12.4991 20.6929 14.9153 20.827 2.4161.134 18.8913-13.2124 19.422-14.2619.5308-1.0491-4.8038-13.5343-6.4589-14.0362-1.6546-.5019-14.4757-4.4953-16.5943-4.4644z" fill="#7878ef"/><g mask="url(#c)"><path d="m55.003 21.1313c.5642 3.4043-2.5003 10.4314-4.1748 12.7578-1.6746 2.3264-8.7883 15.5397-8.7883 15.5397l14.0172-.6787 13.8757-15.2448-14.9298-12.3745" fill="#5c5ccf"/></g></svg>