<svg width="62" height="55" viewBox="0 0 62 55" fill="none" xmlns="http://www.w3.org/2000/svg">
<path d="M3.77504 0.0390199C2.06684 0.26031 0.0920534 4.82651 0.00276104 6.37813C-0.0865313 7.92974 2.0086 20.2527 3.58157 21.5326C5.15454 22.8124 12.6454 25.0842 14.2701 24.6921C15.8949 24.3 29.1891 13.8476 28.0593 10.9061C26.993 8.13097 22.6241 5.27685 19.6451 4.03194C17.5526 3.15713 7.24903 -0.410677 3.77504 0.0390199Z" fill="#FF807D"/>
<mask id="mask0_629_807" style="mask-type:luminance" maskUnits="userSpaceOnUse" x="0" y="0" width="29" height="25">
<path d="M3.77504 0.0390199C2.06684 0.26031 0.0920534 4.82651 0.00276104 6.37813C-0.0865313 7.92974 2.0086 20.2527 3.58157 21.5326C5.15454 22.8124 12.6454 25.0842 14.2701 24.6921C15.8949 24.3 29.1891 13.8476 28.0593 10.9061C26.993 8.13097 22.6241 5.27685 19.6451 4.03194C17.5526 3.15713 7.24903 -0.410677 3.77504 0.0390199Z" fill="white"/>
</mask>
<g mask="url(#mask0_629_807)">
<path d="M6.28961 17.7803C10.1272 16.7405 16.3732 16.4532 21.2098 15.5143C26.0465 14.5754 35.0126 7.93545 37.4293 5.45921C39.846 2.98231 41.1913 6.50289 41.1913 6.50289L41.7212 21.5422L32.7292 25.6852L3.04532 24.9088L6.29025 17.7809" fill="#C65568"/>
<path d="M-3.4027 -5.92294L-10.1682 0.0590001L1.55496 27.6063L6.23828 17.8236L-3.4027 -5.92294Z" fill="#FF9388"/>
</g>
<path d="M20.5658 37.0494C25.1734 40.999 23.7926 43.406 22.3257 45.8583C20.8589 48.3106 15.0355 56.4634 10.6912 54.7707C7.24956 53.43 4.09974 48.0518 4.16768 44.6761C4.21103 42.4911 10.1981 33.9986 14.2584 34.4321C16.9766 34.7226 18.0727 34.9122 20.5658 37.0501V37.0494Z" fill="#45E56E"/>
<mask id="mask1_629_807" style="mask-type:luminance" maskUnits="userSpaceOnUse" x="4" y="34" width="20" height="21">
<path d="M20.5658 37.0494C25.1734 40.999 23.7926 43.406 22.3257 45.8583C20.8589 48.3106 15.0355 56.4634 10.6912 54.7707C7.24956 53.43 4.09974 48.0518 4.16768 44.6761C4.21103 42.4911 10.1981 33.9986 14.2584 34.4321C16.9766 34.7226 18.0727 34.9122 20.5658 37.0501V37.0494Z" fill="white"/>
</mask>
<g mask="url(#mask1_629_807)">
<path d="M4.16737 50.7027C4.16737 50.7027 9.48608 52.4497 15.8776 49.9275C22.2691 47.4053 25.1951 42.5454 25.1951 42.5454L23.7269 50.4438L22.3481 61.0567L6.30132 60.5391L4.16737 50.7027Z" fill="#2EAF6B"/>
</g>
<path d="M38.4088 16.6666C38.4088 16.6666 27.169 26.3504 27.1247 28.6021C27.0803 30.8537 39.6238 49.295 42.04 49.4291C44.4561 49.5631 60.9313 36.2167 61.462 35.1672C61.9928 34.1181 56.6582 21.6329 55.0031 21.131C53.3485 20.6291 40.5274 16.6357 38.4088 16.6666Z" fill="#7878EF"/>
<mask id="mask2_629_807" style="mask-type:luminance" maskUnits="userSpaceOnUse" x="27" y="16" width="35" height="34">
<path d="M38.4088 16.6666C38.4088 16.6666 27.169 26.3504 27.1247 28.6021C27.0803 30.8537 39.6238 49.295 42.04 49.4291C44.4561 49.5631 60.9313 36.2167 61.462 35.1672C61.9928 34.1181 56.6582 21.6329 55.0031 21.131C53.3485 20.6291 40.5274 16.6357 38.4088 16.6666Z" fill="white"/>
</mask>
<g mask="url(#mask2_629_807)">
<path d="M55.003 21.1313C55.5672 24.5356 52.5027 31.5627 50.8282 33.8891C49.1536 36.2155 42.0399 49.4288 42.0399 49.4288L56.0571 48.7501L69.9328 33.5053L55.003 21.1308" fill="#5C5CCF"/>
</g>
</svg>
