<svg viewBox="0 0 590 480" xmlns="http://www.w3.org/2000/svg" xmlns:xlink="http://www.w3.org/1999/xlink"><clipPath id="a"><path d="m356.88 152.82s-92.86 44.05-97.29 59.01 45.5 161.18 61.4 166.51 150.46-53.58 155.93-59.61-7.24-99.23-17.37-105.62-88.45-56.61-102.66-60.29z"/></clipPath><clipPath id="b"><path d="m136.71 265.52c-9.14 1.18-19.7 25.61-20.18 33.92-.48 8.3 10.73 74.23 19.15 81.08 8.41 6.85 48.49 19 57.19 16.9s79.82-58.02 73.77-73.75c-5.7-14.85-29.08-30.12-45.02-36.78-11.2-4.68-66.32-23.77-84.91-21.36z"/></clipPath><clipPath id="c"><path d="m303.15 395.41c19.66 16.85 13.77 27.12 7.51 37.58s-31.11 45.25-49.64 38.03c-14.68-5.72-28.12-28.67-27.84-43.07.19-9.32 25.73-45.56 43.06-43.71 11.6 1.24 16.27 2.05 26.91 11.17z"/></clipPath><g fill="#7774f1"><path d="m382.15 113.5-8.14-5.81c-.58-.41-.53-1.48.12-2.37s1.63-1.29 2.21-.88l8.14 5.81c.58.41.53 1.48-.12 2.37s-1.63 1.29-2.21.88z"/><path d="m96.03 139.81-9.67-2.55c-.69-.18-1.01-1.19-.73-2.26s1.07-1.79 1.75-1.61l9.67 2.55c.69.18 1.01 1.19.73 2.26s-1.07 1.79-1.75 1.61z"/><path d="m265.97 10.71-5.39 8.42c-.38.6-1.45.6-2.38 0s-1.37-1.56-.99-2.16l5.39-8.42c.38-.6 1.45-.6 2.38 0s1.37 1.56.99 2.16z"/><path d="m560.09 156.62-5.58 8.3c-.4.59-1.46.57-2.38-.05s-1.34-1.59-.94-2.18l5.58-8.3c.4-.59 1.46-.57 2.38.05s1.34 1.59.94 2.18z"/><path d="m74.09 197.16-8.88-4.6c-.63-.33-.73-1.39-.22-2.37s1.43-1.51 2.06-1.18l8.88 4.6c.63.33.73 1.39.22 2.37s-1.43 1.51-2.06 1.18z"/><path d="m12.75 224.37-7.04-7.1c-.5-.5-.27-1.54.51-2.32s1.82-1 2.32-.5l7.04 7.1c.5.5.27 1.54-.51 2.32s-1.82 1-2.32.5z"/><path d="m502.37 216.37-10-.23c-.71-.02-1.26-.92-1.24-2.03s.62-1.99 1.33-1.97l10 .23c.71.02 1.26.92 1.24 2.03s-.62 1.99-1.33 1.97z"/><path d="m533.68 140.34-10-.23c-.71-.02-1.26-.92-1.24-2.03s.62-1.99 1.33-1.97l10 .23c.71.02 1.26.92 1.24 2.03s-.62 1.99-1.33 1.97z"/><path d="m576.69 245.31-7.76 6.31c-.55.45-1.56.12-2.26-.74s-.82-1.91-.27-2.36l7.76-6.31c.55-.45 1.56-.12 2.26.74s.82 1.91.27 2.36z"/><path d="m185.61 125.76.62-9.98c.04-.71.97-1.23 2.08-1.16s1.96.7 1.92 1.41l-.62 9.98c-.04.71-.97 1.23-2.08 1.16s-1.96-.7-1.92-1.41z"/><path d="m326.41 49.61-1.22-9.92c-.09-.7.73-1.38 1.83-1.52s2.06.33 2.14 1.03l1.22 9.92c.09.7-.73 1.38-1.83 1.52s-2.06-.33-2.14-1.03z"/><path d="m414.28 32.88-1.22-9.92c-.09-.7.73-1.38 1.83-1.52s2.06.33 2.14 1.03l1.22 9.92c.09.7-.73 1.38-1.83 1.52s-2.06-.33-2.14-1.03z"/></g><path d="m489.21 69.4-5.04 8.64c-.36.61-1.42.66-2.37.1s-1.44-1.5-1.08-2.12l5.04-8.64c.36-.61 1.42-.66 2.37-.1s1.44 1.5 1.08 2.12z" fill="#45e56e"/><path d="m522.78 274.11-9.86-1.69c-.7-.12-1.12-1.1-.93-2.19s.9-1.87 1.6-1.75l9.86 1.69c.7.12 1.12 1.1.93 2.19s-.9 1.87-1.6 1.75z" fill="#45e56e"/><path d="m303.69 24.45-4.56-8.9c-.32-.63.21-1.55 1.2-2.05s2.04-.4 2.37.23l4.56 8.9c.32.63-.21 1.55-1.2 2.05s-2.04.4-2.37-.23z" fill="#45e56e"/><path d="m444.21 123.66-8.44 5.36c-.6.38-1.56-.07-2.16-1s-.59-2 .01-2.38l8.44-5.36c.6-.38 1.56.07 2.16 1s.59 2-.01 2.38z" fill="#45e56e"/><path d="m389.64 53.72.67 9.98c.05.71-.81 1.34-1.91 1.42s-2.03-.44-2.08-1.15l-.67-9.98c-.05-.71.81-1.34 1.91-1.42s2.03.44 2.08 1.15z" fill="#45e56e"/><path d="m50.82 228.83-7.1 7.04c-.5.5-1.54.27-2.32-.52s-1-1.83-.5-2.32l7.1-7.04c.5-.5 1.54-.27 2.32.52s1 1.83.5 2.32z" fill="#45e56e"/><path d="m232.55 47.45 6.33 7.74c.45.55.12 1.56-.73 2.26s-1.91.82-2.36.27l-6.33-7.74c-.45-.55-.12-1.56.73-2.26s1.91-.82 2.36-.27z" fill="#45e56e"/><path d="m159.94 81.43-.24 10c-.02.71-.93 1.26-2.03 1.24s-1.99-.62-1.97-1.33l.24-10c.02-.71.93-1.26 2.03-1.24s1.99.62 1.97 1.33z" fill="#45e56e"/><path d="m29.5 185.88-9.56 2.92c-.68.21-1.49-.48-1.81-1.54s-.03-2.08.64-2.29l9.56-2.92c.68-.21 1.49.48 1.81 1.54s.03 2.08-.64 2.29z" fill="#45e56e"/><path d="m476.71 177.75 1.8 9.84c.13.7-.65 1.42-1.74 1.62s-2.07-.21-2.2-.9l-1.8-9.84c-.13-.7.65-1.42 1.74-1.62s2.07.21 2.2.9z" fill="#45e56e"/><path d="m38.98 214.41-6.21-7.84c-.44-.56-.1-1.56.77-2.25s1.93-.79 2.37-.23l6.21 7.84c.44.56.1 1.56-.77 2.25s-1.93.79-2.37.23z" fill="#ff807d"/><path d="m78.11 100.19-7.13-7.01c-.51-.5-.29-1.54.49-2.33s1.81-1.02 2.32-.52l7.13 7.01c.51.5.29 1.54-.49 2.33s-1.81 1.02-2.32.52z" fill="#ff807d"/><path d="m297.63 47.05-9.99-.5c-.71-.04-1.24-.96-1.18-2.06s.67-1.97 1.38-1.93l9.99.5c.71.04 1.24.96 1.18 2.06s-.67 1.97-1.38 1.93z" fill="#ff807d"/><path d="m457.1 45.44-.84 9.97c-.06.71-1 1.21-2.1 1.11s-1.94-.74-1.89-1.45l.84-9.97c.06-.71 1-1.21 2.1-1.11s1.94.74 1.89 1.45z" fill="#ff807d"/><path d="m325.45 78.05-.84 9.97c-.06.71-1 1.21-2.1 1.11s-1.94-.74-1.89-1.45l.84-9.97c.06-.71 1-1.21 2.1-1.11s1.94.74 1.89 1.45z" fill="#ff807d"/><path d="m188 34.35 1.44 9.9c.1.7-.7 1.4-1.79 1.56s-2.06-.28-2.16-.98l-1.44-9.9c-.1-.7.7-1.4 1.79-1.56s2.06.28 2.16.98z" fill="#ff807d"/><path d="m501.02 147.55-3.7 9.29c-.26.66-1.31.86-2.33.45-1.03-.41-1.65-1.27-1.38-1.93l3.7-9.29c.26-.66 1.31-.86 2.33-.45s1.65 1.27 1.38 1.93z" fill="#ff807d"/><path d="m473.34 102.7-9.19 3.93c-.65.28-1.53-.32-1.97-1.33s-.26-2.07.39-2.34l9.19-3.93c.65-.28 1.53.32 1.97 1.33s.26 2.07-.39 2.34z" fill="#ff807d"/><path d="m131.34 141.11-1.97 9.8c-.14.7-1.13 1.08-2.21.86s-1.85-.96-1.71-1.65l1.97-9.8c.14-.7 1.13-1.08 2.21-.86s1.85.96 1.71 1.65z" fill="#ff807d"/><path d="m528.74 204.25c-6.04-4.37-7.4-12.84-3.04-18.88 5.3-7.33 15.57-8.98 22.9-3.68 8.94 6.46 10.95 18.99 4.49 27.93-.65.9-1.9 1.1-2.79.45s-1.1-1.9-.45-2.79c5.17-7.15 3.56-17.17-3.59-22.34-5.54-4.01-13.31-2.76-17.31 2.78-3.08 4.25-2.12 10.22 2.14 13.29 3.23 2.33 7.75 1.6 10.08-1.62 1.74-2.4 1.19-5.77-1.21-7.5-1.74-1.26-4.18-.87-5.44.88-.65.9-1.9 1.1-2.79.45s-1.1-1.9-.45-2.79c2.55-3.53 7.5-4.33 11.03-1.77 4.19 3.03 5.13 8.9 2.1 13.09-3.62 5.01-10.65 6.14-15.66 2.52z" fill="#45e56e"/><path d="m168.23 148.25c5.46-5.08 14.03-4.76 19.11.7 6.16 6.62 5.78 17.02-.85 23.18-8.08 7.51-20.76 7.05-28.27-1.03-.75-.81-.71-2.07.1-2.83s2.07-.71 2.83.1c6.01 6.46 16.15 6.83 22.61.82 5.01-4.66 5.29-12.52.64-17.52-3.57-3.85-9.61-4.07-13.45-.49-2.91 2.71-3.08 7.28-.37 10.2 2.02 2.17 5.42 2.29 7.59.28 1.57-1.46 1.66-3.94.2-5.51-.75-.81-.71-2.07.1-2.83s2.07-.71 2.83.1c2.97 3.19 2.78 8.2-.41 11.16-3.79 3.52-9.73 3.3-13.25-.48-4.21-4.53-3.95-11.64.58-15.85z" fill="#45e56e"/><path d="m77.33 250.89c3.7 6.47 11.98 8.72 18.45 5.02 7.85-4.49 10.58-14.53 6.09-22.38-5.48-9.57-17.72-12.91-27.29-7.43-.96.55-1.29 1.77-.74 2.73s1.77 1.29 2.73.74c7.66-4.38 17.45-1.71 21.83 5.94 3.4 5.94 1.33 13.53-4.61 16.92-4.56 2.61-10.38 1.02-12.99-3.54-1.98-3.45-.77-7.87 2.68-9.85 2.57-1.47 5.86-.58 7.33 2 1.07 1.87.42 4.25-1.45 5.32-.96.55-1.29 1.77-.74 2.73s1.77 1.29 2.73.74c3.78-2.16 5.1-7 2.93-10.78-2.57-4.49-8.3-6.05-12.79-3.48-5.37 3.07-7.24 9.94-4.17 15.31z" fill="#45e56e"/><path d="m266.79 101.74c-7.21-1.9-11.53-9.31-9.63-16.52 2.3-8.74 11.29-13.98 20.04-11.68 10.66 2.81 17.05 13.77 14.24 24.44-.28 1.07-1.38 1.71-2.44 1.42s-1.71-1.38-1.42-2.44c2.25-8.53-2.86-17.3-11.39-19.55-6.61-1.74-13.41 2.22-15.15 8.83-1.34 5.08 1.7 10.29 6.78 11.63 3.85 1.01 7.8-1.29 8.82-5.14.75-2.87-.96-5.81-3.83-6.56-2.08-.55-4.22.7-4.76 2.78-.28 1.07-1.38 1.71-2.44 1.42s-1.71-1.38-1.42-2.44c1.11-4.21 5.44-6.73 9.65-5.63 5 1.32 7.99 6.45 6.68 11.45-1.58 5.98-7.72 9.56-13.7 7.99z" fill="#ff807d"/><path d="m405.59 85.4c1.46 7.31 8.6 12.07 15.91 10.6 8.87-1.78 14.64-10.43 12.86-19.3-2.16-10.81-12.72-17.85-23.54-15.68-1.08.22-1.79 1.27-1.57 2.35s1.27 1.79 2.35 1.57c8.65-1.73 17.1 3.9 18.83 12.55 1.34 6.7-3.02 13.25-9.72 14.59-5.15 1.03-10.17-2.32-11.2-7.47-.78-3.9 1.76-7.71 5.66-8.49 2.91-.58 5.74 1.31 6.32 4.21.42 2.11-.95 4.17-3.06 4.59-1.08.22-1.79 1.27-1.57 2.35s1.27 1.79 2.35 1.57c4.27-.86 7.05-5.02 6.19-9.3-1.01-5.07-5.96-8.37-11.03-7.35-6.06 1.21-10.01 7.14-8.8 13.2z" fill="#ff807d"/><path d="m63.52 159.73c-3.66 6.5-11.92 8.81-18.41 5.15-7.88-4.43-10.68-14.45-6.25-22.34 5.41-9.61 17.63-13.03 27.24-7.62.96.54 1.3 1.76.76 2.72s-1.76 1.3-2.72.76c-7.69-4.33-17.46-1.59-21.79 6.1-3.35 5.96-1.23 13.53 4.73 16.89 4.58 2.57 10.39.95 12.97-3.63 1.95-3.47.72-7.88-2.75-9.83-2.58-1.45-5.86-.53-7.32 2.05-1.05 1.87-.39 4.26 1.49 5.31.96.54 1.3 1.76.76 2.72s-1.76 1.3-2.72.76c-3.8-2.14-5.15-6.96-3.01-10.76 2.53-4.5 8.26-6.11 12.77-3.57 5.39 3.03 7.31 9.89 4.27 15.28z" fill="#ff807d"/><path d="m164.37 35.84c5.32 5.23 5.39 13.8.16 19.12-6.34 6.45-16.74 6.54-23.19.2-7.86-7.73-7.97-20.42-.24-28.28.77-.79 2.04-.8 2.83-.02s.8 2.04.02 2.83c-6.19 6.29-6.1 16.44.19 22.63 4.88 4.79 12.74 4.73 17.54-.15 3.68-3.74 3.63-9.78-.11-13.46-2.84-2.79-7.42-2.75-10.21.09-2.08 2.11-2.05 5.52.06 7.6 1.53 1.51 4.01 1.49 5.51-.05.77-.79 2.04-.8 2.83-.02s.8 2.04.02 2.83c-3.05 3.11-8.06 3.15-11.17.09-3.69-3.62-3.74-9.57-.11-13.26 4.34-4.41 11.45-4.47 15.86-.13z" fill="#7774f1"/><path d="m542.29 109.61c-2.23 7.11-9.83 11.08-16.95 8.85-8.63-2.71-13.45-11.93-10.74-20.56 3.3-10.52 14.55-16.4 25.07-13.1 1.05.33 1.64 1.45 1.31 2.51s-1.45 1.64-2.51 1.31c-8.42-2.64-17.41 2.06-20.06 10.48-2.05 6.52 1.6 13.5 8.12 15.54 5.01 1.57 10.36-1.22 11.93-6.23 1.19-3.8-.93-7.85-4.72-9.05-2.83-.89-5.85.69-6.74 3.52-.64 2.05.5 4.24 2.55 4.89 1.05.33 1.64 1.45 1.31 2.51s-1.45 1.64-2.51 1.31c-4.16-1.3-6.48-5.74-5.17-9.9 1.55-4.93 6.82-7.68 11.75-6.14 5.9 1.85 9.2 8.16 7.34 14.06z" fill="#7774f1"/><path d="m360.72 5.69c7.36 1.21 12.36 8.17 11.15 15.53-1.46 8.92-9.91 14.99-18.84 13.53-10.88-1.79-18.28-12.09-16.5-22.97.18-1.09 1.21-1.83 2.3-1.65s1.83 1.21 1.65 2.3c-1.43 8.71 4.49 16.95 13.2 18.38 6.75 1.11 13.14-3.48 14.24-10.23.85-5.18-2.67-10.09-7.85-10.94-3.93-.64-7.65 2.03-8.29 5.95-.48 2.92 1.51 5.69 4.43 6.17 2.12.35 4.13-1.09 4.48-3.22.18-1.09 1.21-1.83 2.3-1.65s1.83 1.21 1.65 2.3c-.7 4.3-4.77 7.22-9.07 6.52-5.1-.84-8.57-5.67-7.73-10.77 1-6.1 6.78-10.25 12.88-9.25z" fill="#7774f1"/><path d="m127.9 205.87c-4.51-3.22-5.04-7.28-5.51-10.86-.44-3.31-.78-5.92-3.87-8.13s-5.67-1.68-8.94-1.02c-3.54.72-7.56 1.53-12.06-1.68-4.51-3.22-5.04-7.28-5.51-10.86-.44-3.31-.78-5.92-3.87-8.12-.9-.64-1.11-1.89-.47-2.79s1.89-1.11 2.79-.47c4.51 3.22 5.04 7.28 5.51 10.86.44 3.31.78 5.92 3.87 8.13s5.67 1.68 8.94 1.02c3.54-.72 7.55-1.53 12.06 1.69s5.04 7.28 5.51 10.86c.44 3.31.78 5.92 3.87 8.13.9.64 1.11 1.89.47 2.79s-1.89 1.11-2.79.47z" fill="#45e56e"/><path d="m350.87 102.82c.38-5.52 3.55-8.11 6.35-10.39 2.59-2.11 4.63-3.77 4.89-7.56s-1.54-5.71-3.82-8.15c-2.47-2.64-5.27-5.63-4.89-11.15s3.55-8.11 6.35-10.39c2.59-2.11 4.63-3.77 4.89-7.56.07-1.1 1.03-1.93 2.13-1.86s1.93 1.03 1.86 2.13c-.38 5.52-3.55 8.11-6.35 10.39-2.59 2.11-4.63 3.77-4.89 7.56s1.54 5.71 3.82 8.15c2.47 2.64 5.27 5.63 4.89 11.15s-3.55 8.11-6.35 10.39c-2.59 2.11-4.63 3.77-4.89 7.56-.07 1.1-1.03 1.93-2.13 1.86s-1.93-1.03-1.86-2.13z" fill="#45e56e"/><path d="m487.23 124.85c-3.07 4.61-7.11 5.27-10.68 5.86-3.29.54-5.89.97-8 4.13-2.1 3.16-1.5 5.72-.73 8.97.83 3.52 1.77 7.5-1.29 12.11-3.07 4.61-7.11 5.27-10.67 5.86-3.29.54-5.89.97-8 4.13-.61.92-1.85 1.17-2.77.56s-1.17-1.85-.56-2.77c3.07-4.61 7.11-5.27 10.67-5.86 3.29-.54 5.89-.97 8-4.13s1.5-5.72.73-8.97c-.83-3.52-1.77-7.5 1.29-12.11s7.11-5.27 10.68-5.86c3.29-.54 5.89-.97 8-4.13.61-.92 1.85-1.17 2.77-.56s1.17 1.85.56 2.77z" fill="#7774f1"/><path d="m104.71 55.91c3.45 4.33 2.85 8.38 2.32 11.96-.49 3.3-.87 5.91 1.49 8.88s4.99 3.18 8.32 3.44c3.6.28 7.69.6 11.14 4.93s2.85 8.38 2.32 11.95c-.49 3.3-.87 5.91 1.49 8.87.69.86.55 2.12-.32 2.81s-2.12.55-2.81-.32c-3.45-4.33-2.85-8.38-2.32-11.95.49-3.3.88-5.91-1.49-8.88s-4.99-3.18-8.32-3.44c-3.6-.28-7.68-.6-11.13-4.93s-2.85-8.38-2.32-11.96c.49-3.3.87-5.91-1.49-8.88-.69-.86-.55-2.12.32-2.81s2.12-.55 2.81.32z" fill="#7774f1"/><path d="m204.72 64.91c2.29 5.04.72 8.82-.67 12.16-1.28 3.08-2.29 5.51-.72 8.97s4.07 4.3 7.23 5.36c3.42 1.15 7.31 2.46 9.6 7.5s.72 8.82-.67 12.16c-1.28 3.08-2.29 5.51-.72 8.97.46 1.01.01 2.19-.99 2.65s-2.19.01-2.65-.99c-2.29-5.04-.72-8.82.67-12.16 1.28-3.08 2.29-5.51.72-8.97s-4.07-4.3-7.23-5.36c-3.42-1.15-7.31-2.46-9.6-7.5s-.72-8.82.67-12.16c1.28-3.08 2.29-5.51.72-8.97-.46-1.01-.01-2.19.99-2.65s2.19-.01 2.65.99z" fill="#ff7f7a"/><path d="m578.96 229.76c-4.86 2.65-8.75 1.36-12.18.22-3.17-1.05-5.67-1.88-9-.06s-3.99 4.37-4.82 7.6c-.9 3.5-1.92 7.47-6.78 10.12s-8.75 1.36-12.18.22c-3.17-1.05-5.67-1.88-9-.06-.97.53-2.18.17-2.71-.8s-.17-2.18.8-2.71c4.86-2.65 8.75-1.36 12.17-.22 3.17 1.05 5.67 1.88 9 .06s3.99-4.37 4.82-7.6c.9-3.5 1.92-7.47 6.78-10.11 4.86-2.65 8.75-1.36 12.18-.22 3.17 1.05 5.67 1.88 9 .06.97-.53 2.18-.17 2.71.8s.17 2.18-.8 2.71z" fill="#ff7f7a"/><path d="m356.88 152.82s-92.86 44.05-97.29 59.01 45.5 161.18 61.4 166.51 150.46-53.58 155.93-59.61-7.24-99.23-17.37-105.62-88.45-56.61-102.66-60.29z" fill="#7774f1"/><g clip-path="url(#a)"><path d="m459.53 213.11c-2.48 23.78-35.85 65.1-51.31 77.56-15.46 12.47-87.24 87.67-87.24 87.67l94.88 21.2 120.68-76.36-77.01-110.08" fill="#5b58d1"/></g><path d="m136.71 265.52c-9.14 1.18-19.7 25.61-20.18 33.92-.48 8.3 10.73 74.23 19.15 81.08 8.41 6.85 48.49 19 57.19 16.9s79.82-58.02 73.77-73.75c-5.7-14.85-29.08-30.12-45.02-36.78-11.2-4.68-66.32-23.77-84.91-21.36z" fill="#ff7f7a"/><g clip-path="url(#b)"><path d="m150.16 360.43c20.53-5.56 53.95-7.1 79.82-12.12 25.88-5.02 73.85-40.55 86.77-53.8 12.93-13.25 20.13 5.58 20.13 5.58l2.83 80.46-48.11 22.16-158.81-4.15 17.36-38.13" fill="#c75467"/><path d="m98.31 233.62-36.19 32 62.71 147.38 25.06-52.33z" fill="#ff9284"/></g><path d="m303.15 395.41c19.66 16.85 13.77 27.12 7.51 37.58s-31.11 45.25-49.64 38.03c-14.68-5.72-28.12-28.67-27.84-43.07.19-9.32 25.73-45.56 43.06-43.71 11.6 1.24 16.27 2.05 26.91 11.17z" fill="#3ae668"/><g clip-path="url(#c)"><path d="m233.18 453.67s22.69 7.45 49.96-3.31 39.76-31.5 39.76-31.5l-6.27 33.7-5.88 45.28-68.47-2.21-9.1-41.97z" fill="#24af69"/></g></svg>