<svg fill="none" height="749" viewBox="0 0 2277 749" width="2277" xmlns="http://www.w3.org/2000/svg" xmlns:xlink="http://www.w3.org/1999/xlink"><clipPath id="a"><path d="m0 0h2277v749h-2277z"/></clipPath><g clip-path="url(#a)" fill="#000"><path d="m874.823 2.73267h131.387v13.43603h-57.839v152.3503h-15.712v-152.1226h-57.836z"/><path d="m1021.69 2.73267h15.71v71.96233h98.37v-71.96233h15.71v165.78633h-15.71v-80.1603h-98.37v80.1603h-15.71z"/><path d="m1185.18 2.73267h114.53v13.43603h-98.59v59.8926h92.22v13.436h-92.45v65.3587h99.73v13.663h-115.67z"/><path d="m874.823 579.798h105.198v13.436h-89.259v59.892h79.24v13.436h-79.467v79.022h-15.712z"/><path d="m1068.82 576.382c51.92 0 77.88 40.763 77.88 86.309s-25.96 86.309-77.88 86.309c-52.14 0-78.325-40.763-78.325-86.309s25.955-86.309 78.325-86.309zm0 159.182c43.72 0 62.17-36.664 62.17-72.873s-18.68-72.873-62.17-72.873c-43.94 0-62.39 36.664-62.39 72.873s18.45 72.873 62.39 72.873z"/><path d="m1169.69 579.798h15.72v102.705c0 38.259 17.76 53.061 48.5 53.061 30.96 0 48.72-14.802 48.72-53.061v-102.705h15.72v106.121c0 34.16-18.45 63.081-64.44 63.081-45.77 0-64.22-28.921-64.22-63.081z"/><path d="m1330.22 579.798h17.54l96.54 140.281h.46v-140.281h15.71v165.786h-17.53l-96.55-140.281h-.46v140.281h-15.71z"/><path d="m1493.94 579.798h57.38c50.09 1.138 76.05 28.01 76.05 82.893s-25.96 81.754-76.05 82.893h-57.38zm15.71 152.35h33.7c47.59 0 68.31-19.812 68.31-69.457s-20.72-69.457-68.31-69.457h-33.7z"/><path d="m1701.37 579.798h17.54l64.89 165.786h-16.85l-20.26-51.467h-75.37l-20.04 51.467h-16.85zm-25.04 100.883h65.12l-32.11-84.942z"/><path d="m1765.36 579.798h131.38v13.436h-57.83v152.35h-15.72v-152.35h-57.83z"/><path d="m1913.59 579.798h15.71v165.786h-15.71z"/><path d="m2033.36 576.382c51.92 0 77.87 40.763 77.87 86.309s-25.95 86.309-77.87 86.309c-52.14 0-78.33-40.763-78.33-86.309s25.96-86.309 78.33-86.309zm0 159.182c43.72 0 62.16-36.664 62.16-72.873s-18.67-72.873-62.16-72.873c-43.95 0-62.39 36.664-62.39 72.873s18.44 72.873 62.39 72.873z"/><path d="m2135.6 579.798h17.53l96.55 140.281h.45v-140.281h15.71v165.786h-17.53l-96.54-140.281h-.46v140.281h-15.71z"/><path d="m874.823 217.937h91.308v220.441h131.159v76.061h-222.694z"/><path d="m1157.17 217.937h91.31v296.502h-91.31z"/><path d="m1316.56 217.937h93.36l86.3 158.726h.91v-158.726h86.3v296.502h-88.81l-90.85-161.915h-.91v161.915h-86.3z"/><path d="m1921.1 399.892c0 82.665-43.49 121.607-135.02 121.607-91.31 0-135.48-38.942-135.48-121.607v-181.955h91.3v161.459c0 29.833-.45 68.091 44.41 68.091 43.26 0 43.26-38.258 43.26-68.091v-161.459h91.31v181.955z"/><path d="m2066.38 356.623-97.69-138.686h107.25l44.86 80.616 43.94-80.616h101.33l-94.95 139.597 105.88 156.905h-109.98l-50.55-88.358-52.37 88.358h-104.74z"/><path d="m149.371 596.422v-298.097h-149.371v447.259h447.43v-149.162z"/><path d="m745.262 0h-745.262v223.63h149.143v-73.784h447.203v446.576h-74.458v149.162h223.374z"/></g></svg>