<svg viewBox="0 0 256 224" xmlns="http://www.w3.org/2000/svg"><rect fill="#3ae668" height="59" rx="29.5" width="252" x="2" y="161.91"/><path d="m204.01 193.91h-146.02c-13.78 0-24.99-11.21-24.99-24.99v-96.01c0-13.78 11.21-24.99 24.99-24.99h146.01c13.78 0 24.99 11.21 24.99 24.99v96.01c0 13.78-11.21 24.99-24.99 24.99zm-146.02-128c-3.86 0-6.99 3.14-6.99 6.99v96.01c0 3.86 3.14 6.99 6.99 6.99h146.01c3.86 0 6.99-3.14 6.99-6.99v-96.01c0-3.86-3.14-6.99-6.99-6.99z"/><path d="m224 154.91h-51.5c-18.47 0-33.5-15.03-33.5-33.5s15.03-33.5 33.5-33.5h51.5zm-51.5-49c-8.55 0-15.5 6.95-15.5 15.5s6.95 15.5 15.5 15.5h33.5v-31z"/><path d="m227.17 180.91h-7.17c-4.97 0-9-4.03-9-9s4.03-9 9-9h7.17c3.86 0 7-3.14 7-7v-86.47c0-15.03-12.23-27.26-27.25-27.26h-132.93c-3.86 0-7 3.14-7 7v7.73c0 4.97-4.03 9-9 9s-9-4.03-9-9v-7.73c0-13.79 11.21-25 25-25h132.92c24.95 0 45.25 20.3 45.25 45.26v86.47c0 13.79-11.21 25-25 25z"/><circle cx="173" cy="120.91" r="5"/></svg>