<?xml version="1.0" encoding="UTF-8"?><svg id="Layer_1" xmlns="http://www.w3.org/2000/svg" viewBox="0 0 256 224"><defs><style>.cls-1{fill:#3ae668;}</style></defs><rect class="cls-1" x="2" y="161.91" width="252" height="59" rx="29.5" ry="29.5"/><path d="M204.01,193.91H57.99c-13.78,0-24.99-11.21-24.99-24.99v-96.01c0-13.78,11.21-24.99,24.99-24.99h146.01c13.78,0,24.99,11.21,24.99,24.99v96.01c0,13.78-11.21,24.99-24.99,24.99ZM57.99,65.91c-3.86,0-6.99,3.14-6.99,6.99v96.01c0,3.86,3.14,6.99,6.99,6.99h146.01c3.86,0,6.99-3.14,6.99-6.99v-96.01c0-3.86-3.14-6.99-6.99-6.99H57.99Z"/><path d="M224,154.91h-51.5c-18.47,0-33.5-15.03-33.5-33.5s15.03-33.5,33.5-33.5h51.5v67ZM172.5,105.91c-8.55,0-15.5,6.95-15.5,15.5s6.95,15.5,15.5,15.5h33.5v-31h-33.5Z"/><path d="M227.17,180.91h-7.17c-4.97,0-9-4.03-9-9s4.03-9,9-9h7.17c3.86,0,7-3.14,7-7v-86.47c0-15.03-12.23-27.26-27.25-27.26H73.99c-3.86,0-7,3.14-7,7v7.73c0,4.97-4.03,9-9,9s-9-4.03-9-9v-7.73c0-13.79,11.21-25,25-25h132.92c24.95,0,45.25,20.3,45.25,45.26v86.47c0,13.79-11.21,25-25,25Z"/><circle cx="173" cy="120.91" r="5"/></svg>